%TF.GenerationSoftware,KiCad,Pcbnew,(5.1.9)-1*%
%TF.CreationDate,2021-11-29T10:56:02+07:00*%
%TF.ProjectId,Hackathon_PCB,4861636b-6174-4686-9f6e-5f5043422e6b,rev?*%
%TF.SameCoordinates,Original*%
%TF.FileFunction,Copper,L4,Bot*%
%TF.FilePolarity,Positive*%
%FSLAX46Y46*%
G04 Gerber Fmt 4.6, Leading zero omitted, Abs format (unit mm)*
G04 Created by KiCad (PCBNEW (5.1.9)-1) date 2021-11-29 10:56:02*
%MOMM*%
%LPD*%
G01*
G04 APERTURE LIST*
%TA.AperFunction,ComponentPad*%
%ADD10R,1.700000X1.700000*%
%TD*%
%TA.AperFunction,ComponentPad*%
%ADD11O,1.700000X1.700000*%
%TD*%
%TA.AperFunction,ComponentPad*%
%ADD12O,2.000000X1.700000*%
%TD*%
%TA.AperFunction,ComponentPad*%
%ADD13O,1.700000X1.950000*%
%TD*%
%TA.AperFunction,ComponentPad*%
%ADD14R,3.000000X3.000000*%
%TD*%
%TA.AperFunction,SMDPad,CuDef*%
%ADD15R,3.000000X5.000000*%
%TD*%
%TA.AperFunction,ComponentPad*%
%ADD16O,2.190000X1.740000*%
%TD*%
%TA.AperFunction,ComponentPad*%
%ADD17O,1.950000X1.700000*%
%TD*%
%TA.AperFunction,ViaPad*%
%ADD18C,0.700000*%
%TD*%
%TA.AperFunction,Conductor*%
%ADD19C,0.250000*%
%TD*%
%TA.AperFunction,Conductor*%
%ADD20C,0.500000*%
%TD*%
%TA.AperFunction,Conductor*%
%ADD21C,1.000000*%
%TD*%
%TA.AperFunction,Conductor*%
%ADD22C,0.400000*%
%TD*%
%TA.AperFunction,Conductor*%
%ADD23C,0.254000*%
%TD*%
%TA.AperFunction,Conductor*%
%ADD24C,0.100000*%
%TD*%
G04 APERTURE END LIST*
D10*
%TO.P,J3,1*%
%TO.N,/ESP_RX*%
X75440000Y-51590000D03*
D11*
%TO.P,J3,2*%
%TO.N,/ESP_TX*%
X77980000Y-51590000D03*
%TO.P,J3,3*%
%TO.N,Net-(J3-Pad3)*%
X75440000Y-54130000D03*
%TO.P,J3,4*%
%TO.N,Net-(J3-Pad4)*%
X77980000Y-54130000D03*
%TO.P,J3,5*%
%TO.N,/ESP32C3-12F-Minsys/RXD0*%
X75440000Y-56670000D03*
%TO.P,J3,6*%
%TO.N,/ESP32C3-12F-Minsys/TXD0*%
X77980000Y-56670000D03*
%TD*%
%TO.P,J4,1*%
%TO.N,Net-(J4-Pad1)*%
%TA.AperFunction,ComponentPad*%
G36*
G01*
X136700000Y-44010000D02*
X138200000Y-44010000D01*
G75*
G02*
X138450000Y-44260000I0J-250000D01*
G01*
X138450000Y-45460000D01*
G75*
G02*
X138200000Y-45710000I-250000J0D01*
G01*
X136700000Y-45710000D01*
G75*
G02*
X136450000Y-45460000I0J250000D01*
G01*
X136450000Y-44260000D01*
G75*
G02*
X136700000Y-44010000I250000J0D01*
G01*
G37*
%TD.AperFunction*%
D12*
%TO.P,J4,2*%
%TO.N,Net-(J4-Pad2)*%
X137450000Y-47360000D03*
%TD*%
%TO.P,J5,2*%
%TO.N,Net-(BT1-Pad1+)*%
X132100000Y-44890000D03*
%TO.P,J5,1*%
%TO.N,Net-(BT1-Pad1-)*%
%TA.AperFunction,ComponentPad*%
G36*
G01*
X132850000Y-48240000D02*
X131350000Y-48240000D01*
G75*
G02*
X131100000Y-47990000I0J250000D01*
G01*
X131100000Y-46790000D01*
G75*
G02*
X131350000Y-46540000I250000J0D01*
G01*
X132850000Y-46540000D01*
G75*
G02*
X133100000Y-46790000I0J-250000D01*
G01*
X133100000Y-47990000D01*
G75*
G02*
X132850000Y-48240000I-250000J0D01*
G01*
G37*
%TD.AperFunction*%
%TD*%
%TO.P,J6,1*%
%TO.N,Net-(J6-Pad1)*%
%TA.AperFunction,ComponentPad*%
G36*
G01*
X114160000Y-36355000D02*
X114160000Y-37805000D01*
G75*
G02*
X113910000Y-38055000I-250000J0D01*
G01*
X112710000Y-38055000D01*
G75*
G02*
X112460000Y-37805000I0J250000D01*
G01*
X112460000Y-36355000D01*
G75*
G02*
X112710000Y-36105000I250000J0D01*
G01*
X113910000Y-36105000D01*
G75*
G02*
X114160000Y-36355000I0J-250000D01*
G01*
G37*
%TD.AperFunction*%
D13*
%TO.P,J6,2*%
%TO.N,Net-(J6-Pad2)*%
X110810000Y-37080000D03*
%TO.P,J6,3*%
%TO.N,Net-(J6-Pad3)*%
X108310000Y-37080000D03*
%TO.P,J6,4*%
%TO.N,Net-(J6-Pad4)*%
X105810000Y-37080000D03*
%TD*%
D14*
%TO.P,U2,1*%
%TO.N,Net-(S3-Pad3)*%
X127900000Y-55590000D03*
%TO.P,U2,2*%
%TO.N,Net-(J4-Pad1)*%
X127900000Y-34590000D03*
%TO.P,U2,3*%
%TO.N,GND*%
X83900000Y-34590000D03*
%TO.P,U2,4*%
%TO.N,Net-(F3-Pad2)*%
X83900000Y-55590000D03*
%TD*%
D11*
%TO.P,U3,4*%
%TO.N,Net-(J6-Pad1)*%
X126150000Y-59948000D03*
%TO.P,U3,2*%
%TO.N,Net-(J6-Pad3)*%
X121070000Y-59948000D03*
%TO.P,U3,3*%
%TO.N,Net-(J6-Pad2)*%
X123610000Y-59948000D03*
D10*
%TO.P,U3,1*%
%TO.N,Net-(J6-Pad4)*%
X118530000Y-59948000D03*
%TD*%
D15*
%TO.P,BT1,3-*%
%TO.N,Net-(BT1-Pad1-)*%
X118930000Y-107820000D03*
%TO.P,BT1,3+*%
%TO.N,Net-(BT1-Pad1+)*%
X118930000Y-34920000D03*
%TO.P,BT1,2+*%
X99630000Y-34920000D03*
%TO.P,BT1,2-*%
%TO.N,Net-(BT1-Pad1-)*%
X99630000Y-107820000D03*
%TO.P,BT1,1-*%
X80330000Y-107820000D03*
%TO.P,BT1,1+*%
%TO.N,Net-(BT1-Pad1+)*%
X80330000Y-34920000D03*
%TD*%
D16*
%TO.P,J7,3*%
%TO.N,GND*%
X73200000Y-34410000D03*
%TO.P,J7,2*%
%TO.N,/GAS_DATA*%
X73200000Y-36950000D03*
%TO.P,J7,1*%
%TO.N,Net-(F1-Pad1)*%
%TA.AperFunction,ComponentPad*%
G36*
G01*
X74045001Y-40360000D02*
X72354999Y-40360000D01*
G75*
G02*
X72105000Y-40110001I0J249999D01*
G01*
X72105000Y-38869999D01*
G75*
G02*
X72354999Y-38620000I249999J0D01*
G01*
X74045001Y-38620000D01*
G75*
G02*
X74295000Y-38869999I0J-249999D01*
G01*
X74295000Y-40110001D01*
G75*
G02*
X74045001Y-40360000I-249999J0D01*
G01*
G37*
%TD.AperFunction*%
%TD*%
%TO.P,J8,1*%
%TO.N,Net-(F2-Pad1)*%
%TA.AperFunction,ComponentPad*%
G36*
G01*
X74035001Y-48810000D02*
X72344999Y-48810000D01*
G75*
G02*
X72095000Y-48560001I0J249999D01*
G01*
X72095000Y-47319999D01*
G75*
G02*
X72344999Y-47070000I249999J0D01*
G01*
X74035001Y-47070000D01*
G75*
G02*
X74285000Y-47319999I0J-249999D01*
G01*
X74285000Y-48560001D01*
G75*
G02*
X74035001Y-48810000I-249999J0D01*
G01*
G37*
%TD.AperFunction*%
%TO.P,J8,2*%
%TO.N,/DHT_DATA*%
X73190000Y-45400000D03*
%TO.P,J8,3*%
%TO.N,GND*%
X73190000Y-42860000D03*
%TD*%
%TO.P,J1,1*%
%TO.N,GND*%
%TA.AperFunction,ComponentPad*%
G36*
G01*
X136915000Y-92960000D02*
X135465000Y-92960000D01*
G75*
G02*
X135215000Y-92710000I0J250000D01*
G01*
X135215000Y-91510000D01*
G75*
G02*
X135465000Y-91260000I250000J0D01*
G01*
X136915000Y-91260000D01*
G75*
G02*
X137165000Y-91510000I0J-250000D01*
G01*
X137165000Y-92710000D01*
G75*
G02*
X136915000Y-92960000I-250000J0D01*
G01*
G37*
%TD.AperFunction*%
D17*
%TO.P,J1,2*%
X136190000Y-89610000D03*
%TO.P,J1,3*%
%TO.N,/DHT_DATA*%
X136190000Y-87110000D03*
%TO.P,J1,4*%
%TO.N,/GAS_DATA*%
X136190000Y-84610000D03*
%TO.P,J1,5*%
%TO.N,/M_TX*%
X136190000Y-82110000D03*
%TO.P,J1,6*%
%TO.N,/M_RX*%
X136190000Y-79610000D03*
%TO.P,J1,7*%
%TO.N,/PERST*%
X136190000Y-77110000D03*
%TO.P,J1,8*%
%TO.N,/M_DIS*%
X136190000Y-74610000D03*
%TO.P,J1,9*%
%TO.N,/M_WAKE*%
X136190000Y-72110000D03*
%TO.P,J1,10*%
%TO.N,/M_EN*%
X136190000Y-69610000D03*
%TO.P,J1,11*%
%TO.N,/ESP_TX*%
X136190000Y-67110000D03*
%TO.P,J1,12*%
%TO.N,/ESP_RX*%
X136190000Y-64610000D03*
%TO.P,J1,13*%
%TO.N,/ESP_EN*%
X136190000Y-62110000D03*
%TO.P,J1,14*%
%TO.N,+5V*%
X136190000Y-59610000D03*
%TD*%
%TO.P,J2,1*%
%TO.N,GND*%
%TA.AperFunction,ComponentPad*%
G36*
G01*
X96195000Y-60860000D02*
X97645000Y-60860000D01*
G75*
G02*
X97895000Y-61110000I0J-250000D01*
G01*
X97895000Y-62310000D01*
G75*
G02*
X97645000Y-62560000I-250000J0D01*
G01*
X96195000Y-62560000D01*
G75*
G02*
X95945000Y-62310000I0J250000D01*
G01*
X95945000Y-61110000D01*
G75*
G02*
X96195000Y-60860000I250000J0D01*
G01*
G37*
%TD.AperFunction*%
%TO.P,J2,2*%
%TO.N,/ESP32C3-12F-Minsys/RTS*%
X96920000Y-64210000D03*
%TO.P,J2,3*%
%TO.N,/ESP32C3-12F-Minsys/RXD0*%
X96920000Y-66710000D03*
%TO.P,J2,4*%
%TO.N,/ESP32C3-12F-Minsys/TXD0*%
X96920000Y-69210000D03*
%TO.P,J2,5*%
%TO.N,/ESP32C3-12F-Minsys/DTR*%
X96920000Y-71710000D03*
%TO.P,J2,6*%
%TO.N,/ESP32C3-12F-Minsys/ESP_VCC*%
X96920000Y-74210000D03*
%TD*%
D18*
%TO.N,/ESP32C3-12F-Minsys/CHIP_EN*%
X88750000Y-74850000D03*
X90230000Y-78380000D03*
X74750000Y-77900000D03*
X86275000Y-78440000D03*
X134600000Y-101890000D03*
X97170000Y-53770000D03*
X91370000Y-58340000D03*
X88030000Y-66770000D03*
%TO.N,GND*%
X84770000Y-45010000D03*
X85740000Y-45000000D03*
X86700000Y-45030000D03*
X84440000Y-45990000D03*
X84360000Y-46980000D03*
X87670000Y-45010000D03*
X88600000Y-45130000D03*
X89160000Y-45990000D03*
X104530000Y-68190000D03*
X106140000Y-68190000D03*
X107660000Y-68170000D03*
X109240000Y-68220000D03*
X110990000Y-68220000D03*
X107690000Y-69950000D03*
X104560000Y-69970000D03*
X106170000Y-69970000D03*
X111020000Y-70000000D03*
X109270000Y-70000000D03*
X106200000Y-71810000D03*
X111050000Y-71840000D03*
X109300000Y-71840000D03*
X107720000Y-71790000D03*
X104590000Y-71810000D03*
X107860000Y-73710000D03*
X111190000Y-73760000D03*
X106340000Y-73730000D03*
X104730000Y-73730000D03*
X109440000Y-73760000D03*
X86390000Y-89400000D03*
X86380000Y-90280000D03*
X86820000Y-90980000D03*
X87440000Y-91620000D03*
X92130000Y-97370000D03*
X92200000Y-96390000D03*
X92220000Y-95460000D03*
X92030000Y-91550000D03*
X92010000Y-92450000D03*
X91990000Y-93390000D03*
X91990000Y-94310000D03*
X126610000Y-86230000D03*
X126940000Y-79470000D03*
X127960000Y-79490000D03*
X127990000Y-80370000D03*
X126960000Y-80420000D03*
X98540000Y-40740000D03*
X99980000Y-40740000D03*
X101410000Y-40770000D03*
X99950000Y-41870000D03*
X101380000Y-41900000D03*
X98510000Y-41870000D03*
X98510000Y-42970000D03*
X101380000Y-43000000D03*
X99950000Y-42970000D03*
X118900000Y-40810000D03*
X117430000Y-41940000D03*
X120330000Y-40840000D03*
X117460000Y-40810000D03*
X117430000Y-43040000D03*
X120300000Y-41970000D03*
X118870000Y-41940000D03*
X120300000Y-43070000D03*
X118870000Y-43040000D03*
X117370000Y-49840000D03*
X120240000Y-48770000D03*
X117370000Y-48740000D03*
X120240000Y-49870000D03*
X118840000Y-47610000D03*
X117400000Y-47610000D03*
X118810000Y-48740000D03*
X120270000Y-47640000D03*
X118810000Y-49840000D03*
X116850000Y-72250000D03*
X118320000Y-70020000D03*
X116880000Y-70020000D03*
X119750000Y-70050000D03*
X119720000Y-71180000D03*
X118290000Y-71150000D03*
X116850000Y-71150000D03*
X119720000Y-72280000D03*
X118290000Y-72250000D03*
X74510000Y-94330000D03*
X75920000Y-96560000D03*
X75950000Y-94330000D03*
X77380000Y-94360000D03*
X77350000Y-96590000D03*
X77350000Y-95490000D03*
X74480000Y-96560000D03*
X75920000Y-95460000D03*
X74480000Y-95460000D03*
X95700000Y-88220000D03*
X96810000Y-88200000D03*
X97940000Y-88200000D03*
X73510000Y-67370000D03*
X76380000Y-66300000D03*
X73510000Y-66270000D03*
X76380000Y-67400000D03*
X74980000Y-65140000D03*
X73540000Y-65140000D03*
X74950000Y-66270000D03*
X76410000Y-65170000D03*
X74950000Y-67370000D03*
X74910000Y-70770000D03*
X76340000Y-69700000D03*
X73500000Y-68540000D03*
X74910000Y-69670000D03*
X74940000Y-68540000D03*
X73470000Y-69670000D03*
X73470000Y-70770000D03*
X76370000Y-68570000D03*
X76340000Y-70800000D03*
X113100000Y-90750000D03*
X114540000Y-90750000D03*
X115970000Y-91880000D03*
X114540000Y-91850000D03*
X116000000Y-89650000D03*
X113130000Y-89620000D03*
X113100000Y-91850000D03*
X115970000Y-90780000D03*
X114570000Y-89620000D03*
%TO.N,/ESP32C3-12F-Minsys/IO9*%
X134700000Y-94660000D03*
X96800000Y-52490000D03*
%TO.N,/ESP32C3-12F-Minsys/ESP_VCC*%
X84490000Y-85020000D03*
X84480000Y-84230000D03*
X84490000Y-83410000D03*
X84360000Y-82610000D03*
X84370000Y-81780000D03*
X84390000Y-80960000D03*
X84380000Y-80140000D03*
X84380000Y-79340000D03*
%TO.N,+5V*%
X105858200Y-79041200D03*
X105870000Y-79830000D03*
X105460000Y-83580000D03*
X105430000Y-84350000D03*
X104500000Y-85470000D03*
X104420000Y-86360000D03*
X84490000Y-87290000D03*
X84500000Y-88110000D03*
X84490000Y-88930000D03*
X84490000Y-89750000D03*
X84490000Y-90570000D03*
X84490000Y-91380000D03*
X89120000Y-43210000D03*
X88140000Y-43160000D03*
X87100000Y-43160000D03*
X86020000Y-43130000D03*
X85230000Y-43150000D03*
X84480000Y-43120000D03*
%TO.N,/ESP32C3-12F-Minsys/RTS*%
X90260000Y-64820000D03*
%TO.N,/ESP32C3-12F-Minsys/TXD0*%
X96560000Y-59320000D03*
%TO.N,/ESP32C3-12F-Minsys/DTR*%
X90337500Y-72450000D03*
X92320000Y-61300000D03*
%TO.N,/Modem/SIM_VDD*%
X110020000Y-97480000D03*
X114140000Y-104700000D03*
%TO.N,/Modem/VCC_MODEM*%
X109261800Y-79041200D03*
X109260000Y-79940000D03*
X109240000Y-81930000D03*
X109240000Y-82860000D03*
X109260000Y-83740000D03*
X109090000Y-84680000D03*
X109120000Y-85570000D03*
X114800000Y-79210000D03*
X119130000Y-82390000D03*
X119880000Y-82380000D03*
X127240000Y-87100000D03*
X128000000Y-87110000D03*
X127250000Y-87740000D03*
X128000000Y-87770000D03*
X121890000Y-108800000D03*
X121930000Y-108030000D03*
X121930000Y-107290000D03*
%TO.N,Net-(IC2-Pad1)*%
X117550000Y-81040000D03*
X103870000Y-80270000D03*
%TO.N,/ESP_TX*%
X94410000Y-50150000D03*
%TO.N,/ESP_RX*%
X94480000Y-48710000D03*
%TO.N,/ESP_EN*%
X130940000Y-65030000D03*
%TO.N,Net-(J9-Pad42)*%
X131390000Y-91620000D03*
X128310000Y-81750000D03*
X123260000Y-83490000D03*
X117410000Y-86570000D03*
%TO.N,Net-(J9-Pad20)*%
X124390000Y-79670000D03*
X127560000Y-76540000D03*
%TO.N,Net-(J9-Pad13)*%
X130890000Y-95100000D03*
X130380000Y-101480000D03*
%TO.N,Net-(J9-Pad1)*%
X129080000Y-74410000D03*
X124300000Y-102110000D03*
%TO.N,Net-(J10-PadC7)*%
X97550000Y-103260000D03*
X93420000Y-102440000D03*
%TO.N,Net-(J10-PadC6)*%
X97830000Y-89800000D03*
X93340000Y-99890000D03*
%TO.N,Net-(J10-PadC2)*%
X94960000Y-94260000D03*
X95750000Y-89670000D03*
X99370000Y-99960000D03*
X93380000Y-101170000D03*
%TO.N,/BAT_STAT*%
X134250000Y-76050000D03*
X126537500Y-48700000D03*
%TD*%
D19*
%TO.N,/ESP32C3-12F-Minsys/CHIP_EN*%
X88750000Y-74850000D02*
X88750000Y-77720000D01*
X89410000Y-78380000D02*
X90230000Y-78380000D01*
X88750000Y-77720000D02*
X89410000Y-78380000D01*
X75290000Y-78440000D02*
X86275000Y-78440000D01*
X74750000Y-77900000D02*
X75290000Y-78440000D01*
D20*
X91370000Y-58340000D02*
X88360000Y-61350000D01*
X88360000Y-61350000D02*
X88360000Y-66520000D01*
X88110000Y-66770000D02*
X88030000Y-66770000D01*
X88360000Y-66520000D02*
X88110000Y-66770000D01*
X101220000Y-53530000D02*
X97410000Y-53530000D01*
X130130000Y-84820000D02*
X130130000Y-72830000D01*
X132770000Y-87460000D02*
X130130000Y-84820000D01*
X132770000Y-94390000D02*
X132770000Y-87460000D01*
X114890000Y-67200000D02*
X101220000Y-53530000D01*
X133430000Y-100720000D02*
X133430000Y-95050000D01*
X134600000Y-101890000D02*
X133430000Y-100720000D01*
X97410000Y-53530000D02*
X97170000Y-53770000D01*
X133430000Y-95050000D02*
X132770000Y-94390000D01*
X130130000Y-71370000D02*
X125960000Y-67200000D01*
X130130000Y-72830000D02*
X130130000Y-71370000D01*
X125960000Y-67200000D02*
X114890000Y-67200000D01*
X130130000Y-72830000D02*
X130130000Y-72500000D01*
%TO.N,/ESP32C3-12F-Minsys/IO9*%
X134700000Y-94660000D02*
X133730000Y-93690000D01*
X133730000Y-93690000D02*
X133730000Y-87090000D01*
X133730000Y-87090000D02*
X131080000Y-84440000D01*
X131080000Y-84440000D02*
X131080000Y-71020000D01*
X131080000Y-71020000D02*
X126290000Y-66230000D01*
X126290000Y-66230000D02*
X115220000Y-66230000D01*
X115220000Y-66230000D02*
X101480000Y-52490000D01*
X101480000Y-52490000D02*
X96800000Y-52490000D01*
D19*
%TO.N,/ESP32C3-12F-Minsys/RTS*%
X90260000Y-64820000D02*
X91010000Y-64070000D01*
X96780000Y-64070000D02*
X96920000Y-64210000D01*
X91010000Y-64070000D02*
X96780000Y-64070000D01*
%TO.N,/ESP32C3-12F-Minsys/RXD0*%
X75440000Y-56670000D02*
X75440000Y-56250000D01*
X75440000Y-56250000D02*
X76280000Y-55410000D01*
X76280000Y-55410000D02*
X78750000Y-55410000D01*
X78750000Y-55410000D02*
X81320000Y-52840000D01*
X81320000Y-52840000D02*
X92510000Y-52840000D01*
X92510000Y-52840000D02*
X99190000Y-59520000D01*
X99190000Y-64440000D02*
X96920000Y-66710000D01*
X99190000Y-59520000D02*
X99190000Y-64440000D01*
%TO.N,/ESP32C3-12F-Minsys/TXD0*%
X77980000Y-56670000D02*
X78290000Y-56670000D01*
X77980000Y-56670000D02*
X78650000Y-56670000D01*
X78650000Y-56670000D02*
X81910000Y-53410000D01*
X81910000Y-53410000D02*
X92220000Y-53410000D01*
X96560000Y-57750000D02*
X96560000Y-59320000D01*
X92220000Y-53410000D02*
X96560000Y-57750000D01*
%TO.N,/ESP32C3-12F-Minsys/DTR*%
X91230000Y-72450000D02*
X90337500Y-72450000D01*
X91970000Y-71710000D02*
X91230000Y-72450000D01*
X96920000Y-71710000D02*
X91970000Y-71710000D01*
X92320000Y-61300000D02*
X91150000Y-61300000D01*
X91150000Y-61300000D02*
X89290000Y-63160000D01*
X89290000Y-63160000D02*
X89290000Y-72010000D01*
X89730000Y-72450000D02*
X90337500Y-72450000D01*
X89290000Y-72010000D02*
X89730000Y-72450000D01*
D21*
%TO.N,Net-(BT1-Pad1+)*%
X99630000Y-34920000D02*
X100980000Y-34920000D01*
X100980000Y-34920000D02*
X102330000Y-33570000D01*
X117580000Y-33570000D02*
X118930000Y-34920000D01*
X102330000Y-33570000D02*
X117580000Y-33570000D01*
X80330000Y-34920000D02*
X80330000Y-37570000D01*
X80330000Y-37570000D02*
X81180000Y-38420000D01*
X81180000Y-38420000D02*
X87530000Y-38420000D01*
X91030000Y-34920000D02*
X99630000Y-34920000D01*
X87530000Y-38420000D02*
X91030000Y-34920000D01*
X126850000Y-44890000D02*
X132100000Y-44890000D01*
X125350000Y-43390000D02*
X126850000Y-44890000D01*
X125350000Y-38330000D02*
X125350000Y-43390000D01*
X121940000Y-34920000D02*
X125350000Y-38330000D01*
X118930000Y-34920000D02*
X121940000Y-34920000D01*
%TO.N,Net-(BT1-Pad1-)*%
X80330000Y-107820000D02*
X99630000Y-107820000D01*
X99630000Y-107820000D02*
X118930000Y-107820000D01*
X118930000Y-105680000D02*
X118930000Y-107820000D01*
X120880000Y-103730000D02*
X118930000Y-105680000D01*
X138990000Y-100050000D02*
X135310000Y-103730000D01*
X135310000Y-103730000D02*
X120880000Y-103730000D01*
X138990000Y-53820000D02*
X138990000Y-100050000D01*
X132560000Y-47390000D02*
X138990000Y-53820000D01*
X132100000Y-47390000D02*
X132560000Y-47390000D01*
D20*
%TO.N,/Modem/SIM_VDD*%
X110020000Y-97480000D02*
X110020000Y-104180000D01*
X110020000Y-104180000D02*
X110550000Y-104710000D01*
X114130000Y-104710000D02*
X114140000Y-104700000D01*
X110550000Y-104710000D02*
X114130000Y-104710000D01*
D19*
%TO.N,Net-(IC2-Pad1)*%
X104640000Y-81040000D02*
X103870000Y-80270000D01*
X117550000Y-81040000D02*
X104640000Y-81040000D01*
D20*
%TO.N,/DHT_DATA*%
X135290000Y-87110000D02*
X136190000Y-87110000D01*
X132000000Y-83820000D02*
X135290000Y-87110000D01*
X132000000Y-70510000D02*
X132000000Y-83820000D01*
X126750000Y-65260000D02*
X132000000Y-70510000D01*
X115660000Y-65260000D02*
X126750000Y-65260000D01*
X91400000Y-41000000D02*
X115660000Y-65260000D01*
X80190000Y-41000000D02*
X91400000Y-41000000D01*
X75790000Y-45400000D02*
X80190000Y-41000000D01*
X73190000Y-45400000D02*
X75790000Y-45400000D01*
%TO.N,/GAS_DATA*%
X134470000Y-84610000D02*
X136190000Y-84610000D01*
X132950000Y-83090000D02*
X134470000Y-84610000D01*
X132950000Y-70200000D02*
X132950000Y-83090000D01*
X116110000Y-64410000D02*
X127160000Y-64410000D01*
X91653051Y-39953051D02*
X116110000Y-64410000D01*
X80506949Y-39953051D02*
X91653051Y-39953051D01*
X127160000Y-64410000D02*
X132950000Y-70200000D01*
X77503897Y-36950000D02*
X80506949Y-39953051D01*
X73200000Y-36950000D02*
X77503897Y-36950000D01*
%TO.N,/ESP_TX*%
X77980000Y-51590000D02*
X77980000Y-50360000D01*
X77980000Y-50360000D02*
X78750000Y-49590000D01*
X78750000Y-49590000D02*
X93500000Y-49590000D01*
X94060000Y-50150000D02*
X94410000Y-50150000D01*
X93500000Y-49590000D02*
X94060000Y-50150000D01*
%TO.N,/ESP_RX*%
X94480000Y-48710000D02*
X77320000Y-48710000D01*
X75440000Y-50590000D02*
X75440000Y-51590000D01*
X77320000Y-48710000D02*
X75440000Y-50590000D01*
%TO.N,/ESP_EN*%
X136190000Y-62110000D02*
X133860000Y-62110000D01*
X133860000Y-62110000D02*
X130940000Y-65030000D01*
D19*
%TO.N,Net-(J9-Pad42)*%
X131390000Y-91620000D02*
X131390000Y-87330000D01*
X131390000Y-87330000D02*
X131390000Y-87290000D01*
X131390000Y-87290000D02*
X128310000Y-84210000D01*
X128310000Y-84210000D02*
X128310000Y-81750000D01*
X123260000Y-83490000D02*
X118300000Y-83490000D01*
X118300000Y-83490000D02*
X117380000Y-84410000D01*
X117380000Y-86540000D02*
X117410000Y-86570000D01*
X117380000Y-84410000D02*
X117380000Y-86540000D01*
%TO.N,Net-(J9-Pad20)*%
X124390000Y-79670000D02*
X124390000Y-77470000D01*
X124390000Y-77470000D02*
X125320000Y-76540000D01*
X125320000Y-76540000D02*
X127560000Y-76540000D01*
%TO.N,Net-(J9-Pad13)*%
X130890000Y-95100000D02*
X130890000Y-100910000D01*
X130380000Y-101420000D02*
X130380000Y-101480000D01*
X130890000Y-100910000D02*
X130380000Y-101420000D01*
%TO.N,Net-(J9-Pad1)*%
X129080000Y-77030000D02*
X129080000Y-74410000D01*
X128150000Y-77960000D02*
X129080000Y-77030000D01*
X126560000Y-77960000D02*
X128150000Y-77960000D01*
X125550000Y-78970000D02*
X126560000Y-77960000D01*
X125550000Y-100860000D02*
X125550000Y-78970000D01*
X124300000Y-102110000D02*
X125550000Y-100860000D01*
%TO.N,Net-(J10-PadC7)*%
X97550000Y-103260000D02*
X96740000Y-102450000D01*
X93430000Y-102450000D02*
X93420000Y-102440000D01*
X96740000Y-102450000D02*
X93430000Y-102450000D01*
%TO.N,Net-(J10-PadC6)*%
X97830000Y-89800000D02*
X96040000Y-91590000D01*
X96040000Y-91590000D02*
X96040000Y-98300000D01*
X96040000Y-98300000D02*
X94450000Y-99890000D01*
X94450000Y-99890000D02*
X93340000Y-99890000D01*
%TO.N,Net-(J10-PadC2)*%
X94960000Y-94260000D02*
X94960000Y-90060000D01*
X94960000Y-90060000D02*
X95350000Y-89670000D01*
X95350000Y-89670000D02*
X95750000Y-89670000D01*
X98160000Y-101170000D02*
X93380000Y-101170000D01*
X99370000Y-99960000D02*
X98160000Y-101170000D01*
D22*
%TO.N,/BAT_STAT*%
X134250000Y-76050000D02*
X134250000Y-75930000D01*
X134250000Y-75930000D02*
X133830000Y-75510000D01*
X133830000Y-75510000D02*
X133830000Y-69720000D01*
X133830000Y-69720000D02*
X129180000Y-65070000D01*
X129180000Y-65070000D02*
X129180000Y-60090000D01*
X129180000Y-60090000D02*
X127220000Y-58130000D01*
X127220000Y-58130000D02*
X125840000Y-58130000D01*
X125840000Y-58130000D02*
X124360000Y-56650000D01*
X124360000Y-56650000D02*
X124360000Y-50880000D01*
X126537500Y-48702500D02*
X126537500Y-48700000D01*
X124360000Y-50880000D02*
X126537500Y-48702500D01*
%TD*%
D23*
%TO.N,GND*%
X78400934Y-36889615D02*
X78006123Y-36494804D01*
X77984924Y-36468973D01*
X77881838Y-36384372D01*
X77764227Y-36321508D01*
X77636612Y-36282796D01*
X77537149Y-36273000D01*
X77537142Y-36273000D01*
X77503897Y-36269726D01*
X77470652Y-36273000D01*
X74533789Y-36273000D01*
X74508634Y-36225939D01*
X74346555Y-36028445D01*
X74149061Y-35866366D01*
X73923742Y-35745931D01*
X73679256Y-35671767D01*
X73488711Y-35653000D01*
X72911289Y-35653000D01*
X72720744Y-35671767D01*
X72476258Y-35745931D01*
X72250939Y-35866366D01*
X72053445Y-36028445D01*
X71891366Y-36225939D01*
X71770931Y-36451258D01*
X71696767Y-36695744D01*
X71671725Y-36950000D01*
X71696767Y-37204256D01*
X71770931Y-37448742D01*
X71891366Y-37674061D01*
X72053445Y-37871555D01*
X72250939Y-38033634D01*
X72476258Y-38154069D01*
X72597786Y-38190934D01*
X72354999Y-38190934D01*
X72222520Y-38203982D01*
X72095132Y-38242625D01*
X71977731Y-38305377D01*
X71874828Y-38389828D01*
X71790377Y-38492731D01*
X71727625Y-38610132D01*
X71688982Y-38737520D01*
X71675934Y-38869999D01*
X71675934Y-40110001D01*
X71688982Y-40242480D01*
X71727625Y-40369868D01*
X71790377Y-40487269D01*
X71874828Y-40590172D01*
X71977731Y-40674623D01*
X72095132Y-40737375D01*
X72222520Y-40776018D01*
X72354999Y-40789066D01*
X74045001Y-40789066D01*
X74177480Y-40776018D01*
X74304868Y-40737375D01*
X74422269Y-40674623D01*
X74525172Y-40590172D01*
X74609623Y-40487269D01*
X74672375Y-40369868D01*
X74711018Y-40242480D01*
X74724066Y-40110001D01*
X74724066Y-38869999D01*
X74711018Y-38737520D01*
X74672375Y-38610132D01*
X74609623Y-38492731D01*
X74525172Y-38389828D01*
X74422269Y-38305377D01*
X74304868Y-38242625D01*
X74177480Y-38203982D01*
X74045001Y-38190934D01*
X73802214Y-38190934D01*
X73923742Y-38154069D01*
X74149061Y-38033634D01*
X74346555Y-37871555D01*
X74508634Y-37674061D01*
X74533789Y-37627000D01*
X77223476Y-37627000D01*
X79959067Y-40362591D01*
X79929670Y-40371508D01*
X79812059Y-40434372D01*
X79708973Y-40518973D01*
X79687778Y-40544799D01*
X75509578Y-44723000D01*
X74523789Y-44723000D01*
X74498634Y-44675939D01*
X74336555Y-44478445D01*
X74139061Y-44316366D01*
X73913742Y-44195931D01*
X73669256Y-44121767D01*
X73478711Y-44103000D01*
X72901289Y-44103000D01*
X72710744Y-44121767D01*
X72466258Y-44195931D01*
X72240939Y-44316366D01*
X72043445Y-44478445D01*
X71881366Y-44675939D01*
X71760931Y-44901258D01*
X71686767Y-45145744D01*
X71661725Y-45400000D01*
X71686767Y-45654256D01*
X71760931Y-45898742D01*
X71881366Y-46124061D01*
X72043445Y-46321555D01*
X72240939Y-46483634D01*
X72466258Y-46604069D01*
X72587786Y-46640934D01*
X72344999Y-46640934D01*
X72212520Y-46653982D01*
X72085132Y-46692625D01*
X71967731Y-46755377D01*
X71864828Y-46839828D01*
X71780377Y-46942731D01*
X71717625Y-47060132D01*
X71678982Y-47187520D01*
X71665934Y-47319999D01*
X71665934Y-48560001D01*
X71678982Y-48692480D01*
X71717625Y-48819868D01*
X71780377Y-48937269D01*
X71864828Y-49040172D01*
X71967731Y-49124623D01*
X72085132Y-49187375D01*
X72212520Y-49226018D01*
X72344999Y-49239066D01*
X74035001Y-49239066D01*
X74167480Y-49226018D01*
X74294868Y-49187375D01*
X74412269Y-49124623D01*
X74515172Y-49040172D01*
X74599623Y-48937269D01*
X74662375Y-48819868D01*
X74701018Y-48692480D01*
X74714066Y-48560001D01*
X74714066Y-47319999D01*
X74701018Y-47187520D01*
X74662375Y-47060132D01*
X74599623Y-46942731D01*
X74515172Y-46839828D01*
X74412269Y-46755377D01*
X74294868Y-46692625D01*
X74167480Y-46653982D01*
X74035001Y-46640934D01*
X73792214Y-46640934D01*
X73913742Y-46604069D01*
X74139061Y-46483634D01*
X74336555Y-46321555D01*
X74498634Y-46124061D01*
X74523789Y-46077000D01*
X75756755Y-46077000D01*
X75790000Y-46080274D01*
X75823245Y-46077000D01*
X75823252Y-46077000D01*
X75922715Y-46067204D01*
X76050330Y-46028492D01*
X76167941Y-45965628D01*
X76271027Y-45881027D01*
X76292226Y-45855196D01*
X79103950Y-43043472D01*
X83703000Y-43043472D01*
X83703000Y-43196528D01*
X83732859Y-43346643D01*
X83791431Y-43488048D01*
X83876464Y-43615309D01*
X83984691Y-43723536D01*
X84111952Y-43808569D01*
X84253357Y-43867141D01*
X84403472Y-43897000D01*
X84556528Y-43897000D01*
X84706643Y-43867141D01*
X84828915Y-43816494D01*
X84861952Y-43838569D01*
X85003357Y-43897141D01*
X85153472Y-43927000D01*
X85306528Y-43927000D01*
X85456643Y-43897141D01*
X85598048Y-43838569D01*
X85639966Y-43810560D01*
X85651952Y-43818569D01*
X85793357Y-43877141D01*
X85943472Y-43907000D01*
X86096528Y-43907000D01*
X86246643Y-43877141D01*
X86388048Y-43818569D01*
X86515309Y-43733536D01*
X86545000Y-43703845D01*
X86604691Y-43763536D01*
X86731952Y-43848569D01*
X86873357Y-43907141D01*
X87023472Y-43937000D01*
X87176528Y-43937000D01*
X87326643Y-43907141D01*
X87468048Y-43848569D01*
X87595309Y-43763536D01*
X87620000Y-43738845D01*
X87644691Y-43763536D01*
X87771952Y-43848569D01*
X87913357Y-43907141D01*
X88063472Y-43937000D01*
X88216528Y-43937000D01*
X88366643Y-43907141D01*
X88508048Y-43848569D01*
X88598971Y-43787816D01*
X88624691Y-43813536D01*
X88751952Y-43898569D01*
X88893357Y-43957141D01*
X89043472Y-43987000D01*
X89196528Y-43987000D01*
X89346643Y-43957141D01*
X89488048Y-43898569D01*
X89615309Y-43813536D01*
X89723536Y-43705309D01*
X89808569Y-43578048D01*
X89867141Y-43436643D01*
X89897000Y-43286528D01*
X89897000Y-43133472D01*
X89867141Y-42983357D01*
X89808569Y-42841952D01*
X89723536Y-42714691D01*
X89615309Y-42606464D01*
X89488048Y-42521431D01*
X89346643Y-42462859D01*
X89196528Y-42433000D01*
X89043472Y-42433000D01*
X88893357Y-42462859D01*
X88751952Y-42521431D01*
X88661029Y-42582184D01*
X88635309Y-42556464D01*
X88508048Y-42471431D01*
X88366643Y-42412859D01*
X88216528Y-42383000D01*
X88063472Y-42383000D01*
X87913357Y-42412859D01*
X87771952Y-42471431D01*
X87644691Y-42556464D01*
X87620000Y-42581155D01*
X87595309Y-42556464D01*
X87468048Y-42471431D01*
X87326643Y-42412859D01*
X87176528Y-42383000D01*
X87023472Y-42383000D01*
X86873357Y-42412859D01*
X86731952Y-42471431D01*
X86604691Y-42556464D01*
X86575000Y-42586155D01*
X86515309Y-42526464D01*
X86388048Y-42441431D01*
X86246643Y-42382859D01*
X86096528Y-42353000D01*
X85943472Y-42353000D01*
X85793357Y-42382859D01*
X85651952Y-42441431D01*
X85610034Y-42469440D01*
X85598048Y-42461431D01*
X85456643Y-42402859D01*
X85306528Y-42373000D01*
X85153472Y-42373000D01*
X85003357Y-42402859D01*
X84881085Y-42453506D01*
X84848048Y-42431431D01*
X84706643Y-42372859D01*
X84556528Y-42343000D01*
X84403472Y-42343000D01*
X84253357Y-42372859D01*
X84111952Y-42431431D01*
X83984691Y-42516464D01*
X83876464Y-42624691D01*
X83791431Y-42751952D01*
X83732859Y-42893357D01*
X83703000Y-43043472D01*
X79103950Y-43043472D01*
X80470423Y-41677000D01*
X91119578Y-41677000D01*
X101255578Y-51813000D01*
X97185362Y-51813000D01*
X97168048Y-51801431D01*
X97026643Y-51742859D01*
X96876528Y-51713000D01*
X96723472Y-51713000D01*
X96573357Y-51742859D01*
X96431952Y-51801431D01*
X96304691Y-51886464D01*
X96196464Y-51994691D01*
X96111431Y-52121952D01*
X96052859Y-52263357D01*
X96023000Y-52413472D01*
X96023000Y-52566528D01*
X96052859Y-52716643D01*
X96111431Y-52858048D01*
X96196464Y-52985309D01*
X96304691Y-53093536D01*
X96431952Y-53178569D01*
X96573357Y-53237141D01*
X96598928Y-53242227D01*
X96566464Y-53274691D01*
X96481431Y-53401952D01*
X96422859Y-53543357D01*
X96393000Y-53693472D01*
X96393000Y-53846528D01*
X96422859Y-53996643D01*
X96481431Y-54138048D01*
X96566464Y-54265309D01*
X96674691Y-54373536D01*
X96801952Y-54458569D01*
X96943357Y-54517141D01*
X97093472Y-54547000D01*
X97246528Y-54547000D01*
X97396643Y-54517141D01*
X97538048Y-54458569D01*
X97665309Y-54373536D01*
X97773536Y-54265309D01*
X97812497Y-54207000D01*
X100939578Y-54207000D01*
X114387774Y-67655196D01*
X114408973Y-67681027D01*
X114512059Y-67765628D01*
X114629670Y-67828492D01*
X114757285Y-67867204D01*
X114856748Y-67877000D01*
X114856757Y-67877000D01*
X114889999Y-67880274D01*
X114923241Y-67877000D01*
X125679578Y-67877000D01*
X129453001Y-71650424D01*
X129453000Y-72466745D01*
X129453000Y-72863251D01*
X129453001Y-72863261D01*
X129453001Y-73724740D01*
X129448048Y-73721431D01*
X129306643Y-73662859D01*
X129156528Y-73633000D01*
X129003472Y-73633000D01*
X128853357Y-73662859D01*
X128711952Y-73721431D01*
X128584691Y-73806464D01*
X128476464Y-73914691D01*
X128391431Y-74041952D01*
X128332859Y-74183357D01*
X128303000Y-74333472D01*
X128303000Y-74486528D01*
X128332859Y-74636643D01*
X128391431Y-74778048D01*
X128476464Y-74905309D01*
X128528001Y-74956846D01*
X128528000Y-76801354D01*
X127921356Y-77408000D01*
X126587108Y-77408000D01*
X126560000Y-77405330D01*
X126532891Y-77408000D01*
X126451789Y-77415988D01*
X126347737Y-77447552D01*
X126251842Y-77498809D01*
X126167789Y-77567789D01*
X126150508Y-77588846D01*
X125178852Y-78560504D01*
X125157790Y-78577789D01*
X125100875Y-78647141D01*
X125088809Y-78661843D01*
X125037552Y-78757738D01*
X125005989Y-78861790D01*
X124995330Y-78970000D01*
X124998001Y-78997116D01*
X124998001Y-79181373D01*
X124993536Y-79174691D01*
X124942000Y-79123155D01*
X124942000Y-77698644D01*
X125548646Y-77092000D01*
X127013155Y-77092000D01*
X127064691Y-77143536D01*
X127191952Y-77228569D01*
X127333357Y-77287141D01*
X127483472Y-77317000D01*
X127636528Y-77317000D01*
X127786643Y-77287141D01*
X127928048Y-77228569D01*
X128055309Y-77143536D01*
X128163536Y-77035309D01*
X128248569Y-76908048D01*
X128307141Y-76766643D01*
X128337000Y-76616528D01*
X128337000Y-76463472D01*
X128307141Y-76313357D01*
X128248569Y-76171952D01*
X128163536Y-76044691D01*
X128055309Y-75936464D01*
X127928048Y-75851431D01*
X127786643Y-75792859D01*
X127636528Y-75763000D01*
X127483472Y-75763000D01*
X127333357Y-75792859D01*
X127191952Y-75851431D01*
X127064691Y-75936464D01*
X127013155Y-75988000D01*
X125347108Y-75988000D01*
X125320000Y-75985330D01*
X125292891Y-75988000D01*
X125211789Y-75995988D01*
X125107737Y-76027552D01*
X125011842Y-76078809D01*
X124927789Y-76147789D01*
X124910508Y-76168846D01*
X124018852Y-77060504D01*
X123997790Y-77077789D01*
X123960687Y-77123000D01*
X123928809Y-77161843D01*
X123877552Y-77257738D01*
X123868633Y-77287141D01*
X123847749Y-77355989D01*
X123845989Y-77361790D01*
X123835330Y-77470000D01*
X123838001Y-77497116D01*
X123838000Y-79123155D01*
X123786464Y-79174691D01*
X123701431Y-79301952D01*
X123642859Y-79443357D01*
X123613000Y-79593472D01*
X123613000Y-79746528D01*
X123642859Y-79896643D01*
X123701431Y-80038048D01*
X123786464Y-80165309D01*
X123894691Y-80273536D01*
X124021952Y-80358569D01*
X124163357Y-80417141D01*
X124313472Y-80447000D01*
X124466528Y-80447000D01*
X124616643Y-80417141D01*
X124758048Y-80358569D01*
X124885309Y-80273536D01*
X124993536Y-80165309D01*
X124998001Y-80158627D01*
X124998000Y-100631355D01*
X124296356Y-101333000D01*
X124223472Y-101333000D01*
X124073357Y-101362859D01*
X123931952Y-101421431D01*
X123804691Y-101506464D01*
X123696464Y-101614691D01*
X123611431Y-101741952D01*
X123552859Y-101883357D01*
X123523000Y-102033472D01*
X123523000Y-102186528D01*
X123552859Y-102336643D01*
X123611431Y-102478048D01*
X123696464Y-102605309D01*
X123804691Y-102713536D01*
X123931952Y-102798569D01*
X123942649Y-102803000D01*
X120925524Y-102803000D01*
X120879999Y-102798516D01*
X120834474Y-102803000D01*
X120834462Y-102803000D01*
X120698276Y-102816413D01*
X120523536Y-102869420D01*
X120487193Y-102888846D01*
X120362494Y-102955499D01*
X120256711Y-103042313D01*
X120256708Y-103042316D01*
X120221341Y-103071341D01*
X120192316Y-103106708D01*
X118408091Y-104890934D01*
X117430000Y-104890934D01*
X117346293Y-104899178D01*
X117265804Y-104923595D01*
X117191624Y-104963245D01*
X117126605Y-105016605D01*
X117073245Y-105081624D01*
X117033595Y-105155804D01*
X117009178Y-105236293D01*
X117000934Y-105320000D01*
X117000934Y-106893000D01*
X101559066Y-106893000D01*
X101559066Y-105320000D01*
X101550822Y-105236293D01*
X101526405Y-105155804D01*
X101486755Y-105081624D01*
X101433395Y-105016605D01*
X101368376Y-104963245D01*
X101294196Y-104923595D01*
X101213707Y-104899178D01*
X101130000Y-104890934D01*
X98130000Y-104890934D01*
X98046293Y-104899178D01*
X97965804Y-104923595D01*
X97891624Y-104963245D01*
X97826605Y-105016605D01*
X97773245Y-105081624D01*
X97733595Y-105155804D01*
X97709178Y-105236293D01*
X97700934Y-105320000D01*
X97700934Y-106893000D01*
X82259066Y-106893000D01*
X82259066Y-105320000D01*
X82250822Y-105236293D01*
X82226405Y-105155804D01*
X82186755Y-105081624D01*
X82133395Y-105016605D01*
X82068376Y-104963245D01*
X81994196Y-104923595D01*
X81913707Y-104899178D01*
X81830000Y-104890934D01*
X78830000Y-104890934D01*
X78746293Y-104899178D01*
X78665804Y-104923595D01*
X78591624Y-104963245D01*
X78526605Y-105016605D01*
X78473245Y-105081624D01*
X78433595Y-105155804D01*
X78409178Y-105236293D01*
X78400934Y-105320000D01*
X78400934Y-110320000D01*
X78409178Y-110403707D01*
X78430199Y-110473000D01*
X68527000Y-110473000D01*
X68527000Y-99813472D01*
X92563000Y-99813472D01*
X92563000Y-99966528D01*
X92592859Y-100116643D01*
X92651431Y-100258048D01*
X92736464Y-100385309D01*
X92844691Y-100493536D01*
X92919263Y-100543364D01*
X92884691Y-100566464D01*
X92776464Y-100674691D01*
X92691431Y-100801952D01*
X92632859Y-100943357D01*
X92603000Y-101093472D01*
X92603000Y-101246528D01*
X92632859Y-101396643D01*
X92691431Y-101538048D01*
X92776464Y-101665309D01*
X92884691Y-101773536D01*
X92951780Y-101818364D01*
X92924691Y-101836464D01*
X92816464Y-101944691D01*
X92731431Y-102071952D01*
X92672859Y-102213357D01*
X92643000Y-102363472D01*
X92643000Y-102516528D01*
X92672859Y-102666643D01*
X92731431Y-102808048D01*
X92816464Y-102935309D01*
X92924691Y-103043536D01*
X93051952Y-103128569D01*
X93193357Y-103187141D01*
X93343472Y-103217000D01*
X93496528Y-103217000D01*
X93646643Y-103187141D01*
X93788048Y-103128569D01*
X93915309Y-103043536D01*
X93956845Y-103002000D01*
X96511356Y-103002000D01*
X96773000Y-103263645D01*
X96773000Y-103336528D01*
X96802859Y-103486643D01*
X96861431Y-103628048D01*
X96946464Y-103755309D01*
X97054691Y-103863536D01*
X97181952Y-103948569D01*
X97323357Y-104007141D01*
X97473472Y-104037000D01*
X97626528Y-104037000D01*
X97776643Y-104007141D01*
X97918048Y-103948569D01*
X98045309Y-103863536D01*
X98153536Y-103755309D01*
X98238569Y-103628048D01*
X98297141Y-103486643D01*
X98327000Y-103336528D01*
X98327000Y-103183472D01*
X98297141Y-103033357D01*
X98238569Y-102891952D01*
X98153536Y-102764691D01*
X98045309Y-102656464D01*
X97918048Y-102571431D01*
X97776643Y-102512859D01*
X97626528Y-102483000D01*
X97553645Y-102483000D01*
X97149500Y-102078856D01*
X97132211Y-102057789D01*
X97048158Y-101988809D01*
X96952263Y-101937552D01*
X96848211Y-101905988D01*
X96767109Y-101898000D01*
X96767106Y-101898000D01*
X96740000Y-101895330D01*
X96712894Y-101898000D01*
X93976845Y-101898000D01*
X93915309Y-101836464D01*
X93848220Y-101791636D01*
X93875309Y-101773536D01*
X93926845Y-101722000D01*
X98132894Y-101722000D01*
X98160000Y-101724670D01*
X98187106Y-101722000D01*
X98187109Y-101722000D01*
X98268211Y-101714012D01*
X98372263Y-101682448D01*
X98468158Y-101631191D01*
X98552211Y-101562211D01*
X98569500Y-101541144D01*
X99373645Y-100737000D01*
X99446528Y-100737000D01*
X99596643Y-100707141D01*
X99738048Y-100648569D01*
X99865309Y-100563536D01*
X99973536Y-100455309D01*
X100058569Y-100328048D01*
X100117141Y-100186643D01*
X100147000Y-100036528D01*
X100147000Y-99883472D01*
X100117141Y-99733357D01*
X100058569Y-99591952D01*
X99973536Y-99464691D01*
X99865309Y-99356464D01*
X99738048Y-99271431D01*
X99596643Y-99212859D01*
X99446528Y-99183000D01*
X99293472Y-99183000D01*
X99143357Y-99212859D01*
X99001952Y-99271431D01*
X98874691Y-99356464D01*
X98766464Y-99464691D01*
X98681431Y-99591952D01*
X98622859Y-99733357D01*
X98593000Y-99883472D01*
X98593000Y-99956355D01*
X97931356Y-100618000D01*
X93926845Y-100618000D01*
X93875309Y-100566464D01*
X93800737Y-100516636D01*
X93835309Y-100493536D01*
X93886845Y-100442000D01*
X94422894Y-100442000D01*
X94450000Y-100444670D01*
X94477106Y-100442000D01*
X94477109Y-100442000D01*
X94558211Y-100434012D01*
X94662263Y-100402448D01*
X94758158Y-100351191D01*
X94842211Y-100282211D01*
X94859500Y-100261144D01*
X96411154Y-98709492D01*
X96432211Y-98692211D01*
X96501191Y-98608158D01*
X96552448Y-98512263D01*
X96584012Y-98408211D01*
X96592000Y-98327109D01*
X96594670Y-98300000D01*
X96592000Y-98272892D01*
X96592000Y-97403472D01*
X109243000Y-97403472D01*
X109243000Y-97556528D01*
X109272859Y-97706643D01*
X109331431Y-97848048D01*
X109343000Y-97865362D01*
X109343001Y-104146745D01*
X109339726Y-104180000D01*
X109352796Y-104312714D01*
X109391508Y-104440329D01*
X109454372Y-104557940D01*
X109517776Y-104635198D01*
X109517779Y-104635201D01*
X109538974Y-104661027D01*
X109564800Y-104682222D01*
X110047774Y-105165196D01*
X110068973Y-105191027D01*
X110172059Y-105275628D01*
X110289670Y-105338492D01*
X110417285Y-105377204D01*
X110516748Y-105387000D01*
X110516757Y-105387000D01*
X110549999Y-105390274D01*
X110583241Y-105387000D01*
X113769604Y-105387000D01*
X113771952Y-105388569D01*
X113913357Y-105447141D01*
X114063472Y-105477000D01*
X114216528Y-105477000D01*
X114366643Y-105447141D01*
X114508048Y-105388569D01*
X114635309Y-105303536D01*
X114743536Y-105195309D01*
X114828569Y-105068048D01*
X114887141Y-104926643D01*
X114917000Y-104776528D01*
X114917000Y-104623472D01*
X114887141Y-104473357D01*
X114828569Y-104331952D01*
X114743536Y-104204691D01*
X114635309Y-104096464D01*
X114508048Y-104011431D01*
X114366643Y-103952859D01*
X114216528Y-103923000D01*
X114063472Y-103923000D01*
X113913357Y-103952859D01*
X113771952Y-104011431D01*
X113739672Y-104033000D01*
X110830422Y-104033000D01*
X110697000Y-103899578D01*
X110697000Y-97865362D01*
X110708569Y-97848048D01*
X110767141Y-97706643D01*
X110797000Y-97556528D01*
X110797000Y-97403472D01*
X110767141Y-97253357D01*
X110708569Y-97111952D01*
X110623536Y-96984691D01*
X110515309Y-96876464D01*
X110388048Y-96791431D01*
X110246643Y-96732859D01*
X110096528Y-96703000D01*
X109943472Y-96703000D01*
X109793357Y-96732859D01*
X109651952Y-96791431D01*
X109524691Y-96876464D01*
X109416464Y-96984691D01*
X109331431Y-97111952D01*
X109272859Y-97253357D01*
X109243000Y-97403472D01*
X96592000Y-97403472D01*
X96592000Y-91818644D01*
X97833646Y-90577000D01*
X97906528Y-90577000D01*
X98056643Y-90547141D01*
X98198048Y-90488569D01*
X98325309Y-90403536D01*
X98433536Y-90295309D01*
X98518569Y-90168048D01*
X98577141Y-90026643D01*
X98607000Y-89876528D01*
X98607000Y-89723472D01*
X98577141Y-89573357D01*
X98518569Y-89431952D01*
X98433536Y-89304691D01*
X98325309Y-89196464D01*
X98198048Y-89111431D01*
X98056643Y-89052859D01*
X97906528Y-89023000D01*
X97753472Y-89023000D01*
X97603357Y-89052859D01*
X97461952Y-89111431D01*
X97334691Y-89196464D01*
X97226464Y-89304691D01*
X97141431Y-89431952D01*
X97082859Y-89573357D01*
X97053000Y-89723472D01*
X97053000Y-89796354D01*
X95668856Y-91180500D01*
X95647789Y-91197789D01*
X95578809Y-91281842D01*
X95527552Y-91377738D01*
X95512000Y-91429006D01*
X95512000Y-90412437D01*
X95523357Y-90417141D01*
X95673472Y-90447000D01*
X95826528Y-90447000D01*
X95976643Y-90417141D01*
X96118048Y-90358569D01*
X96245309Y-90273536D01*
X96353536Y-90165309D01*
X96438569Y-90038048D01*
X96497141Y-89896643D01*
X96527000Y-89746528D01*
X96527000Y-89593472D01*
X96497141Y-89443357D01*
X96438569Y-89301952D01*
X96353536Y-89174691D01*
X96245309Y-89066464D01*
X96118048Y-88981431D01*
X95976643Y-88922859D01*
X95826528Y-88893000D01*
X95673472Y-88893000D01*
X95523357Y-88922859D01*
X95381952Y-88981431D01*
X95254691Y-89066464D01*
X95174866Y-89146289D01*
X95137737Y-89157552D01*
X95105672Y-89174691D01*
X95041841Y-89208809D01*
X94997339Y-89245331D01*
X94957789Y-89277789D01*
X94940508Y-89298846D01*
X94588851Y-89650505D01*
X94567790Y-89667789D01*
X94509060Y-89739352D01*
X94498809Y-89751843D01*
X94447552Y-89847738D01*
X94415989Y-89951790D01*
X94405330Y-90060000D01*
X94408001Y-90087116D01*
X94408000Y-93713155D01*
X94356464Y-93764691D01*
X94271431Y-93891952D01*
X94212859Y-94033357D01*
X94183000Y-94183472D01*
X94183000Y-94336528D01*
X94212859Y-94486643D01*
X94271431Y-94628048D01*
X94356464Y-94755309D01*
X94464691Y-94863536D01*
X94591952Y-94948569D01*
X94733357Y-95007141D01*
X94883472Y-95037000D01*
X95036528Y-95037000D01*
X95186643Y-95007141D01*
X95328048Y-94948569D01*
X95455309Y-94863536D01*
X95488000Y-94830845D01*
X95488001Y-98071353D01*
X94221356Y-99338000D01*
X93886845Y-99338000D01*
X93835309Y-99286464D01*
X93708048Y-99201431D01*
X93566643Y-99142859D01*
X93416528Y-99113000D01*
X93263472Y-99113000D01*
X93113357Y-99142859D01*
X92971952Y-99201431D01*
X92844691Y-99286464D01*
X92736464Y-99394691D01*
X92651431Y-99521952D01*
X92592859Y-99663357D01*
X92563000Y-99813472D01*
X68527000Y-99813472D01*
X68527000Y-87213472D01*
X83713000Y-87213472D01*
X83713000Y-87366528D01*
X83742859Y-87516643D01*
X83801431Y-87658048D01*
X83834462Y-87707483D01*
X83811431Y-87741952D01*
X83752859Y-87883357D01*
X83723000Y-88033472D01*
X83723000Y-88186528D01*
X83752859Y-88336643D01*
X83811431Y-88478048D01*
X83834462Y-88512517D01*
X83801431Y-88561952D01*
X83742859Y-88703357D01*
X83713000Y-88853472D01*
X83713000Y-89006528D01*
X83742859Y-89156643D01*
X83801431Y-89298048D01*
X83829462Y-89340000D01*
X83801431Y-89381952D01*
X83742859Y-89523357D01*
X83713000Y-89673472D01*
X83713000Y-89826528D01*
X83742859Y-89976643D01*
X83801431Y-90118048D01*
X83829462Y-90160000D01*
X83801431Y-90201952D01*
X83742859Y-90343357D01*
X83713000Y-90493472D01*
X83713000Y-90646528D01*
X83742859Y-90796643D01*
X83801431Y-90938048D01*
X83826122Y-90975000D01*
X83801431Y-91011952D01*
X83742859Y-91153357D01*
X83713000Y-91303472D01*
X83713000Y-91456528D01*
X83742859Y-91606643D01*
X83801431Y-91748048D01*
X83886464Y-91875309D01*
X83994691Y-91983536D01*
X84121952Y-92068569D01*
X84263357Y-92127141D01*
X84413472Y-92157000D01*
X84566528Y-92157000D01*
X84716643Y-92127141D01*
X84858048Y-92068569D01*
X84985309Y-91983536D01*
X85093536Y-91875309D01*
X85178569Y-91748048D01*
X85237141Y-91606643D01*
X85267000Y-91456528D01*
X85267000Y-91303472D01*
X85237141Y-91153357D01*
X85178569Y-91011952D01*
X85153878Y-90975000D01*
X85178569Y-90938048D01*
X85237141Y-90796643D01*
X85267000Y-90646528D01*
X85267000Y-90493472D01*
X85237141Y-90343357D01*
X85178569Y-90201952D01*
X85150538Y-90160000D01*
X85178569Y-90118048D01*
X85237141Y-89976643D01*
X85267000Y-89826528D01*
X85267000Y-89673472D01*
X85237141Y-89523357D01*
X85178569Y-89381952D01*
X85150538Y-89340000D01*
X85178569Y-89298048D01*
X85237141Y-89156643D01*
X85267000Y-89006528D01*
X85267000Y-88853472D01*
X85237141Y-88703357D01*
X85178569Y-88561952D01*
X85155538Y-88527483D01*
X85188569Y-88478048D01*
X85247141Y-88336643D01*
X85277000Y-88186528D01*
X85277000Y-88033472D01*
X85247141Y-87883357D01*
X85188569Y-87741952D01*
X85155538Y-87692517D01*
X85178569Y-87658048D01*
X85237141Y-87516643D01*
X85267000Y-87366528D01*
X85267000Y-87213472D01*
X85237141Y-87063357D01*
X85178569Y-86921952D01*
X85093536Y-86794691D01*
X84985309Y-86686464D01*
X84858048Y-86601431D01*
X84716643Y-86542859D01*
X84566528Y-86513000D01*
X84413472Y-86513000D01*
X84263357Y-86542859D01*
X84121952Y-86601431D01*
X83994691Y-86686464D01*
X83886464Y-86794691D01*
X83801431Y-86921952D01*
X83742859Y-87063357D01*
X83713000Y-87213472D01*
X68527000Y-87213472D01*
X68527000Y-86283472D01*
X103643000Y-86283472D01*
X103643000Y-86436528D01*
X103672859Y-86586643D01*
X103731431Y-86728048D01*
X103816464Y-86855309D01*
X103924691Y-86963536D01*
X104051952Y-87048569D01*
X104193357Y-87107141D01*
X104343472Y-87137000D01*
X104496528Y-87137000D01*
X104646643Y-87107141D01*
X104788048Y-87048569D01*
X104915309Y-86963536D01*
X105023536Y-86855309D01*
X105108569Y-86728048D01*
X105167141Y-86586643D01*
X105185673Y-86493472D01*
X116633000Y-86493472D01*
X116633000Y-86646528D01*
X116662859Y-86796643D01*
X116721431Y-86938048D01*
X116806464Y-87065309D01*
X116914691Y-87173536D01*
X117041952Y-87258569D01*
X117183357Y-87317141D01*
X117333472Y-87347000D01*
X117486528Y-87347000D01*
X117636643Y-87317141D01*
X117778048Y-87258569D01*
X117905309Y-87173536D01*
X118013536Y-87065309D01*
X118098569Y-86938048D01*
X118157141Y-86796643D01*
X118187000Y-86646528D01*
X118187000Y-86493472D01*
X118157141Y-86343357D01*
X118098569Y-86201952D01*
X118013536Y-86074691D01*
X117932000Y-85993155D01*
X117932000Y-84638644D01*
X118528646Y-84042000D01*
X122713155Y-84042000D01*
X122764691Y-84093536D01*
X122891952Y-84178569D01*
X123033357Y-84237141D01*
X123183472Y-84267000D01*
X123336528Y-84267000D01*
X123486643Y-84237141D01*
X123628048Y-84178569D01*
X123755309Y-84093536D01*
X123863536Y-83985309D01*
X123948569Y-83858048D01*
X124007141Y-83716643D01*
X124037000Y-83566528D01*
X124037000Y-83413472D01*
X124007141Y-83263357D01*
X123948569Y-83121952D01*
X123863536Y-82994691D01*
X123755309Y-82886464D01*
X123628048Y-82801431D01*
X123486643Y-82742859D01*
X123336528Y-82713000D01*
X123183472Y-82713000D01*
X123033357Y-82742859D01*
X122891952Y-82801431D01*
X122764691Y-82886464D01*
X122713155Y-82938000D01*
X120420845Y-82938000D01*
X120483536Y-82875309D01*
X120568569Y-82748048D01*
X120627141Y-82606643D01*
X120657000Y-82456528D01*
X120657000Y-82303472D01*
X120627141Y-82153357D01*
X120568569Y-82011952D01*
X120483536Y-81884691D01*
X120375309Y-81776464D01*
X120248048Y-81691431D01*
X120106643Y-81632859D01*
X119956528Y-81603000D01*
X119803472Y-81603000D01*
X119653357Y-81632859D01*
X119511952Y-81691431D01*
X119497392Y-81701159D01*
X119356643Y-81642859D01*
X119206528Y-81613000D01*
X119053472Y-81613000D01*
X118903357Y-81642859D01*
X118761952Y-81701431D01*
X118634691Y-81786464D01*
X118526464Y-81894691D01*
X118441431Y-82021952D01*
X118382859Y-82163357D01*
X118353000Y-82313472D01*
X118353000Y-82466528D01*
X118382859Y-82616643D01*
X118441431Y-82758048D01*
X118526464Y-82885309D01*
X118579155Y-82938000D01*
X118327097Y-82938000D01*
X118299999Y-82935331D01*
X118272901Y-82938000D01*
X118272891Y-82938000D01*
X118191789Y-82945988D01*
X118087737Y-82977552D01*
X117991842Y-83028809D01*
X117907789Y-83097789D01*
X117890508Y-83118846D01*
X117008856Y-84000500D01*
X116987789Y-84017789D01*
X116918809Y-84101842D01*
X116867552Y-84197738D01*
X116835988Y-84301790D01*
X116830288Y-84359664D01*
X116825330Y-84410000D01*
X116828000Y-84437106D01*
X116828001Y-86053154D01*
X116806464Y-86074691D01*
X116721431Y-86201952D01*
X116662859Y-86343357D01*
X116633000Y-86493472D01*
X105185673Y-86493472D01*
X105197000Y-86436528D01*
X105197000Y-86283472D01*
X105167141Y-86133357D01*
X105108569Y-85991952D01*
X105095881Y-85972964D01*
X105103536Y-85965309D01*
X105188569Y-85838048D01*
X105247141Y-85696643D01*
X105277000Y-85546528D01*
X105277000Y-85393472D01*
X105247141Y-85243357D01*
X105188569Y-85101952D01*
X105178465Y-85086830D01*
X105203357Y-85097141D01*
X105353472Y-85127000D01*
X105506528Y-85127000D01*
X105656643Y-85097141D01*
X105798048Y-85038569D01*
X105925309Y-84953536D01*
X106033536Y-84845309D01*
X106118569Y-84718048D01*
X106177141Y-84576643D01*
X106207000Y-84426528D01*
X106207000Y-84273472D01*
X106177141Y-84123357D01*
X106121380Y-83988739D01*
X106148569Y-83948048D01*
X106207141Y-83806643D01*
X106237000Y-83656528D01*
X106237000Y-83503472D01*
X106207141Y-83353357D01*
X106148569Y-83211952D01*
X106063536Y-83084691D01*
X105955309Y-82976464D01*
X105828048Y-82891431D01*
X105686643Y-82832859D01*
X105536528Y-82803000D01*
X105383472Y-82803000D01*
X105233357Y-82832859D01*
X105091952Y-82891431D01*
X104964691Y-82976464D01*
X104856464Y-83084691D01*
X104771431Y-83211952D01*
X104712859Y-83353357D01*
X104683000Y-83503472D01*
X104683000Y-83656528D01*
X104712859Y-83806643D01*
X104768620Y-83941261D01*
X104741431Y-83981952D01*
X104682859Y-84123357D01*
X104653000Y-84273472D01*
X104653000Y-84426528D01*
X104682859Y-84576643D01*
X104741431Y-84718048D01*
X104751535Y-84733170D01*
X104726643Y-84722859D01*
X104576528Y-84693000D01*
X104423472Y-84693000D01*
X104273357Y-84722859D01*
X104131952Y-84781431D01*
X104004691Y-84866464D01*
X103896464Y-84974691D01*
X103811431Y-85101952D01*
X103752859Y-85243357D01*
X103723000Y-85393472D01*
X103723000Y-85546528D01*
X103752859Y-85696643D01*
X103811431Y-85838048D01*
X103824119Y-85857036D01*
X103816464Y-85864691D01*
X103731431Y-85991952D01*
X103672859Y-86133357D01*
X103643000Y-86283472D01*
X68527000Y-86283472D01*
X68527000Y-77823472D01*
X73973000Y-77823472D01*
X73973000Y-77976528D01*
X74002859Y-78126643D01*
X74061431Y-78268048D01*
X74146464Y-78395309D01*
X74254691Y-78503536D01*
X74381952Y-78588569D01*
X74523357Y-78647141D01*
X74673472Y-78677000D01*
X74746355Y-78677000D01*
X74880508Y-78811154D01*
X74897789Y-78832211D01*
X74918845Y-78849491D01*
X74981841Y-78901191D01*
X75022380Y-78922859D01*
X75077737Y-78952448D01*
X75181789Y-78984012D01*
X75262891Y-78992000D01*
X75262901Y-78992000D01*
X75289999Y-78994669D01*
X75317097Y-78992000D01*
X83683127Y-78992000D01*
X83632859Y-79113357D01*
X83603000Y-79263472D01*
X83603000Y-79416528D01*
X83632859Y-79566643D01*
X83691431Y-79708048D01*
X83712781Y-79740000D01*
X83691431Y-79771952D01*
X83632859Y-79913357D01*
X83603000Y-80063472D01*
X83603000Y-80216528D01*
X83632859Y-80366643D01*
X83691431Y-80508048D01*
X83724462Y-80557483D01*
X83701431Y-80591952D01*
X83642859Y-80733357D01*
X83613000Y-80883472D01*
X83613000Y-81036528D01*
X83642859Y-81186643D01*
X83701431Y-81328048D01*
X83719462Y-81355034D01*
X83681431Y-81411952D01*
X83622859Y-81553357D01*
X83593000Y-81703472D01*
X83593000Y-81856528D01*
X83622859Y-82006643D01*
X83681431Y-82148048D01*
X83707803Y-82187517D01*
X83671431Y-82241952D01*
X83612859Y-82383357D01*
X83583000Y-82533472D01*
X83583000Y-82686528D01*
X83612859Y-82836643D01*
X83671431Y-82978048D01*
X83756464Y-83105309D01*
X83769704Y-83118549D01*
X83742859Y-83183357D01*
X83713000Y-83333472D01*
X83713000Y-83486528D01*
X83742859Y-83636643D01*
X83801431Y-83778048D01*
X83824462Y-83812517D01*
X83791431Y-83861952D01*
X83732859Y-84003357D01*
X83703000Y-84153472D01*
X83703000Y-84306528D01*
X83732859Y-84456643D01*
X83791431Y-84598048D01*
X83814440Y-84632483D01*
X83801431Y-84651952D01*
X83742859Y-84793357D01*
X83713000Y-84943472D01*
X83713000Y-85096528D01*
X83742859Y-85246643D01*
X83801431Y-85388048D01*
X83886464Y-85515309D01*
X83994691Y-85623536D01*
X84121952Y-85708569D01*
X84263357Y-85767141D01*
X84413472Y-85797000D01*
X84566528Y-85797000D01*
X84716643Y-85767141D01*
X84858048Y-85708569D01*
X84985309Y-85623536D01*
X85093536Y-85515309D01*
X85178569Y-85388048D01*
X85237141Y-85246643D01*
X85267000Y-85096528D01*
X85267000Y-84943472D01*
X85237141Y-84793357D01*
X85178569Y-84651952D01*
X85155560Y-84617517D01*
X85168569Y-84598048D01*
X85227141Y-84456643D01*
X85257000Y-84306528D01*
X85257000Y-84153472D01*
X85227141Y-84003357D01*
X85168569Y-83861952D01*
X85145538Y-83827483D01*
X85178569Y-83778048D01*
X85237141Y-83636643D01*
X85267000Y-83486528D01*
X85267000Y-83333472D01*
X85237141Y-83183357D01*
X85178569Y-83041952D01*
X85093536Y-82914691D01*
X85080296Y-82901451D01*
X85107141Y-82836643D01*
X85137000Y-82686528D01*
X85137000Y-82533472D01*
X85107141Y-82383357D01*
X85048569Y-82241952D01*
X85022197Y-82202483D01*
X85058569Y-82148048D01*
X85117141Y-82006643D01*
X85147000Y-81856528D01*
X85147000Y-81703472D01*
X85117141Y-81553357D01*
X85058569Y-81411952D01*
X85040538Y-81384966D01*
X85078569Y-81328048D01*
X85137141Y-81186643D01*
X85167000Y-81036528D01*
X85167000Y-80883472D01*
X85137141Y-80733357D01*
X85078569Y-80591952D01*
X85045538Y-80542517D01*
X85068569Y-80508048D01*
X85127141Y-80366643D01*
X85157000Y-80216528D01*
X85157000Y-80193472D01*
X103093000Y-80193472D01*
X103093000Y-80346528D01*
X103122859Y-80496643D01*
X103181431Y-80638048D01*
X103266464Y-80765309D01*
X103374691Y-80873536D01*
X103501952Y-80958569D01*
X103643357Y-81017141D01*
X103793472Y-81047000D01*
X103866355Y-81047000D01*
X104230508Y-81411154D01*
X104247789Y-81432211D01*
X104331842Y-81501191D01*
X104427737Y-81552448D01*
X104531789Y-81584012D01*
X104612891Y-81592000D01*
X104612901Y-81592000D01*
X104639999Y-81594669D01*
X104667097Y-81592000D01*
X108538985Y-81592000D01*
X108492859Y-81703357D01*
X108463000Y-81853472D01*
X108463000Y-82006528D01*
X108492859Y-82156643D01*
X108551431Y-82298048D01*
X108616212Y-82395000D01*
X108551431Y-82491952D01*
X108492859Y-82633357D01*
X108463000Y-82783472D01*
X108463000Y-82936528D01*
X108492859Y-83086643D01*
X108551431Y-83228048D01*
X108609508Y-83314966D01*
X108571431Y-83371952D01*
X108512859Y-83513357D01*
X108483000Y-83663472D01*
X108483000Y-83816528D01*
X108512859Y-83966643D01*
X108568993Y-84102162D01*
X108486464Y-84184691D01*
X108401431Y-84311952D01*
X108342859Y-84453357D01*
X108313000Y-84603472D01*
X108313000Y-84756528D01*
X108342859Y-84906643D01*
X108401431Y-85048048D01*
X108467849Y-85147449D01*
X108431431Y-85201952D01*
X108372859Y-85343357D01*
X108343000Y-85493472D01*
X108343000Y-85646528D01*
X108372859Y-85796643D01*
X108431431Y-85938048D01*
X108516464Y-86065309D01*
X108624691Y-86173536D01*
X108751952Y-86258569D01*
X108893357Y-86317141D01*
X109043472Y-86347000D01*
X109196528Y-86347000D01*
X109346643Y-86317141D01*
X109488048Y-86258569D01*
X109615309Y-86173536D01*
X109723536Y-86065309D01*
X109808569Y-85938048D01*
X109867141Y-85796643D01*
X109897000Y-85646528D01*
X109897000Y-85493472D01*
X109867141Y-85343357D01*
X109808569Y-85201952D01*
X109742151Y-85102551D01*
X109778569Y-85048048D01*
X109837141Y-84906643D01*
X109867000Y-84756528D01*
X109867000Y-84603472D01*
X109837141Y-84453357D01*
X109781007Y-84317838D01*
X109863536Y-84235309D01*
X109948569Y-84108048D01*
X110007141Y-83966643D01*
X110037000Y-83816528D01*
X110037000Y-83663472D01*
X110007141Y-83513357D01*
X109948569Y-83371952D01*
X109890492Y-83285034D01*
X109928569Y-83228048D01*
X109987141Y-83086643D01*
X110017000Y-82936528D01*
X110017000Y-82783472D01*
X109987141Y-82633357D01*
X109928569Y-82491952D01*
X109863788Y-82395000D01*
X109928569Y-82298048D01*
X109987141Y-82156643D01*
X110017000Y-82006528D01*
X110017000Y-81853472D01*
X109987141Y-81703357D01*
X109941015Y-81592000D01*
X117003155Y-81592000D01*
X117054691Y-81643536D01*
X117181952Y-81728569D01*
X117323357Y-81787141D01*
X117473472Y-81817000D01*
X117626528Y-81817000D01*
X117776643Y-81787141D01*
X117918048Y-81728569D01*
X118045309Y-81643536D01*
X118153536Y-81535309D01*
X118238569Y-81408048D01*
X118297141Y-81266643D01*
X118327000Y-81116528D01*
X118327000Y-80963472D01*
X118297141Y-80813357D01*
X118238569Y-80671952D01*
X118153536Y-80544691D01*
X118045309Y-80436464D01*
X117918048Y-80351431D01*
X117776643Y-80292859D01*
X117626528Y-80263000D01*
X117473472Y-80263000D01*
X117323357Y-80292859D01*
X117181952Y-80351431D01*
X117054691Y-80436464D01*
X117003155Y-80488000D01*
X109810845Y-80488000D01*
X109863536Y-80435309D01*
X109948569Y-80308048D01*
X110007141Y-80166643D01*
X110037000Y-80016528D01*
X110037000Y-79863472D01*
X110007141Y-79713357D01*
X109948569Y-79571952D01*
X109895111Y-79491947D01*
X109950369Y-79409248D01*
X110008941Y-79267843D01*
X110035668Y-79133472D01*
X114023000Y-79133472D01*
X114023000Y-79286528D01*
X114052859Y-79436643D01*
X114111431Y-79578048D01*
X114196464Y-79705309D01*
X114304691Y-79813536D01*
X114431952Y-79898569D01*
X114573357Y-79957141D01*
X114723472Y-79987000D01*
X114876528Y-79987000D01*
X115026643Y-79957141D01*
X115168048Y-79898569D01*
X115295309Y-79813536D01*
X115403536Y-79705309D01*
X115488569Y-79578048D01*
X115547141Y-79436643D01*
X115577000Y-79286528D01*
X115577000Y-79133472D01*
X115547141Y-78983357D01*
X115488569Y-78841952D01*
X115403536Y-78714691D01*
X115295309Y-78606464D01*
X115168048Y-78521431D01*
X115026643Y-78462859D01*
X114876528Y-78433000D01*
X114723472Y-78433000D01*
X114573357Y-78462859D01*
X114431952Y-78521431D01*
X114304691Y-78606464D01*
X114196464Y-78714691D01*
X114111431Y-78841952D01*
X114052859Y-78983357D01*
X114023000Y-79133472D01*
X110035668Y-79133472D01*
X110038800Y-79117728D01*
X110038800Y-78964672D01*
X110008941Y-78814557D01*
X109950369Y-78673152D01*
X109865336Y-78545891D01*
X109757109Y-78437664D01*
X109629848Y-78352631D01*
X109488443Y-78294059D01*
X109338328Y-78264200D01*
X109185272Y-78264200D01*
X109035157Y-78294059D01*
X108893752Y-78352631D01*
X108766491Y-78437664D01*
X108658264Y-78545891D01*
X108573231Y-78673152D01*
X108514659Y-78814557D01*
X108484800Y-78964672D01*
X108484800Y-79117728D01*
X108514659Y-79267843D01*
X108573231Y-79409248D01*
X108626689Y-79489253D01*
X108571431Y-79571952D01*
X108512859Y-79713357D01*
X108483000Y-79863472D01*
X108483000Y-80016528D01*
X108512859Y-80166643D01*
X108571431Y-80308048D01*
X108656464Y-80435309D01*
X108709155Y-80488000D01*
X106283798Y-80488000D01*
X106365309Y-80433536D01*
X106473536Y-80325309D01*
X106558569Y-80198048D01*
X106617141Y-80056643D01*
X106647000Y-79906528D01*
X106647000Y-79753472D01*
X106617141Y-79603357D01*
X106558569Y-79461952D01*
X106535061Y-79426770D01*
X106546769Y-79409248D01*
X106605341Y-79267843D01*
X106635200Y-79117728D01*
X106635200Y-78964672D01*
X106605341Y-78814557D01*
X106546769Y-78673152D01*
X106461736Y-78545891D01*
X106353509Y-78437664D01*
X106226248Y-78352631D01*
X106084843Y-78294059D01*
X105934728Y-78264200D01*
X105781672Y-78264200D01*
X105631557Y-78294059D01*
X105490152Y-78352631D01*
X105362891Y-78437664D01*
X105254664Y-78545891D01*
X105169631Y-78673152D01*
X105111059Y-78814557D01*
X105081200Y-78964672D01*
X105081200Y-79117728D01*
X105111059Y-79267843D01*
X105169631Y-79409248D01*
X105193139Y-79444430D01*
X105181431Y-79461952D01*
X105122859Y-79603357D01*
X105093000Y-79753472D01*
X105093000Y-79906528D01*
X105122859Y-80056643D01*
X105181431Y-80198048D01*
X105266464Y-80325309D01*
X105374691Y-80433536D01*
X105456202Y-80488000D01*
X104868646Y-80488000D01*
X104647000Y-80266355D01*
X104647000Y-80193472D01*
X104617141Y-80043357D01*
X104558569Y-79901952D01*
X104473536Y-79774691D01*
X104365309Y-79666464D01*
X104238048Y-79581431D01*
X104096643Y-79522859D01*
X103946528Y-79493000D01*
X103793472Y-79493000D01*
X103643357Y-79522859D01*
X103501952Y-79581431D01*
X103374691Y-79666464D01*
X103266464Y-79774691D01*
X103181431Y-79901952D01*
X103122859Y-80043357D01*
X103093000Y-80193472D01*
X85157000Y-80193472D01*
X85157000Y-80063472D01*
X85127141Y-79913357D01*
X85068569Y-79771952D01*
X85047219Y-79740000D01*
X85068569Y-79708048D01*
X85127141Y-79566643D01*
X85157000Y-79416528D01*
X85157000Y-79263472D01*
X85127141Y-79113357D01*
X85076873Y-78992000D01*
X85728155Y-78992000D01*
X85779691Y-79043536D01*
X85906952Y-79128569D01*
X86048357Y-79187141D01*
X86198472Y-79217000D01*
X86351528Y-79217000D01*
X86501643Y-79187141D01*
X86643048Y-79128569D01*
X86770309Y-79043536D01*
X86878536Y-78935309D01*
X86963569Y-78808048D01*
X87022141Y-78666643D01*
X87052000Y-78516528D01*
X87052000Y-78363472D01*
X87022141Y-78213357D01*
X86963569Y-78071952D01*
X86878536Y-77944691D01*
X86770309Y-77836464D01*
X86643048Y-77751431D01*
X86501643Y-77692859D01*
X86351528Y-77663000D01*
X86198472Y-77663000D01*
X86048357Y-77692859D01*
X85906952Y-77751431D01*
X85779691Y-77836464D01*
X85728155Y-77888000D01*
X75527000Y-77888000D01*
X75527000Y-77823472D01*
X75497141Y-77673357D01*
X75438569Y-77531952D01*
X75353536Y-77404691D01*
X75245309Y-77296464D01*
X75118048Y-77211431D01*
X74976643Y-77152859D01*
X74826528Y-77123000D01*
X74673472Y-77123000D01*
X74523357Y-77152859D01*
X74381952Y-77211431D01*
X74254691Y-77296464D01*
X74146464Y-77404691D01*
X74061431Y-77531952D01*
X74002859Y-77673357D01*
X73973000Y-77823472D01*
X68527000Y-77823472D01*
X68527000Y-74773472D01*
X87973000Y-74773472D01*
X87973000Y-74926528D01*
X88002859Y-75076643D01*
X88061431Y-75218048D01*
X88146464Y-75345309D01*
X88198000Y-75396845D01*
X88198001Y-77692884D01*
X88195330Y-77720000D01*
X88205989Y-77828210D01*
X88237552Y-77932262D01*
X88288809Y-78028157D01*
X88288810Y-78028158D01*
X88357790Y-78112211D01*
X88378852Y-78129496D01*
X89000504Y-78751149D01*
X89017789Y-78772211D01*
X89101842Y-78841191D01*
X89197737Y-78892448D01*
X89301789Y-78924012D01*
X89382891Y-78932000D01*
X89382894Y-78932000D01*
X89410000Y-78934670D01*
X89437106Y-78932000D01*
X89683155Y-78932000D01*
X89734691Y-78983536D01*
X89861952Y-79068569D01*
X90003357Y-79127141D01*
X90153472Y-79157000D01*
X90306528Y-79157000D01*
X90456643Y-79127141D01*
X90598048Y-79068569D01*
X90725309Y-78983536D01*
X90833536Y-78875309D01*
X90918569Y-78748048D01*
X90977141Y-78606643D01*
X91007000Y-78456528D01*
X91007000Y-78303472D01*
X90977141Y-78153357D01*
X90918569Y-78011952D01*
X90833536Y-77884691D01*
X90725309Y-77776464D01*
X90598048Y-77691431D01*
X90456643Y-77632859D01*
X90306528Y-77603000D01*
X90153472Y-77603000D01*
X90003357Y-77632859D01*
X89861952Y-77691431D01*
X89734691Y-77776464D01*
X89683155Y-77828000D01*
X89638645Y-77828000D01*
X89302000Y-77491356D01*
X89302000Y-75396845D01*
X89353536Y-75345309D01*
X89438569Y-75218048D01*
X89497141Y-75076643D01*
X89527000Y-74926528D01*
X89527000Y-74773472D01*
X89497141Y-74623357D01*
X89438569Y-74481952D01*
X89353536Y-74354691D01*
X89245309Y-74246464D01*
X89118048Y-74161431D01*
X88976643Y-74102859D01*
X88826528Y-74073000D01*
X88673472Y-74073000D01*
X88523357Y-74102859D01*
X88381952Y-74161431D01*
X88254691Y-74246464D01*
X88146464Y-74354691D01*
X88061431Y-74481952D01*
X88002859Y-74623357D01*
X87973000Y-74773472D01*
X68527000Y-74773472D01*
X68527000Y-50740000D01*
X74160934Y-50740000D01*
X74160934Y-52440000D01*
X74169178Y-52523707D01*
X74193595Y-52604196D01*
X74233245Y-52678376D01*
X74286605Y-52743395D01*
X74351624Y-52796755D01*
X74425804Y-52836405D01*
X74506293Y-52860822D01*
X74590000Y-52869066D01*
X75233456Y-52869066D01*
X75067513Y-52902074D01*
X74835114Y-52998337D01*
X74625960Y-53138089D01*
X74448089Y-53315960D01*
X74308337Y-53525114D01*
X74212074Y-53757513D01*
X74163000Y-54004226D01*
X74163000Y-54255774D01*
X74212074Y-54502487D01*
X74308337Y-54734886D01*
X74448089Y-54944040D01*
X74625960Y-55121911D01*
X74835114Y-55261663D01*
X75067513Y-55357926D01*
X75279034Y-55400000D01*
X75067513Y-55442074D01*
X74835114Y-55538337D01*
X74625960Y-55678089D01*
X74448089Y-55855960D01*
X74308337Y-56065114D01*
X74212074Y-56297513D01*
X74163000Y-56544226D01*
X74163000Y-56795774D01*
X74212074Y-57042487D01*
X74308337Y-57274886D01*
X74448089Y-57484040D01*
X74625960Y-57661911D01*
X74835114Y-57801663D01*
X75067513Y-57897926D01*
X75314226Y-57947000D01*
X75565774Y-57947000D01*
X75812487Y-57897926D01*
X76044886Y-57801663D01*
X76254040Y-57661911D01*
X76431911Y-57484040D01*
X76571663Y-57274886D01*
X76667926Y-57042487D01*
X76710000Y-56830966D01*
X76752074Y-57042487D01*
X76848337Y-57274886D01*
X76988089Y-57484040D01*
X77165960Y-57661911D01*
X77375114Y-57801663D01*
X77607513Y-57897926D01*
X77854226Y-57947000D01*
X78105774Y-57947000D01*
X78352487Y-57897926D01*
X78584886Y-57801663D01*
X78794040Y-57661911D01*
X78971911Y-57484040D01*
X79111663Y-57274886D01*
X79207926Y-57042487D01*
X79245114Y-56855530D01*
X81970934Y-54129712D01*
X81970934Y-57090000D01*
X81979178Y-57173707D01*
X82003595Y-57254196D01*
X82043245Y-57328376D01*
X82096605Y-57393395D01*
X82161624Y-57446755D01*
X82235804Y-57486405D01*
X82316293Y-57510822D01*
X82400000Y-57519066D01*
X85400000Y-57519066D01*
X85483707Y-57510822D01*
X85564196Y-57486405D01*
X85638376Y-57446755D01*
X85703395Y-57393395D01*
X85756755Y-57328376D01*
X85796405Y-57254196D01*
X85820822Y-57173707D01*
X85829066Y-57090000D01*
X85829066Y-54090000D01*
X85820822Y-54006293D01*
X85807385Y-53962000D01*
X91991356Y-53962000D01*
X96008000Y-57978645D01*
X96008001Y-58773154D01*
X95956464Y-58824691D01*
X95871431Y-58951952D01*
X95812859Y-59093357D01*
X95783000Y-59243472D01*
X95783000Y-59396528D01*
X95812859Y-59546643D01*
X95871431Y-59688048D01*
X95956464Y-59815309D01*
X96064691Y-59923536D01*
X96191952Y-60008569D01*
X96333357Y-60067141D01*
X96483472Y-60097000D01*
X96636528Y-60097000D01*
X96786643Y-60067141D01*
X96928048Y-60008569D01*
X97055309Y-59923536D01*
X97163536Y-59815309D01*
X97248569Y-59688048D01*
X97307141Y-59546643D01*
X97337000Y-59396528D01*
X97337000Y-59243472D01*
X97307141Y-59093357D01*
X97248569Y-58951952D01*
X97163536Y-58824691D01*
X97112000Y-58773155D01*
X97112000Y-58222645D01*
X98638000Y-59748646D01*
X98638001Y-64211353D01*
X98266294Y-64583060D01*
X98303522Y-64460336D01*
X98328178Y-64210000D01*
X98303522Y-63959664D01*
X98230502Y-63718949D01*
X98111924Y-63497104D01*
X97952344Y-63302656D01*
X97757896Y-63143076D01*
X97536051Y-63024498D01*
X97295336Y-62951478D01*
X97107726Y-62933000D01*
X96732274Y-62933000D01*
X96544664Y-62951478D01*
X96303949Y-63024498D01*
X96082104Y-63143076D01*
X95887656Y-63302656D01*
X95728076Y-63497104D01*
X95716907Y-63518000D01*
X91037097Y-63518000D01*
X91009999Y-63515331D01*
X90982901Y-63518000D01*
X90982891Y-63518000D01*
X90901789Y-63525988D01*
X90797737Y-63557552D01*
X90701842Y-63608809D01*
X90617789Y-63677789D01*
X90600508Y-63698846D01*
X90256355Y-64043000D01*
X90183472Y-64043000D01*
X90033357Y-64072859D01*
X89891952Y-64131431D01*
X89842000Y-64164808D01*
X89842000Y-63388644D01*
X91378646Y-61852000D01*
X91773155Y-61852000D01*
X91824691Y-61903536D01*
X91951952Y-61988569D01*
X92093357Y-62047141D01*
X92243472Y-62077000D01*
X92396528Y-62077000D01*
X92546643Y-62047141D01*
X92688048Y-61988569D01*
X92815309Y-61903536D01*
X92923536Y-61795309D01*
X93008569Y-61668048D01*
X93067141Y-61526643D01*
X93097000Y-61376528D01*
X93097000Y-61223472D01*
X93067141Y-61073357D01*
X93008569Y-60931952D01*
X92923536Y-60804691D01*
X92815309Y-60696464D01*
X92688048Y-60611431D01*
X92546643Y-60552859D01*
X92396528Y-60523000D01*
X92243472Y-60523000D01*
X92093357Y-60552859D01*
X91951952Y-60611431D01*
X91824691Y-60696464D01*
X91773155Y-60748000D01*
X91177097Y-60748000D01*
X91149999Y-60745331D01*
X91122901Y-60748000D01*
X91122891Y-60748000D01*
X91041789Y-60755988D01*
X90937737Y-60787552D01*
X90905672Y-60804691D01*
X90841841Y-60838809D01*
X90789570Y-60881707D01*
X90757789Y-60907789D01*
X90740508Y-60928846D01*
X89037000Y-62632356D01*
X89037000Y-61630422D01*
X91576220Y-59091203D01*
X91596643Y-59087141D01*
X91738048Y-59028569D01*
X91865309Y-58943536D01*
X91973536Y-58835309D01*
X92058569Y-58708048D01*
X92117141Y-58566643D01*
X92147000Y-58416528D01*
X92147000Y-58263472D01*
X92117141Y-58113357D01*
X92058569Y-57971952D01*
X91973536Y-57844691D01*
X91865309Y-57736464D01*
X91738048Y-57651431D01*
X91596643Y-57592859D01*
X91446528Y-57563000D01*
X91293472Y-57563000D01*
X91143357Y-57592859D01*
X91001952Y-57651431D01*
X90874691Y-57736464D01*
X90766464Y-57844691D01*
X90681431Y-57971952D01*
X90622859Y-58113357D01*
X90618797Y-58133780D01*
X87904800Y-60847778D01*
X87878973Y-60868974D01*
X87794372Y-60972060D01*
X87731508Y-61089671D01*
X87692796Y-61217286D01*
X87683000Y-61316749D01*
X87683000Y-61316755D01*
X87679726Y-61350000D01*
X87683000Y-61383245D01*
X87683001Y-66072712D01*
X87661952Y-66081431D01*
X87534691Y-66166464D01*
X87426464Y-66274691D01*
X87341431Y-66401952D01*
X87282859Y-66543357D01*
X87253000Y-66693472D01*
X87253000Y-66846528D01*
X87282859Y-66996643D01*
X87341431Y-67138048D01*
X87426464Y-67265309D01*
X87534691Y-67373536D01*
X87661952Y-67458569D01*
X87803357Y-67517141D01*
X87953472Y-67547000D01*
X88106528Y-67547000D01*
X88256643Y-67517141D01*
X88398048Y-67458569D01*
X88525309Y-67373536D01*
X88633536Y-67265309D01*
X88718569Y-67138048D01*
X88732142Y-67105279D01*
X88738000Y-67099421D01*
X88738001Y-71982884D01*
X88735330Y-72010000D01*
X88744413Y-72102211D01*
X88745989Y-72118211D01*
X88753158Y-72141843D01*
X88777552Y-72222262D01*
X88828809Y-72318157D01*
X88828810Y-72318158D01*
X88897790Y-72402211D01*
X88918852Y-72419496D01*
X89320504Y-72821149D01*
X89337789Y-72842211D01*
X89421842Y-72911191D01*
X89517737Y-72962448D01*
X89621789Y-72994012D01*
X89702891Y-73002000D01*
X89702894Y-73002000D01*
X89730000Y-73004670D01*
X89757106Y-73002000D01*
X89790655Y-73002000D01*
X89842191Y-73053536D01*
X89969452Y-73138569D01*
X90110857Y-73197141D01*
X90260972Y-73227000D01*
X90414028Y-73227000D01*
X90564143Y-73197141D01*
X90705548Y-73138569D01*
X90832809Y-73053536D01*
X90884345Y-73002000D01*
X91202894Y-73002000D01*
X91230000Y-73004670D01*
X91257106Y-73002000D01*
X91257109Y-73002000D01*
X91338211Y-72994012D01*
X91442263Y-72962448D01*
X91538158Y-72911191D01*
X91622211Y-72842211D01*
X91639500Y-72821144D01*
X92198646Y-72262000D01*
X95642076Y-72262000D01*
X95728076Y-72422896D01*
X95887656Y-72617344D01*
X96082104Y-72776924D01*
X96303949Y-72895502D01*
X96516571Y-72960000D01*
X96303949Y-73024498D01*
X96082104Y-73143076D01*
X95887656Y-73302656D01*
X95728076Y-73497104D01*
X95609498Y-73718949D01*
X95536478Y-73959664D01*
X95511822Y-74210000D01*
X95536478Y-74460336D01*
X95609498Y-74701051D01*
X95728076Y-74922896D01*
X95887656Y-75117344D01*
X96082104Y-75276924D01*
X96303949Y-75395502D01*
X96544664Y-75468522D01*
X96732274Y-75487000D01*
X97107726Y-75487000D01*
X97295336Y-75468522D01*
X97536051Y-75395502D01*
X97757896Y-75276924D01*
X97952344Y-75117344D01*
X98111924Y-74922896D01*
X98230502Y-74701051D01*
X98303522Y-74460336D01*
X98328178Y-74210000D01*
X98303522Y-73959664D01*
X98230502Y-73718949D01*
X98111924Y-73497104D01*
X97952344Y-73302656D01*
X97757896Y-73143076D01*
X97536051Y-73024498D01*
X97323429Y-72960000D01*
X97536051Y-72895502D01*
X97757896Y-72776924D01*
X97952344Y-72617344D01*
X98111924Y-72422896D01*
X98230502Y-72201051D01*
X98303522Y-71960336D01*
X98328178Y-71710000D01*
X98303522Y-71459664D01*
X98230502Y-71218949D01*
X98111924Y-70997104D01*
X97952344Y-70802656D01*
X97757896Y-70643076D01*
X97536051Y-70524498D01*
X97323429Y-70460000D01*
X97536051Y-70395502D01*
X97757896Y-70276924D01*
X97952344Y-70117344D01*
X98111924Y-69922896D01*
X98230502Y-69701051D01*
X98303522Y-69460336D01*
X98328178Y-69210000D01*
X98303522Y-68959664D01*
X98230502Y-68718949D01*
X98111924Y-68497104D01*
X97952344Y-68302656D01*
X97757896Y-68143076D01*
X97536051Y-68024498D01*
X97323429Y-67960000D01*
X97536051Y-67895502D01*
X97757896Y-67776924D01*
X97952344Y-67617344D01*
X98111924Y-67422896D01*
X98230502Y-67201051D01*
X98303522Y-66960336D01*
X98328178Y-66710000D01*
X98303522Y-66459664D01*
X98230502Y-66218949D01*
X98216985Y-66193660D01*
X99561154Y-64849492D01*
X99582211Y-64832211D01*
X99651191Y-64748158D01*
X99702448Y-64652263D01*
X99734012Y-64548211D01*
X99742000Y-64467109D01*
X99744670Y-64440000D01*
X99742000Y-64412892D01*
X99742000Y-59547108D01*
X99744670Y-59520000D01*
X99734012Y-59411789D01*
X99702448Y-59307737D01*
X99651191Y-59211842D01*
X99599492Y-59148846D01*
X99599491Y-59148845D01*
X99582211Y-59127789D01*
X99561154Y-59110508D01*
X92919501Y-52468857D01*
X92902211Y-52447789D01*
X92818158Y-52378809D01*
X92722263Y-52327552D01*
X92618211Y-52295988D01*
X92537109Y-52288000D01*
X92537106Y-52288000D01*
X92510000Y-52285330D01*
X92482894Y-52288000D01*
X81347106Y-52288000D01*
X81320000Y-52285330D01*
X81292894Y-52288000D01*
X81292891Y-52288000D01*
X81211789Y-52295988D01*
X81107737Y-52327552D01*
X81011842Y-52378809D01*
X80927789Y-52447789D01*
X80910508Y-52468846D01*
X79257000Y-54122355D01*
X79257000Y-54004226D01*
X79207926Y-53757513D01*
X79111663Y-53525114D01*
X78971911Y-53315960D01*
X78794040Y-53138089D01*
X78584886Y-52998337D01*
X78352487Y-52902074D01*
X78140966Y-52860000D01*
X78352487Y-52817926D01*
X78584886Y-52721663D01*
X78794040Y-52581911D01*
X78971911Y-52404040D01*
X79111663Y-52194886D01*
X79207926Y-51962487D01*
X79257000Y-51715774D01*
X79257000Y-51464226D01*
X79207926Y-51217513D01*
X79111663Y-50985114D01*
X78971911Y-50775960D01*
X78794040Y-50598089D01*
X78737267Y-50560155D01*
X79030422Y-50267000D01*
X93219578Y-50267000D01*
X93557778Y-50605201D01*
X93578973Y-50631027D01*
X93604799Y-50652222D01*
X93604801Y-50652224D01*
X93682059Y-50715628D01*
X93799670Y-50778492D01*
X93927285Y-50817204D01*
X94024273Y-50826756D01*
X94041952Y-50838569D01*
X94183357Y-50897141D01*
X94333472Y-50927000D01*
X94486528Y-50927000D01*
X94636643Y-50897141D01*
X94778048Y-50838569D01*
X94905309Y-50753536D01*
X95013536Y-50645309D01*
X95098569Y-50518048D01*
X95157141Y-50376643D01*
X95187000Y-50226528D01*
X95187000Y-50073472D01*
X95157141Y-49923357D01*
X95098569Y-49781952D01*
X95013536Y-49654691D01*
X94905309Y-49546464D01*
X94778048Y-49461431D01*
X94737167Y-49444498D01*
X94848048Y-49398569D01*
X94975309Y-49313536D01*
X95083536Y-49205309D01*
X95168569Y-49078048D01*
X95227141Y-48936643D01*
X95257000Y-48786528D01*
X95257000Y-48633472D01*
X95227141Y-48483357D01*
X95168569Y-48341952D01*
X95083536Y-48214691D01*
X94975309Y-48106464D01*
X94848048Y-48021431D01*
X94706643Y-47962859D01*
X94556528Y-47933000D01*
X94403472Y-47933000D01*
X94253357Y-47962859D01*
X94111952Y-48021431D01*
X94094638Y-48033000D01*
X77353241Y-48033000D01*
X77319999Y-48029726D01*
X77286757Y-48033000D01*
X77286748Y-48033000D01*
X77187285Y-48042796D01*
X77059670Y-48081508D01*
X76942059Y-48144372D01*
X76838973Y-48228973D01*
X76817774Y-48254804D01*
X74984800Y-50087778D01*
X74958973Y-50108974D01*
X74937778Y-50134800D01*
X74937776Y-50134802D01*
X74920685Y-50155628D01*
X74874372Y-50212060D01*
X74821523Y-50310934D01*
X74590000Y-50310934D01*
X74506293Y-50319178D01*
X74425804Y-50343595D01*
X74351624Y-50383245D01*
X74286605Y-50436605D01*
X74233245Y-50501624D01*
X74193595Y-50575804D01*
X74169178Y-50656293D01*
X74160934Y-50740000D01*
X68527000Y-50740000D01*
X68527000Y-32527000D01*
X78400934Y-32527000D01*
X78400934Y-36889615D01*
%TA.AperFunction,Conductor*%
D24*
G36*
X78400934Y-36889615D02*
G01*
X78006123Y-36494804D01*
X77984924Y-36468973D01*
X77881838Y-36384372D01*
X77764227Y-36321508D01*
X77636612Y-36282796D01*
X77537149Y-36273000D01*
X77537142Y-36273000D01*
X77503897Y-36269726D01*
X77470652Y-36273000D01*
X74533789Y-36273000D01*
X74508634Y-36225939D01*
X74346555Y-36028445D01*
X74149061Y-35866366D01*
X73923742Y-35745931D01*
X73679256Y-35671767D01*
X73488711Y-35653000D01*
X72911289Y-35653000D01*
X72720744Y-35671767D01*
X72476258Y-35745931D01*
X72250939Y-35866366D01*
X72053445Y-36028445D01*
X71891366Y-36225939D01*
X71770931Y-36451258D01*
X71696767Y-36695744D01*
X71671725Y-36950000D01*
X71696767Y-37204256D01*
X71770931Y-37448742D01*
X71891366Y-37674061D01*
X72053445Y-37871555D01*
X72250939Y-38033634D01*
X72476258Y-38154069D01*
X72597786Y-38190934D01*
X72354999Y-38190934D01*
X72222520Y-38203982D01*
X72095132Y-38242625D01*
X71977731Y-38305377D01*
X71874828Y-38389828D01*
X71790377Y-38492731D01*
X71727625Y-38610132D01*
X71688982Y-38737520D01*
X71675934Y-38869999D01*
X71675934Y-40110001D01*
X71688982Y-40242480D01*
X71727625Y-40369868D01*
X71790377Y-40487269D01*
X71874828Y-40590172D01*
X71977731Y-40674623D01*
X72095132Y-40737375D01*
X72222520Y-40776018D01*
X72354999Y-40789066D01*
X74045001Y-40789066D01*
X74177480Y-40776018D01*
X74304868Y-40737375D01*
X74422269Y-40674623D01*
X74525172Y-40590172D01*
X74609623Y-40487269D01*
X74672375Y-40369868D01*
X74711018Y-40242480D01*
X74724066Y-40110001D01*
X74724066Y-38869999D01*
X74711018Y-38737520D01*
X74672375Y-38610132D01*
X74609623Y-38492731D01*
X74525172Y-38389828D01*
X74422269Y-38305377D01*
X74304868Y-38242625D01*
X74177480Y-38203982D01*
X74045001Y-38190934D01*
X73802214Y-38190934D01*
X73923742Y-38154069D01*
X74149061Y-38033634D01*
X74346555Y-37871555D01*
X74508634Y-37674061D01*
X74533789Y-37627000D01*
X77223476Y-37627000D01*
X79959067Y-40362591D01*
X79929670Y-40371508D01*
X79812059Y-40434372D01*
X79708973Y-40518973D01*
X79687778Y-40544799D01*
X75509578Y-44723000D01*
X74523789Y-44723000D01*
X74498634Y-44675939D01*
X74336555Y-44478445D01*
X74139061Y-44316366D01*
X73913742Y-44195931D01*
X73669256Y-44121767D01*
X73478711Y-44103000D01*
X72901289Y-44103000D01*
X72710744Y-44121767D01*
X72466258Y-44195931D01*
X72240939Y-44316366D01*
X72043445Y-44478445D01*
X71881366Y-44675939D01*
X71760931Y-44901258D01*
X71686767Y-45145744D01*
X71661725Y-45400000D01*
X71686767Y-45654256D01*
X71760931Y-45898742D01*
X71881366Y-46124061D01*
X72043445Y-46321555D01*
X72240939Y-46483634D01*
X72466258Y-46604069D01*
X72587786Y-46640934D01*
X72344999Y-46640934D01*
X72212520Y-46653982D01*
X72085132Y-46692625D01*
X71967731Y-46755377D01*
X71864828Y-46839828D01*
X71780377Y-46942731D01*
X71717625Y-47060132D01*
X71678982Y-47187520D01*
X71665934Y-47319999D01*
X71665934Y-48560001D01*
X71678982Y-48692480D01*
X71717625Y-48819868D01*
X71780377Y-48937269D01*
X71864828Y-49040172D01*
X71967731Y-49124623D01*
X72085132Y-49187375D01*
X72212520Y-49226018D01*
X72344999Y-49239066D01*
X74035001Y-49239066D01*
X74167480Y-49226018D01*
X74294868Y-49187375D01*
X74412269Y-49124623D01*
X74515172Y-49040172D01*
X74599623Y-48937269D01*
X74662375Y-48819868D01*
X74701018Y-48692480D01*
X74714066Y-48560001D01*
X74714066Y-47319999D01*
X74701018Y-47187520D01*
X74662375Y-47060132D01*
X74599623Y-46942731D01*
X74515172Y-46839828D01*
X74412269Y-46755377D01*
X74294868Y-46692625D01*
X74167480Y-46653982D01*
X74035001Y-46640934D01*
X73792214Y-46640934D01*
X73913742Y-46604069D01*
X74139061Y-46483634D01*
X74336555Y-46321555D01*
X74498634Y-46124061D01*
X74523789Y-46077000D01*
X75756755Y-46077000D01*
X75790000Y-46080274D01*
X75823245Y-46077000D01*
X75823252Y-46077000D01*
X75922715Y-46067204D01*
X76050330Y-46028492D01*
X76167941Y-45965628D01*
X76271027Y-45881027D01*
X76292226Y-45855196D01*
X79103950Y-43043472D01*
X83703000Y-43043472D01*
X83703000Y-43196528D01*
X83732859Y-43346643D01*
X83791431Y-43488048D01*
X83876464Y-43615309D01*
X83984691Y-43723536D01*
X84111952Y-43808569D01*
X84253357Y-43867141D01*
X84403472Y-43897000D01*
X84556528Y-43897000D01*
X84706643Y-43867141D01*
X84828915Y-43816494D01*
X84861952Y-43838569D01*
X85003357Y-43897141D01*
X85153472Y-43927000D01*
X85306528Y-43927000D01*
X85456643Y-43897141D01*
X85598048Y-43838569D01*
X85639966Y-43810560D01*
X85651952Y-43818569D01*
X85793357Y-43877141D01*
X85943472Y-43907000D01*
X86096528Y-43907000D01*
X86246643Y-43877141D01*
X86388048Y-43818569D01*
X86515309Y-43733536D01*
X86545000Y-43703845D01*
X86604691Y-43763536D01*
X86731952Y-43848569D01*
X86873357Y-43907141D01*
X87023472Y-43937000D01*
X87176528Y-43937000D01*
X87326643Y-43907141D01*
X87468048Y-43848569D01*
X87595309Y-43763536D01*
X87620000Y-43738845D01*
X87644691Y-43763536D01*
X87771952Y-43848569D01*
X87913357Y-43907141D01*
X88063472Y-43937000D01*
X88216528Y-43937000D01*
X88366643Y-43907141D01*
X88508048Y-43848569D01*
X88598971Y-43787816D01*
X88624691Y-43813536D01*
X88751952Y-43898569D01*
X88893357Y-43957141D01*
X89043472Y-43987000D01*
X89196528Y-43987000D01*
X89346643Y-43957141D01*
X89488048Y-43898569D01*
X89615309Y-43813536D01*
X89723536Y-43705309D01*
X89808569Y-43578048D01*
X89867141Y-43436643D01*
X89897000Y-43286528D01*
X89897000Y-43133472D01*
X89867141Y-42983357D01*
X89808569Y-42841952D01*
X89723536Y-42714691D01*
X89615309Y-42606464D01*
X89488048Y-42521431D01*
X89346643Y-42462859D01*
X89196528Y-42433000D01*
X89043472Y-42433000D01*
X88893357Y-42462859D01*
X88751952Y-42521431D01*
X88661029Y-42582184D01*
X88635309Y-42556464D01*
X88508048Y-42471431D01*
X88366643Y-42412859D01*
X88216528Y-42383000D01*
X88063472Y-42383000D01*
X87913357Y-42412859D01*
X87771952Y-42471431D01*
X87644691Y-42556464D01*
X87620000Y-42581155D01*
X87595309Y-42556464D01*
X87468048Y-42471431D01*
X87326643Y-42412859D01*
X87176528Y-42383000D01*
X87023472Y-42383000D01*
X86873357Y-42412859D01*
X86731952Y-42471431D01*
X86604691Y-42556464D01*
X86575000Y-42586155D01*
X86515309Y-42526464D01*
X86388048Y-42441431D01*
X86246643Y-42382859D01*
X86096528Y-42353000D01*
X85943472Y-42353000D01*
X85793357Y-42382859D01*
X85651952Y-42441431D01*
X85610034Y-42469440D01*
X85598048Y-42461431D01*
X85456643Y-42402859D01*
X85306528Y-42373000D01*
X85153472Y-42373000D01*
X85003357Y-42402859D01*
X84881085Y-42453506D01*
X84848048Y-42431431D01*
X84706643Y-42372859D01*
X84556528Y-42343000D01*
X84403472Y-42343000D01*
X84253357Y-42372859D01*
X84111952Y-42431431D01*
X83984691Y-42516464D01*
X83876464Y-42624691D01*
X83791431Y-42751952D01*
X83732859Y-42893357D01*
X83703000Y-43043472D01*
X79103950Y-43043472D01*
X80470423Y-41677000D01*
X91119578Y-41677000D01*
X101255578Y-51813000D01*
X97185362Y-51813000D01*
X97168048Y-51801431D01*
X97026643Y-51742859D01*
X96876528Y-51713000D01*
X96723472Y-51713000D01*
X96573357Y-51742859D01*
X96431952Y-51801431D01*
X96304691Y-51886464D01*
X96196464Y-51994691D01*
X96111431Y-52121952D01*
X96052859Y-52263357D01*
X96023000Y-52413472D01*
X96023000Y-52566528D01*
X96052859Y-52716643D01*
X96111431Y-52858048D01*
X96196464Y-52985309D01*
X96304691Y-53093536D01*
X96431952Y-53178569D01*
X96573357Y-53237141D01*
X96598928Y-53242227D01*
X96566464Y-53274691D01*
X96481431Y-53401952D01*
X96422859Y-53543357D01*
X96393000Y-53693472D01*
X96393000Y-53846528D01*
X96422859Y-53996643D01*
X96481431Y-54138048D01*
X96566464Y-54265309D01*
X96674691Y-54373536D01*
X96801952Y-54458569D01*
X96943357Y-54517141D01*
X97093472Y-54547000D01*
X97246528Y-54547000D01*
X97396643Y-54517141D01*
X97538048Y-54458569D01*
X97665309Y-54373536D01*
X97773536Y-54265309D01*
X97812497Y-54207000D01*
X100939578Y-54207000D01*
X114387774Y-67655196D01*
X114408973Y-67681027D01*
X114512059Y-67765628D01*
X114629670Y-67828492D01*
X114757285Y-67867204D01*
X114856748Y-67877000D01*
X114856757Y-67877000D01*
X114889999Y-67880274D01*
X114923241Y-67877000D01*
X125679578Y-67877000D01*
X129453001Y-71650424D01*
X129453000Y-72466745D01*
X129453000Y-72863251D01*
X129453001Y-72863261D01*
X129453001Y-73724740D01*
X129448048Y-73721431D01*
X129306643Y-73662859D01*
X129156528Y-73633000D01*
X129003472Y-73633000D01*
X128853357Y-73662859D01*
X128711952Y-73721431D01*
X128584691Y-73806464D01*
X128476464Y-73914691D01*
X128391431Y-74041952D01*
X128332859Y-74183357D01*
X128303000Y-74333472D01*
X128303000Y-74486528D01*
X128332859Y-74636643D01*
X128391431Y-74778048D01*
X128476464Y-74905309D01*
X128528001Y-74956846D01*
X128528000Y-76801354D01*
X127921356Y-77408000D01*
X126587108Y-77408000D01*
X126560000Y-77405330D01*
X126532891Y-77408000D01*
X126451789Y-77415988D01*
X126347737Y-77447552D01*
X126251842Y-77498809D01*
X126167789Y-77567789D01*
X126150508Y-77588846D01*
X125178852Y-78560504D01*
X125157790Y-78577789D01*
X125100875Y-78647141D01*
X125088809Y-78661843D01*
X125037552Y-78757738D01*
X125005989Y-78861790D01*
X124995330Y-78970000D01*
X124998001Y-78997116D01*
X124998001Y-79181373D01*
X124993536Y-79174691D01*
X124942000Y-79123155D01*
X124942000Y-77698644D01*
X125548646Y-77092000D01*
X127013155Y-77092000D01*
X127064691Y-77143536D01*
X127191952Y-77228569D01*
X127333357Y-77287141D01*
X127483472Y-77317000D01*
X127636528Y-77317000D01*
X127786643Y-77287141D01*
X127928048Y-77228569D01*
X128055309Y-77143536D01*
X128163536Y-77035309D01*
X128248569Y-76908048D01*
X128307141Y-76766643D01*
X128337000Y-76616528D01*
X128337000Y-76463472D01*
X128307141Y-76313357D01*
X128248569Y-76171952D01*
X128163536Y-76044691D01*
X128055309Y-75936464D01*
X127928048Y-75851431D01*
X127786643Y-75792859D01*
X127636528Y-75763000D01*
X127483472Y-75763000D01*
X127333357Y-75792859D01*
X127191952Y-75851431D01*
X127064691Y-75936464D01*
X127013155Y-75988000D01*
X125347108Y-75988000D01*
X125320000Y-75985330D01*
X125292891Y-75988000D01*
X125211789Y-75995988D01*
X125107737Y-76027552D01*
X125011842Y-76078809D01*
X124927789Y-76147789D01*
X124910508Y-76168846D01*
X124018852Y-77060504D01*
X123997790Y-77077789D01*
X123960687Y-77123000D01*
X123928809Y-77161843D01*
X123877552Y-77257738D01*
X123868633Y-77287141D01*
X123847749Y-77355989D01*
X123845989Y-77361790D01*
X123835330Y-77470000D01*
X123838001Y-77497116D01*
X123838000Y-79123155D01*
X123786464Y-79174691D01*
X123701431Y-79301952D01*
X123642859Y-79443357D01*
X123613000Y-79593472D01*
X123613000Y-79746528D01*
X123642859Y-79896643D01*
X123701431Y-80038048D01*
X123786464Y-80165309D01*
X123894691Y-80273536D01*
X124021952Y-80358569D01*
X124163357Y-80417141D01*
X124313472Y-80447000D01*
X124466528Y-80447000D01*
X124616643Y-80417141D01*
X124758048Y-80358569D01*
X124885309Y-80273536D01*
X124993536Y-80165309D01*
X124998001Y-80158627D01*
X124998000Y-100631355D01*
X124296356Y-101333000D01*
X124223472Y-101333000D01*
X124073357Y-101362859D01*
X123931952Y-101421431D01*
X123804691Y-101506464D01*
X123696464Y-101614691D01*
X123611431Y-101741952D01*
X123552859Y-101883357D01*
X123523000Y-102033472D01*
X123523000Y-102186528D01*
X123552859Y-102336643D01*
X123611431Y-102478048D01*
X123696464Y-102605309D01*
X123804691Y-102713536D01*
X123931952Y-102798569D01*
X123942649Y-102803000D01*
X120925524Y-102803000D01*
X120879999Y-102798516D01*
X120834474Y-102803000D01*
X120834462Y-102803000D01*
X120698276Y-102816413D01*
X120523536Y-102869420D01*
X120487193Y-102888846D01*
X120362494Y-102955499D01*
X120256711Y-103042313D01*
X120256708Y-103042316D01*
X120221341Y-103071341D01*
X120192316Y-103106708D01*
X118408091Y-104890934D01*
X117430000Y-104890934D01*
X117346293Y-104899178D01*
X117265804Y-104923595D01*
X117191624Y-104963245D01*
X117126605Y-105016605D01*
X117073245Y-105081624D01*
X117033595Y-105155804D01*
X117009178Y-105236293D01*
X117000934Y-105320000D01*
X117000934Y-106893000D01*
X101559066Y-106893000D01*
X101559066Y-105320000D01*
X101550822Y-105236293D01*
X101526405Y-105155804D01*
X101486755Y-105081624D01*
X101433395Y-105016605D01*
X101368376Y-104963245D01*
X101294196Y-104923595D01*
X101213707Y-104899178D01*
X101130000Y-104890934D01*
X98130000Y-104890934D01*
X98046293Y-104899178D01*
X97965804Y-104923595D01*
X97891624Y-104963245D01*
X97826605Y-105016605D01*
X97773245Y-105081624D01*
X97733595Y-105155804D01*
X97709178Y-105236293D01*
X97700934Y-105320000D01*
X97700934Y-106893000D01*
X82259066Y-106893000D01*
X82259066Y-105320000D01*
X82250822Y-105236293D01*
X82226405Y-105155804D01*
X82186755Y-105081624D01*
X82133395Y-105016605D01*
X82068376Y-104963245D01*
X81994196Y-104923595D01*
X81913707Y-104899178D01*
X81830000Y-104890934D01*
X78830000Y-104890934D01*
X78746293Y-104899178D01*
X78665804Y-104923595D01*
X78591624Y-104963245D01*
X78526605Y-105016605D01*
X78473245Y-105081624D01*
X78433595Y-105155804D01*
X78409178Y-105236293D01*
X78400934Y-105320000D01*
X78400934Y-110320000D01*
X78409178Y-110403707D01*
X78430199Y-110473000D01*
X68527000Y-110473000D01*
X68527000Y-99813472D01*
X92563000Y-99813472D01*
X92563000Y-99966528D01*
X92592859Y-100116643D01*
X92651431Y-100258048D01*
X92736464Y-100385309D01*
X92844691Y-100493536D01*
X92919263Y-100543364D01*
X92884691Y-100566464D01*
X92776464Y-100674691D01*
X92691431Y-100801952D01*
X92632859Y-100943357D01*
X92603000Y-101093472D01*
X92603000Y-101246528D01*
X92632859Y-101396643D01*
X92691431Y-101538048D01*
X92776464Y-101665309D01*
X92884691Y-101773536D01*
X92951780Y-101818364D01*
X92924691Y-101836464D01*
X92816464Y-101944691D01*
X92731431Y-102071952D01*
X92672859Y-102213357D01*
X92643000Y-102363472D01*
X92643000Y-102516528D01*
X92672859Y-102666643D01*
X92731431Y-102808048D01*
X92816464Y-102935309D01*
X92924691Y-103043536D01*
X93051952Y-103128569D01*
X93193357Y-103187141D01*
X93343472Y-103217000D01*
X93496528Y-103217000D01*
X93646643Y-103187141D01*
X93788048Y-103128569D01*
X93915309Y-103043536D01*
X93956845Y-103002000D01*
X96511356Y-103002000D01*
X96773000Y-103263645D01*
X96773000Y-103336528D01*
X96802859Y-103486643D01*
X96861431Y-103628048D01*
X96946464Y-103755309D01*
X97054691Y-103863536D01*
X97181952Y-103948569D01*
X97323357Y-104007141D01*
X97473472Y-104037000D01*
X97626528Y-104037000D01*
X97776643Y-104007141D01*
X97918048Y-103948569D01*
X98045309Y-103863536D01*
X98153536Y-103755309D01*
X98238569Y-103628048D01*
X98297141Y-103486643D01*
X98327000Y-103336528D01*
X98327000Y-103183472D01*
X98297141Y-103033357D01*
X98238569Y-102891952D01*
X98153536Y-102764691D01*
X98045309Y-102656464D01*
X97918048Y-102571431D01*
X97776643Y-102512859D01*
X97626528Y-102483000D01*
X97553645Y-102483000D01*
X97149500Y-102078856D01*
X97132211Y-102057789D01*
X97048158Y-101988809D01*
X96952263Y-101937552D01*
X96848211Y-101905988D01*
X96767109Y-101898000D01*
X96767106Y-101898000D01*
X96740000Y-101895330D01*
X96712894Y-101898000D01*
X93976845Y-101898000D01*
X93915309Y-101836464D01*
X93848220Y-101791636D01*
X93875309Y-101773536D01*
X93926845Y-101722000D01*
X98132894Y-101722000D01*
X98160000Y-101724670D01*
X98187106Y-101722000D01*
X98187109Y-101722000D01*
X98268211Y-101714012D01*
X98372263Y-101682448D01*
X98468158Y-101631191D01*
X98552211Y-101562211D01*
X98569500Y-101541144D01*
X99373645Y-100737000D01*
X99446528Y-100737000D01*
X99596643Y-100707141D01*
X99738048Y-100648569D01*
X99865309Y-100563536D01*
X99973536Y-100455309D01*
X100058569Y-100328048D01*
X100117141Y-100186643D01*
X100147000Y-100036528D01*
X100147000Y-99883472D01*
X100117141Y-99733357D01*
X100058569Y-99591952D01*
X99973536Y-99464691D01*
X99865309Y-99356464D01*
X99738048Y-99271431D01*
X99596643Y-99212859D01*
X99446528Y-99183000D01*
X99293472Y-99183000D01*
X99143357Y-99212859D01*
X99001952Y-99271431D01*
X98874691Y-99356464D01*
X98766464Y-99464691D01*
X98681431Y-99591952D01*
X98622859Y-99733357D01*
X98593000Y-99883472D01*
X98593000Y-99956355D01*
X97931356Y-100618000D01*
X93926845Y-100618000D01*
X93875309Y-100566464D01*
X93800737Y-100516636D01*
X93835309Y-100493536D01*
X93886845Y-100442000D01*
X94422894Y-100442000D01*
X94450000Y-100444670D01*
X94477106Y-100442000D01*
X94477109Y-100442000D01*
X94558211Y-100434012D01*
X94662263Y-100402448D01*
X94758158Y-100351191D01*
X94842211Y-100282211D01*
X94859500Y-100261144D01*
X96411154Y-98709492D01*
X96432211Y-98692211D01*
X96501191Y-98608158D01*
X96552448Y-98512263D01*
X96584012Y-98408211D01*
X96592000Y-98327109D01*
X96594670Y-98300000D01*
X96592000Y-98272892D01*
X96592000Y-97403472D01*
X109243000Y-97403472D01*
X109243000Y-97556528D01*
X109272859Y-97706643D01*
X109331431Y-97848048D01*
X109343000Y-97865362D01*
X109343001Y-104146745D01*
X109339726Y-104180000D01*
X109352796Y-104312714D01*
X109391508Y-104440329D01*
X109454372Y-104557940D01*
X109517776Y-104635198D01*
X109517779Y-104635201D01*
X109538974Y-104661027D01*
X109564800Y-104682222D01*
X110047774Y-105165196D01*
X110068973Y-105191027D01*
X110172059Y-105275628D01*
X110289670Y-105338492D01*
X110417285Y-105377204D01*
X110516748Y-105387000D01*
X110516757Y-105387000D01*
X110549999Y-105390274D01*
X110583241Y-105387000D01*
X113769604Y-105387000D01*
X113771952Y-105388569D01*
X113913357Y-105447141D01*
X114063472Y-105477000D01*
X114216528Y-105477000D01*
X114366643Y-105447141D01*
X114508048Y-105388569D01*
X114635309Y-105303536D01*
X114743536Y-105195309D01*
X114828569Y-105068048D01*
X114887141Y-104926643D01*
X114917000Y-104776528D01*
X114917000Y-104623472D01*
X114887141Y-104473357D01*
X114828569Y-104331952D01*
X114743536Y-104204691D01*
X114635309Y-104096464D01*
X114508048Y-104011431D01*
X114366643Y-103952859D01*
X114216528Y-103923000D01*
X114063472Y-103923000D01*
X113913357Y-103952859D01*
X113771952Y-104011431D01*
X113739672Y-104033000D01*
X110830422Y-104033000D01*
X110697000Y-103899578D01*
X110697000Y-97865362D01*
X110708569Y-97848048D01*
X110767141Y-97706643D01*
X110797000Y-97556528D01*
X110797000Y-97403472D01*
X110767141Y-97253357D01*
X110708569Y-97111952D01*
X110623536Y-96984691D01*
X110515309Y-96876464D01*
X110388048Y-96791431D01*
X110246643Y-96732859D01*
X110096528Y-96703000D01*
X109943472Y-96703000D01*
X109793357Y-96732859D01*
X109651952Y-96791431D01*
X109524691Y-96876464D01*
X109416464Y-96984691D01*
X109331431Y-97111952D01*
X109272859Y-97253357D01*
X109243000Y-97403472D01*
X96592000Y-97403472D01*
X96592000Y-91818644D01*
X97833646Y-90577000D01*
X97906528Y-90577000D01*
X98056643Y-90547141D01*
X98198048Y-90488569D01*
X98325309Y-90403536D01*
X98433536Y-90295309D01*
X98518569Y-90168048D01*
X98577141Y-90026643D01*
X98607000Y-89876528D01*
X98607000Y-89723472D01*
X98577141Y-89573357D01*
X98518569Y-89431952D01*
X98433536Y-89304691D01*
X98325309Y-89196464D01*
X98198048Y-89111431D01*
X98056643Y-89052859D01*
X97906528Y-89023000D01*
X97753472Y-89023000D01*
X97603357Y-89052859D01*
X97461952Y-89111431D01*
X97334691Y-89196464D01*
X97226464Y-89304691D01*
X97141431Y-89431952D01*
X97082859Y-89573357D01*
X97053000Y-89723472D01*
X97053000Y-89796354D01*
X95668856Y-91180500D01*
X95647789Y-91197789D01*
X95578809Y-91281842D01*
X95527552Y-91377738D01*
X95512000Y-91429006D01*
X95512000Y-90412437D01*
X95523357Y-90417141D01*
X95673472Y-90447000D01*
X95826528Y-90447000D01*
X95976643Y-90417141D01*
X96118048Y-90358569D01*
X96245309Y-90273536D01*
X96353536Y-90165309D01*
X96438569Y-90038048D01*
X96497141Y-89896643D01*
X96527000Y-89746528D01*
X96527000Y-89593472D01*
X96497141Y-89443357D01*
X96438569Y-89301952D01*
X96353536Y-89174691D01*
X96245309Y-89066464D01*
X96118048Y-88981431D01*
X95976643Y-88922859D01*
X95826528Y-88893000D01*
X95673472Y-88893000D01*
X95523357Y-88922859D01*
X95381952Y-88981431D01*
X95254691Y-89066464D01*
X95174866Y-89146289D01*
X95137737Y-89157552D01*
X95105672Y-89174691D01*
X95041841Y-89208809D01*
X94997339Y-89245331D01*
X94957789Y-89277789D01*
X94940508Y-89298846D01*
X94588851Y-89650505D01*
X94567790Y-89667789D01*
X94509060Y-89739352D01*
X94498809Y-89751843D01*
X94447552Y-89847738D01*
X94415989Y-89951790D01*
X94405330Y-90060000D01*
X94408001Y-90087116D01*
X94408000Y-93713155D01*
X94356464Y-93764691D01*
X94271431Y-93891952D01*
X94212859Y-94033357D01*
X94183000Y-94183472D01*
X94183000Y-94336528D01*
X94212859Y-94486643D01*
X94271431Y-94628048D01*
X94356464Y-94755309D01*
X94464691Y-94863536D01*
X94591952Y-94948569D01*
X94733357Y-95007141D01*
X94883472Y-95037000D01*
X95036528Y-95037000D01*
X95186643Y-95007141D01*
X95328048Y-94948569D01*
X95455309Y-94863536D01*
X95488000Y-94830845D01*
X95488001Y-98071353D01*
X94221356Y-99338000D01*
X93886845Y-99338000D01*
X93835309Y-99286464D01*
X93708048Y-99201431D01*
X93566643Y-99142859D01*
X93416528Y-99113000D01*
X93263472Y-99113000D01*
X93113357Y-99142859D01*
X92971952Y-99201431D01*
X92844691Y-99286464D01*
X92736464Y-99394691D01*
X92651431Y-99521952D01*
X92592859Y-99663357D01*
X92563000Y-99813472D01*
X68527000Y-99813472D01*
X68527000Y-87213472D01*
X83713000Y-87213472D01*
X83713000Y-87366528D01*
X83742859Y-87516643D01*
X83801431Y-87658048D01*
X83834462Y-87707483D01*
X83811431Y-87741952D01*
X83752859Y-87883357D01*
X83723000Y-88033472D01*
X83723000Y-88186528D01*
X83752859Y-88336643D01*
X83811431Y-88478048D01*
X83834462Y-88512517D01*
X83801431Y-88561952D01*
X83742859Y-88703357D01*
X83713000Y-88853472D01*
X83713000Y-89006528D01*
X83742859Y-89156643D01*
X83801431Y-89298048D01*
X83829462Y-89340000D01*
X83801431Y-89381952D01*
X83742859Y-89523357D01*
X83713000Y-89673472D01*
X83713000Y-89826528D01*
X83742859Y-89976643D01*
X83801431Y-90118048D01*
X83829462Y-90160000D01*
X83801431Y-90201952D01*
X83742859Y-90343357D01*
X83713000Y-90493472D01*
X83713000Y-90646528D01*
X83742859Y-90796643D01*
X83801431Y-90938048D01*
X83826122Y-90975000D01*
X83801431Y-91011952D01*
X83742859Y-91153357D01*
X83713000Y-91303472D01*
X83713000Y-91456528D01*
X83742859Y-91606643D01*
X83801431Y-91748048D01*
X83886464Y-91875309D01*
X83994691Y-91983536D01*
X84121952Y-92068569D01*
X84263357Y-92127141D01*
X84413472Y-92157000D01*
X84566528Y-92157000D01*
X84716643Y-92127141D01*
X84858048Y-92068569D01*
X84985309Y-91983536D01*
X85093536Y-91875309D01*
X85178569Y-91748048D01*
X85237141Y-91606643D01*
X85267000Y-91456528D01*
X85267000Y-91303472D01*
X85237141Y-91153357D01*
X85178569Y-91011952D01*
X85153878Y-90975000D01*
X85178569Y-90938048D01*
X85237141Y-90796643D01*
X85267000Y-90646528D01*
X85267000Y-90493472D01*
X85237141Y-90343357D01*
X85178569Y-90201952D01*
X85150538Y-90160000D01*
X85178569Y-90118048D01*
X85237141Y-89976643D01*
X85267000Y-89826528D01*
X85267000Y-89673472D01*
X85237141Y-89523357D01*
X85178569Y-89381952D01*
X85150538Y-89340000D01*
X85178569Y-89298048D01*
X85237141Y-89156643D01*
X85267000Y-89006528D01*
X85267000Y-88853472D01*
X85237141Y-88703357D01*
X85178569Y-88561952D01*
X85155538Y-88527483D01*
X85188569Y-88478048D01*
X85247141Y-88336643D01*
X85277000Y-88186528D01*
X85277000Y-88033472D01*
X85247141Y-87883357D01*
X85188569Y-87741952D01*
X85155538Y-87692517D01*
X85178569Y-87658048D01*
X85237141Y-87516643D01*
X85267000Y-87366528D01*
X85267000Y-87213472D01*
X85237141Y-87063357D01*
X85178569Y-86921952D01*
X85093536Y-86794691D01*
X84985309Y-86686464D01*
X84858048Y-86601431D01*
X84716643Y-86542859D01*
X84566528Y-86513000D01*
X84413472Y-86513000D01*
X84263357Y-86542859D01*
X84121952Y-86601431D01*
X83994691Y-86686464D01*
X83886464Y-86794691D01*
X83801431Y-86921952D01*
X83742859Y-87063357D01*
X83713000Y-87213472D01*
X68527000Y-87213472D01*
X68527000Y-86283472D01*
X103643000Y-86283472D01*
X103643000Y-86436528D01*
X103672859Y-86586643D01*
X103731431Y-86728048D01*
X103816464Y-86855309D01*
X103924691Y-86963536D01*
X104051952Y-87048569D01*
X104193357Y-87107141D01*
X104343472Y-87137000D01*
X104496528Y-87137000D01*
X104646643Y-87107141D01*
X104788048Y-87048569D01*
X104915309Y-86963536D01*
X105023536Y-86855309D01*
X105108569Y-86728048D01*
X105167141Y-86586643D01*
X105185673Y-86493472D01*
X116633000Y-86493472D01*
X116633000Y-86646528D01*
X116662859Y-86796643D01*
X116721431Y-86938048D01*
X116806464Y-87065309D01*
X116914691Y-87173536D01*
X117041952Y-87258569D01*
X117183357Y-87317141D01*
X117333472Y-87347000D01*
X117486528Y-87347000D01*
X117636643Y-87317141D01*
X117778048Y-87258569D01*
X117905309Y-87173536D01*
X118013536Y-87065309D01*
X118098569Y-86938048D01*
X118157141Y-86796643D01*
X118187000Y-86646528D01*
X118187000Y-86493472D01*
X118157141Y-86343357D01*
X118098569Y-86201952D01*
X118013536Y-86074691D01*
X117932000Y-85993155D01*
X117932000Y-84638644D01*
X118528646Y-84042000D01*
X122713155Y-84042000D01*
X122764691Y-84093536D01*
X122891952Y-84178569D01*
X123033357Y-84237141D01*
X123183472Y-84267000D01*
X123336528Y-84267000D01*
X123486643Y-84237141D01*
X123628048Y-84178569D01*
X123755309Y-84093536D01*
X123863536Y-83985309D01*
X123948569Y-83858048D01*
X124007141Y-83716643D01*
X124037000Y-83566528D01*
X124037000Y-83413472D01*
X124007141Y-83263357D01*
X123948569Y-83121952D01*
X123863536Y-82994691D01*
X123755309Y-82886464D01*
X123628048Y-82801431D01*
X123486643Y-82742859D01*
X123336528Y-82713000D01*
X123183472Y-82713000D01*
X123033357Y-82742859D01*
X122891952Y-82801431D01*
X122764691Y-82886464D01*
X122713155Y-82938000D01*
X120420845Y-82938000D01*
X120483536Y-82875309D01*
X120568569Y-82748048D01*
X120627141Y-82606643D01*
X120657000Y-82456528D01*
X120657000Y-82303472D01*
X120627141Y-82153357D01*
X120568569Y-82011952D01*
X120483536Y-81884691D01*
X120375309Y-81776464D01*
X120248048Y-81691431D01*
X120106643Y-81632859D01*
X119956528Y-81603000D01*
X119803472Y-81603000D01*
X119653357Y-81632859D01*
X119511952Y-81691431D01*
X119497392Y-81701159D01*
X119356643Y-81642859D01*
X119206528Y-81613000D01*
X119053472Y-81613000D01*
X118903357Y-81642859D01*
X118761952Y-81701431D01*
X118634691Y-81786464D01*
X118526464Y-81894691D01*
X118441431Y-82021952D01*
X118382859Y-82163357D01*
X118353000Y-82313472D01*
X118353000Y-82466528D01*
X118382859Y-82616643D01*
X118441431Y-82758048D01*
X118526464Y-82885309D01*
X118579155Y-82938000D01*
X118327097Y-82938000D01*
X118299999Y-82935331D01*
X118272901Y-82938000D01*
X118272891Y-82938000D01*
X118191789Y-82945988D01*
X118087737Y-82977552D01*
X117991842Y-83028809D01*
X117907789Y-83097789D01*
X117890508Y-83118846D01*
X117008856Y-84000500D01*
X116987789Y-84017789D01*
X116918809Y-84101842D01*
X116867552Y-84197738D01*
X116835988Y-84301790D01*
X116830288Y-84359664D01*
X116825330Y-84410000D01*
X116828000Y-84437106D01*
X116828001Y-86053154D01*
X116806464Y-86074691D01*
X116721431Y-86201952D01*
X116662859Y-86343357D01*
X116633000Y-86493472D01*
X105185673Y-86493472D01*
X105197000Y-86436528D01*
X105197000Y-86283472D01*
X105167141Y-86133357D01*
X105108569Y-85991952D01*
X105095881Y-85972964D01*
X105103536Y-85965309D01*
X105188569Y-85838048D01*
X105247141Y-85696643D01*
X105277000Y-85546528D01*
X105277000Y-85393472D01*
X105247141Y-85243357D01*
X105188569Y-85101952D01*
X105178465Y-85086830D01*
X105203357Y-85097141D01*
X105353472Y-85127000D01*
X105506528Y-85127000D01*
X105656643Y-85097141D01*
X105798048Y-85038569D01*
X105925309Y-84953536D01*
X106033536Y-84845309D01*
X106118569Y-84718048D01*
X106177141Y-84576643D01*
X106207000Y-84426528D01*
X106207000Y-84273472D01*
X106177141Y-84123357D01*
X106121380Y-83988739D01*
X106148569Y-83948048D01*
X106207141Y-83806643D01*
X106237000Y-83656528D01*
X106237000Y-83503472D01*
X106207141Y-83353357D01*
X106148569Y-83211952D01*
X106063536Y-83084691D01*
X105955309Y-82976464D01*
X105828048Y-82891431D01*
X105686643Y-82832859D01*
X105536528Y-82803000D01*
X105383472Y-82803000D01*
X105233357Y-82832859D01*
X105091952Y-82891431D01*
X104964691Y-82976464D01*
X104856464Y-83084691D01*
X104771431Y-83211952D01*
X104712859Y-83353357D01*
X104683000Y-83503472D01*
X104683000Y-83656528D01*
X104712859Y-83806643D01*
X104768620Y-83941261D01*
X104741431Y-83981952D01*
X104682859Y-84123357D01*
X104653000Y-84273472D01*
X104653000Y-84426528D01*
X104682859Y-84576643D01*
X104741431Y-84718048D01*
X104751535Y-84733170D01*
X104726643Y-84722859D01*
X104576528Y-84693000D01*
X104423472Y-84693000D01*
X104273357Y-84722859D01*
X104131952Y-84781431D01*
X104004691Y-84866464D01*
X103896464Y-84974691D01*
X103811431Y-85101952D01*
X103752859Y-85243357D01*
X103723000Y-85393472D01*
X103723000Y-85546528D01*
X103752859Y-85696643D01*
X103811431Y-85838048D01*
X103824119Y-85857036D01*
X103816464Y-85864691D01*
X103731431Y-85991952D01*
X103672859Y-86133357D01*
X103643000Y-86283472D01*
X68527000Y-86283472D01*
X68527000Y-77823472D01*
X73973000Y-77823472D01*
X73973000Y-77976528D01*
X74002859Y-78126643D01*
X74061431Y-78268048D01*
X74146464Y-78395309D01*
X74254691Y-78503536D01*
X74381952Y-78588569D01*
X74523357Y-78647141D01*
X74673472Y-78677000D01*
X74746355Y-78677000D01*
X74880508Y-78811154D01*
X74897789Y-78832211D01*
X74918845Y-78849491D01*
X74981841Y-78901191D01*
X75022380Y-78922859D01*
X75077737Y-78952448D01*
X75181789Y-78984012D01*
X75262891Y-78992000D01*
X75262901Y-78992000D01*
X75289999Y-78994669D01*
X75317097Y-78992000D01*
X83683127Y-78992000D01*
X83632859Y-79113357D01*
X83603000Y-79263472D01*
X83603000Y-79416528D01*
X83632859Y-79566643D01*
X83691431Y-79708048D01*
X83712781Y-79740000D01*
X83691431Y-79771952D01*
X83632859Y-79913357D01*
X83603000Y-80063472D01*
X83603000Y-80216528D01*
X83632859Y-80366643D01*
X83691431Y-80508048D01*
X83724462Y-80557483D01*
X83701431Y-80591952D01*
X83642859Y-80733357D01*
X83613000Y-80883472D01*
X83613000Y-81036528D01*
X83642859Y-81186643D01*
X83701431Y-81328048D01*
X83719462Y-81355034D01*
X83681431Y-81411952D01*
X83622859Y-81553357D01*
X83593000Y-81703472D01*
X83593000Y-81856528D01*
X83622859Y-82006643D01*
X83681431Y-82148048D01*
X83707803Y-82187517D01*
X83671431Y-82241952D01*
X83612859Y-82383357D01*
X83583000Y-82533472D01*
X83583000Y-82686528D01*
X83612859Y-82836643D01*
X83671431Y-82978048D01*
X83756464Y-83105309D01*
X83769704Y-83118549D01*
X83742859Y-83183357D01*
X83713000Y-83333472D01*
X83713000Y-83486528D01*
X83742859Y-83636643D01*
X83801431Y-83778048D01*
X83824462Y-83812517D01*
X83791431Y-83861952D01*
X83732859Y-84003357D01*
X83703000Y-84153472D01*
X83703000Y-84306528D01*
X83732859Y-84456643D01*
X83791431Y-84598048D01*
X83814440Y-84632483D01*
X83801431Y-84651952D01*
X83742859Y-84793357D01*
X83713000Y-84943472D01*
X83713000Y-85096528D01*
X83742859Y-85246643D01*
X83801431Y-85388048D01*
X83886464Y-85515309D01*
X83994691Y-85623536D01*
X84121952Y-85708569D01*
X84263357Y-85767141D01*
X84413472Y-85797000D01*
X84566528Y-85797000D01*
X84716643Y-85767141D01*
X84858048Y-85708569D01*
X84985309Y-85623536D01*
X85093536Y-85515309D01*
X85178569Y-85388048D01*
X85237141Y-85246643D01*
X85267000Y-85096528D01*
X85267000Y-84943472D01*
X85237141Y-84793357D01*
X85178569Y-84651952D01*
X85155560Y-84617517D01*
X85168569Y-84598048D01*
X85227141Y-84456643D01*
X85257000Y-84306528D01*
X85257000Y-84153472D01*
X85227141Y-84003357D01*
X85168569Y-83861952D01*
X85145538Y-83827483D01*
X85178569Y-83778048D01*
X85237141Y-83636643D01*
X85267000Y-83486528D01*
X85267000Y-83333472D01*
X85237141Y-83183357D01*
X85178569Y-83041952D01*
X85093536Y-82914691D01*
X85080296Y-82901451D01*
X85107141Y-82836643D01*
X85137000Y-82686528D01*
X85137000Y-82533472D01*
X85107141Y-82383357D01*
X85048569Y-82241952D01*
X85022197Y-82202483D01*
X85058569Y-82148048D01*
X85117141Y-82006643D01*
X85147000Y-81856528D01*
X85147000Y-81703472D01*
X85117141Y-81553357D01*
X85058569Y-81411952D01*
X85040538Y-81384966D01*
X85078569Y-81328048D01*
X85137141Y-81186643D01*
X85167000Y-81036528D01*
X85167000Y-80883472D01*
X85137141Y-80733357D01*
X85078569Y-80591952D01*
X85045538Y-80542517D01*
X85068569Y-80508048D01*
X85127141Y-80366643D01*
X85157000Y-80216528D01*
X85157000Y-80193472D01*
X103093000Y-80193472D01*
X103093000Y-80346528D01*
X103122859Y-80496643D01*
X103181431Y-80638048D01*
X103266464Y-80765309D01*
X103374691Y-80873536D01*
X103501952Y-80958569D01*
X103643357Y-81017141D01*
X103793472Y-81047000D01*
X103866355Y-81047000D01*
X104230508Y-81411154D01*
X104247789Y-81432211D01*
X104331842Y-81501191D01*
X104427737Y-81552448D01*
X104531789Y-81584012D01*
X104612891Y-81592000D01*
X104612901Y-81592000D01*
X104639999Y-81594669D01*
X104667097Y-81592000D01*
X108538985Y-81592000D01*
X108492859Y-81703357D01*
X108463000Y-81853472D01*
X108463000Y-82006528D01*
X108492859Y-82156643D01*
X108551431Y-82298048D01*
X108616212Y-82395000D01*
X108551431Y-82491952D01*
X108492859Y-82633357D01*
X108463000Y-82783472D01*
X108463000Y-82936528D01*
X108492859Y-83086643D01*
X108551431Y-83228048D01*
X108609508Y-83314966D01*
X108571431Y-83371952D01*
X108512859Y-83513357D01*
X108483000Y-83663472D01*
X108483000Y-83816528D01*
X108512859Y-83966643D01*
X108568993Y-84102162D01*
X108486464Y-84184691D01*
X108401431Y-84311952D01*
X108342859Y-84453357D01*
X108313000Y-84603472D01*
X108313000Y-84756528D01*
X108342859Y-84906643D01*
X108401431Y-85048048D01*
X108467849Y-85147449D01*
X108431431Y-85201952D01*
X108372859Y-85343357D01*
X108343000Y-85493472D01*
X108343000Y-85646528D01*
X108372859Y-85796643D01*
X108431431Y-85938048D01*
X108516464Y-86065309D01*
X108624691Y-86173536D01*
X108751952Y-86258569D01*
X108893357Y-86317141D01*
X109043472Y-86347000D01*
X109196528Y-86347000D01*
X109346643Y-86317141D01*
X109488048Y-86258569D01*
X109615309Y-86173536D01*
X109723536Y-86065309D01*
X109808569Y-85938048D01*
X109867141Y-85796643D01*
X109897000Y-85646528D01*
X109897000Y-85493472D01*
X109867141Y-85343357D01*
X109808569Y-85201952D01*
X109742151Y-85102551D01*
X109778569Y-85048048D01*
X109837141Y-84906643D01*
X109867000Y-84756528D01*
X109867000Y-84603472D01*
X109837141Y-84453357D01*
X109781007Y-84317838D01*
X109863536Y-84235309D01*
X109948569Y-84108048D01*
X110007141Y-83966643D01*
X110037000Y-83816528D01*
X110037000Y-83663472D01*
X110007141Y-83513357D01*
X109948569Y-83371952D01*
X109890492Y-83285034D01*
X109928569Y-83228048D01*
X109987141Y-83086643D01*
X110017000Y-82936528D01*
X110017000Y-82783472D01*
X109987141Y-82633357D01*
X109928569Y-82491952D01*
X109863788Y-82395000D01*
X109928569Y-82298048D01*
X109987141Y-82156643D01*
X110017000Y-82006528D01*
X110017000Y-81853472D01*
X109987141Y-81703357D01*
X109941015Y-81592000D01*
X117003155Y-81592000D01*
X117054691Y-81643536D01*
X117181952Y-81728569D01*
X117323357Y-81787141D01*
X117473472Y-81817000D01*
X117626528Y-81817000D01*
X117776643Y-81787141D01*
X117918048Y-81728569D01*
X118045309Y-81643536D01*
X118153536Y-81535309D01*
X118238569Y-81408048D01*
X118297141Y-81266643D01*
X118327000Y-81116528D01*
X118327000Y-80963472D01*
X118297141Y-80813357D01*
X118238569Y-80671952D01*
X118153536Y-80544691D01*
X118045309Y-80436464D01*
X117918048Y-80351431D01*
X117776643Y-80292859D01*
X117626528Y-80263000D01*
X117473472Y-80263000D01*
X117323357Y-80292859D01*
X117181952Y-80351431D01*
X117054691Y-80436464D01*
X117003155Y-80488000D01*
X109810845Y-80488000D01*
X109863536Y-80435309D01*
X109948569Y-80308048D01*
X110007141Y-80166643D01*
X110037000Y-80016528D01*
X110037000Y-79863472D01*
X110007141Y-79713357D01*
X109948569Y-79571952D01*
X109895111Y-79491947D01*
X109950369Y-79409248D01*
X110008941Y-79267843D01*
X110035668Y-79133472D01*
X114023000Y-79133472D01*
X114023000Y-79286528D01*
X114052859Y-79436643D01*
X114111431Y-79578048D01*
X114196464Y-79705309D01*
X114304691Y-79813536D01*
X114431952Y-79898569D01*
X114573357Y-79957141D01*
X114723472Y-79987000D01*
X114876528Y-79987000D01*
X115026643Y-79957141D01*
X115168048Y-79898569D01*
X115295309Y-79813536D01*
X115403536Y-79705309D01*
X115488569Y-79578048D01*
X115547141Y-79436643D01*
X115577000Y-79286528D01*
X115577000Y-79133472D01*
X115547141Y-78983357D01*
X115488569Y-78841952D01*
X115403536Y-78714691D01*
X115295309Y-78606464D01*
X115168048Y-78521431D01*
X115026643Y-78462859D01*
X114876528Y-78433000D01*
X114723472Y-78433000D01*
X114573357Y-78462859D01*
X114431952Y-78521431D01*
X114304691Y-78606464D01*
X114196464Y-78714691D01*
X114111431Y-78841952D01*
X114052859Y-78983357D01*
X114023000Y-79133472D01*
X110035668Y-79133472D01*
X110038800Y-79117728D01*
X110038800Y-78964672D01*
X110008941Y-78814557D01*
X109950369Y-78673152D01*
X109865336Y-78545891D01*
X109757109Y-78437664D01*
X109629848Y-78352631D01*
X109488443Y-78294059D01*
X109338328Y-78264200D01*
X109185272Y-78264200D01*
X109035157Y-78294059D01*
X108893752Y-78352631D01*
X108766491Y-78437664D01*
X108658264Y-78545891D01*
X108573231Y-78673152D01*
X108514659Y-78814557D01*
X108484800Y-78964672D01*
X108484800Y-79117728D01*
X108514659Y-79267843D01*
X108573231Y-79409248D01*
X108626689Y-79489253D01*
X108571431Y-79571952D01*
X108512859Y-79713357D01*
X108483000Y-79863472D01*
X108483000Y-80016528D01*
X108512859Y-80166643D01*
X108571431Y-80308048D01*
X108656464Y-80435309D01*
X108709155Y-80488000D01*
X106283798Y-80488000D01*
X106365309Y-80433536D01*
X106473536Y-80325309D01*
X106558569Y-80198048D01*
X106617141Y-80056643D01*
X106647000Y-79906528D01*
X106647000Y-79753472D01*
X106617141Y-79603357D01*
X106558569Y-79461952D01*
X106535061Y-79426770D01*
X106546769Y-79409248D01*
X106605341Y-79267843D01*
X106635200Y-79117728D01*
X106635200Y-78964672D01*
X106605341Y-78814557D01*
X106546769Y-78673152D01*
X106461736Y-78545891D01*
X106353509Y-78437664D01*
X106226248Y-78352631D01*
X106084843Y-78294059D01*
X105934728Y-78264200D01*
X105781672Y-78264200D01*
X105631557Y-78294059D01*
X105490152Y-78352631D01*
X105362891Y-78437664D01*
X105254664Y-78545891D01*
X105169631Y-78673152D01*
X105111059Y-78814557D01*
X105081200Y-78964672D01*
X105081200Y-79117728D01*
X105111059Y-79267843D01*
X105169631Y-79409248D01*
X105193139Y-79444430D01*
X105181431Y-79461952D01*
X105122859Y-79603357D01*
X105093000Y-79753472D01*
X105093000Y-79906528D01*
X105122859Y-80056643D01*
X105181431Y-80198048D01*
X105266464Y-80325309D01*
X105374691Y-80433536D01*
X105456202Y-80488000D01*
X104868646Y-80488000D01*
X104647000Y-80266355D01*
X104647000Y-80193472D01*
X104617141Y-80043357D01*
X104558569Y-79901952D01*
X104473536Y-79774691D01*
X104365309Y-79666464D01*
X104238048Y-79581431D01*
X104096643Y-79522859D01*
X103946528Y-79493000D01*
X103793472Y-79493000D01*
X103643357Y-79522859D01*
X103501952Y-79581431D01*
X103374691Y-79666464D01*
X103266464Y-79774691D01*
X103181431Y-79901952D01*
X103122859Y-80043357D01*
X103093000Y-80193472D01*
X85157000Y-80193472D01*
X85157000Y-80063472D01*
X85127141Y-79913357D01*
X85068569Y-79771952D01*
X85047219Y-79740000D01*
X85068569Y-79708048D01*
X85127141Y-79566643D01*
X85157000Y-79416528D01*
X85157000Y-79263472D01*
X85127141Y-79113357D01*
X85076873Y-78992000D01*
X85728155Y-78992000D01*
X85779691Y-79043536D01*
X85906952Y-79128569D01*
X86048357Y-79187141D01*
X86198472Y-79217000D01*
X86351528Y-79217000D01*
X86501643Y-79187141D01*
X86643048Y-79128569D01*
X86770309Y-79043536D01*
X86878536Y-78935309D01*
X86963569Y-78808048D01*
X87022141Y-78666643D01*
X87052000Y-78516528D01*
X87052000Y-78363472D01*
X87022141Y-78213357D01*
X86963569Y-78071952D01*
X86878536Y-77944691D01*
X86770309Y-77836464D01*
X86643048Y-77751431D01*
X86501643Y-77692859D01*
X86351528Y-77663000D01*
X86198472Y-77663000D01*
X86048357Y-77692859D01*
X85906952Y-77751431D01*
X85779691Y-77836464D01*
X85728155Y-77888000D01*
X75527000Y-77888000D01*
X75527000Y-77823472D01*
X75497141Y-77673357D01*
X75438569Y-77531952D01*
X75353536Y-77404691D01*
X75245309Y-77296464D01*
X75118048Y-77211431D01*
X74976643Y-77152859D01*
X74826528Y-77123000D01*
X74673472Y-77123000D01*
X74523357Y-77152859D01*
X74381952Y-77211431D01*
X74254691Y-77296464D01*
X74146464Y-77404691D01*
X74061431Y-77531952D01*
X74002859Y-77673357D01*
X73973000Y-77823472D01*
X68527000Y-77823472D01*
X68527000Y-74773472D01*
X87973000Y-74773472D01*
X87973000Y-74926528D01*
X88002859Y-75076643D01*
X88061431Y-75218048D01*
X88146464Y-75345309D01*
X88198000Y-75396845D01*
X88198001Y-77692884D01*
X88195330Y-77720000D01*
X88205989Y-77828210D01*
X88237552Y-77932262D01*
X88288809Y-78028157D01*
X88288810Y-78028158D01*
X88357790Y-78112211D01*
X88378852Y-78129496D01*
X89000504Y-78751149D01*
X89017789Y-78772211D01*
X89101842Y-78841191D01*
X89197737Y-78892448D01*
X89301789Y-78924012D01*
X89382891Y-78932000D01*
X89382894Y-78932000D01*
X89410000Y-78934670D01*
X89437106Y-78932000D01*
X89683155Y-78932000D01*
X89734691Y-78983536D01*
X89861952Y-79068569D01*
X90003357Y-79127141D01*
X90153472Y-79157000D01*
X90306528Y-79157000D01*
X90456643Y-79127141D01*
X90598048Y-79068569D01*
X90725309Y-78983536D01*
X90833536Y-78875309D01*
X90918569Y-78748048D01*
X90977141Y-78606643D01*
X91007000Y-78456528D01*
X91007000Y-78303472D01*
X90977141Y-78153357D01*
X90918569Y-78011952D01*
X90833536Y-77884691D01*
X90725309Y-77776464D01*
X90598048Y-77691431D01*
X90456643Y-77632859D01*
X90306528Y-77603000D01*
X90153472Y-77603000D01*
X90003357Y-77632859D01*
X89861952Y-77691431D01*
X89734691Y-77776464D01*
X89683155Y-77828000D01*
X89638645Y-77828000D01*
X89302000Y-77491356D01*
X89302000Y-75396845D01*
X89353536Y-75345309D01*
X89438569Y-75218048D01*
X89497141Y-75076643D01*
X89527000Y-74926528D01*
X89527000Y-74773472D01*
X89497141Y-74623357D01*
X89438569Y-74481952D01*
X89353536Y-74354691D01*
X89245309Y-74246464D01*
X89118048Y-74161431D01*
X88976643Y-74102859D01*
X88826528Y-74073000D01*
X88673472Y-74073000D01*
X88523357Y-74102859D01*
X88381952Y-74161431D01*
X88254691Y-74246464D01*
X88146464Y-74354691D01*
X88061431Y-74481952D01*
X88002859Y-74623357D01*
X87973000Y-74773472D01*
X68527000Y-74773472D01*
X68527000Y-50740000D01*
X74160934Y-50740000D01*
X74160934Y-52440000D01*
X74169178Y-52523707D01*
X74193595Y-52604196D01*
X74233245Y-52678376D01*
X74286605Y-52743395D01*
X74351624Y-52796755D01*
X74425804Y-52836405D01*
X74506293Y-52860822D01*
X74590000Y-52869066D01*
X75233456Y-52869066D01*
X75067513Y-52902074D01*
X74835114Y-52998337D01*
X74625960Y-53138089D01*
X74448089Y-53315960D01*
X74308337Y-53525114D01*
X74212074Y-53757513D01*
X74163000Y-54004226D01*
X74163000Y-54255774D01*
X74212074Y-54502487D01*
X74308337Y-54734886D01*
X74448089Y-54944040D01*
X74625960Y-55121911D01*
X74835114Y-55261663D01*
X75067513Y-55357926D01*
X75279034Y-55400000D01*
X75067513Y-55442074D01*
X74835114Y-55538337D01*
X74625960Y-55678089D01*
X74448089Y-55855960D01*
X74308337Y-56065114D01*
X74212074Y-56297513D01*
X74163000Y-56544226D01*
X74163000Y-56795774D01*
X74212074Y-57042487D01*
X74308337Y-57274886D01*
X74448089Y-57484040D01*
X74625960Y-57661911D01*
X74835114Y-57801663D01*
X75067513Y-57897926D01*
X75314226Y-57947000D01*
X75565774Y-57947000D01*
X75812487Y-57897926D01*
X76044886Y-57801663D01*
X76254040Y-57661911D01*
X76431911Y-57484040D01*
X76571663Y-57274886D01*
X76667926Y-57042487D01*
X76710000Y-56830966D01*
X76752074Y-57042487D01*
X76848337Y-57274886D01*
X76988089Y-57484040D01*
X77165960Y-57661911D01*
X77375114Y-57801663D01*
X77607513Y-57897926D01*
X77854226Y-57947000D01*
X78105774Y-57947000D01*
X78352487Y-57897926D01*
X78584886Y-57801663D01*
X78794040Y-57661911D01*
X78971911Y-57484040D01*
X79111663Y-57274886D01*
X79207926Y-57042487D01*
X79245114Y-56855530D01*
X81970934Y-54129712D01*
X81970934Y-57090000D01*
X81979178Y-57173707D01*
X82003595Y-57254196D01*
X82043245Y-57328376D01*
X82096605Y-57393395D01*
X82161624Y-57446755D01*
X82235804Y-57486405D01*
X82316293Y-57510822D01*
X82400000Y-57519066D01*
X85400000Y-57519066D01*
X85483707Y-57510822D01*
X85564196Y-57486405D01*
X85638376Y-57446755D01*
X85703395Y-57393395D01*
X85756755Y-57328376D01*
X85796405Y-57254196D01*
X85820822Y-57173707D01*
X85829066Y-57090000D01*
X85829066Y-54090000D01*
X85820822Y-54006293D01*
X85807385Y-53962000D01*
X91991356Y-53962000D01*
X96008000Y-57978645D01*
X96008001Y-58773154D01*
X95956464Y-58824691D01*
X95871431Y-58951952D01*
X95812859Y-59093357D01*
X95783000Y-59243472D01*
X95783000Y-59396528D01*
X95812859Y-59546643D01*
X95871431Y-59688048D01*
X95956464Y-59815309D01*
X96064691Y-59923536D01*
X96191952Y-60008569D01*
X96333357Y-60067141D01*
X96483472Y-60097000D01*
X96636528Y-60097000D01*
X96786643Y-60067141D01*
X96928048Y-60008569D01*
X97055309Y-59923536D01*
X97163536Y-59815309D01*
X97248569Y-59688048D01*
X97307141Y-59546643D01*
X97337000Y-59396528D01*
X97337000Y-59243472D01*
X97307141Y-59093357D01*
X97248569Y-58951952D01*
X97163536Y-58824691D01*
X97112000Y-58773155D01*
X97112000Y-58222645D01*
X98638000Y-59748646D01*
X98638001Y-64211353D01*
X98266294Y-64583060D01*
X98303522Y-64460336D01*
X98328178Y-64210000D01*
X98303522Y-63959664D01*
X98230502Y-63718949D01*
X98111924Y-63497104D01*
X97952344Y-63302656D01*
X97757896Y-63143076D01*
X97536051Y-63024498D01*
X97295336Y-62951478D01*
X97107726Y-62933000D01*
X96732274Y-62933000D01*
X96544664Y-62951478D01*
X96303949Y-63024498D01*
X96082104Y-63143076D01*
X95887656Y-63302656D01*
X95728076Y-63497104D01*
X95716907Y-63518000D01*
X91037097Y-63518000D01*
X91009999Y-63515331D01*
X90982901Y-63518000D01*
X90982891Y-63518000D01*
X90901789Y-63525988D01*
X90797737Y-63557552D01*
X90701842Y-63608809D01*
X90617789Y-63677789D01*
X90600508Y-63698846D01*
X90256355Y-64043000D01*
X90183472Y-64043000D01*
X90033357Y-64072859D01*
X89891952Y-64131431D01*
X89842000Y-64164808D01*
X89842000Y-63388644D01*
X91378646Y-61852000D01*
X91773155Y-61852000D01*
X91824691Y-61903536D01*
X91951952Y-61988569D01*
X92093357Y-62047141D01*
X92243472Y-62077000D01*
X92396528Y-62077000D01*
X92546643Y-62047141D01*
X92688048Y-61988569D01*
X92815309Y-61903536D01*
X92923536Y-61795309D01*
X93008569Y-61668048D01*
X93067141Y-61526643D01*
X93097000Y-61376528D01*
X93097000Y-61223472D01*
X93067141Y-61073357D01*
X93008569Y-60931952D01*
X92923536Y-60804691D01*
X92815309Y-60696464D01*
X92688048Y-60611431D01*
X92546643Y-60552859D01*
X92396528Y-60523000D01*
X92243472Y-60523000D01*
X92093357Y-60552859D01*
X91951952Y-60611431D01*
X91824691Y-60696464D01*
X91773155Y-60748000D01*
X91177097Y-60748000D01*
X91149999Y-60745331D01*
X91122901Y-60748000D01*
X91122891Y-60748000D01*
X91041789Y-60755988D01*
X90937737Y-60787552D01*
X90905672Y-60804691D01*
X90841841Y-60838809D01*
X90789570Y-60881707D01*
X90757789Y-60907789D01*
X90740508Y-60928846D01*
X89037000Y-62632356D01*
X89037000Y-61630422D01*
X91576220Y-59091203D01*
X91596643Y-59087141D01*
X91738048Y-59028569D01*
X91865309Y-58943536D01*
X91973536Y-58835309D01*
X92058569Y-58708048D01*
X92117141Y-58566643D01*
X92147000Y-58416528D01*
X92147000Y-58263472D01*
X92117141Y-58113357D01*
X92058569Y-57971952D01*
X91973536Y-57844691D01*
X91865309Y-57736464D01*
X91738048Y-57651431D01*
X91596643Y-57592859D01*
X91446528Y-57563000D01*
X91293472Y-57563000D01*
X91143357Y-57592859D01*
X91001952Y-57651431D01*
X90874691Y-57736464D01*
X90766464Y-57844691D01*
X90681431Y-57971952D01*
X90622859Y-58113357D01*
X90618797Y-58133780D01*
X87904800Y-60847778D01*
X87878973Y-60868974D01*
X87794372Y-60972060D01*
X87731508Y-61089671D01*
X87692796Y-61217286D01*
X87683000Y-61316749D01*
X87683000Y-61316755D01*
X87679726Y-61350000D01*
X87683000Y-61383245D01*
X87683001Y-66072712D01*
X87661952Y-66081431D01*
X87534691Y-66166464D01*
X87426464Y-66274691D01*
X87341431Y-66401952D01*
X87282859Y-66543357D01*
X87253000Y-66693472D01*
X87253000Y-66846528D01*
X87282859Y-66996643D01*
X87341431Y-67138048D01*
X87426464Y-67265309D01*
X87534691Y-67373536D01*
X87661952Y-67458569D01*
X87803357Y-67517141D01*
X87953472Y-67547000D01*
X88106528Y-67547000D01*
X88256643Y-67517141D01*
X88398048Y-67458569D01*
X88525309Y-67373536D01*
X88633536Y-67265309D01*
X88718569Y-67138048D01*
X88732142Y-67105279D01*
X88738000Y-67099421D01*
X88738001Y-71982884D01*
X88735330Y-72010000D01*
X88744413Y-72102211D01*
X88745989Y-72118211D01*
X88753158Y-72141843D01*
X88777552Y-72222262D01*
X88828809Y-72318157D01*
X88828810Y-72318158D01*
X88897790Y-72402211D01*
X88918852Y-72419496D01*
X89320504Y-72821149D01*
X89337789Y-72842211D01*
X89421842Y-72911191D01*
X89517737Y-72962448D01*
X89621789Y-72994012D01*
X89702891Y-73002000D01*
X89702894Y-73002000D01*
X89730000Y-73004670D01*
X89757106Y-73002000D01*
X89790655Y-73002000D01*
X89842191Y-73053536D01*
X89969452Y-73138569D01*
X90110857Y-73197141D01*
X90260972Y-73227000D01*
X90414028Y-73227000D01*
X90564143Y-73197141D01*
X90705548Y-73138569D01*
X90832809Y-73053536D01*
X90884345Y-73002000D01*
X91202894Y-73002000D01*
X91230000Y-73004670D01*
X91257106Y-73002000D01*
X91257109Y-73002000D01*
X91338211Y-72994012D01*
X91442263Y-72962448D01*
X91538158Y-72911191D01*
X91622211Y-72842211D01*
X91639500Y-72821144D01*
X92198646Y-72262000D01*
X95642076Y-72262000D01*
X95728076Y-72422896D01*
X95887656Y-72617344D01*
X96082104Y-72776924D01*
X96303949Y-72895502D01*
X96516571Y-72960000D01*
X96303949Y-73024498D01*
X96082104Y-73143076D01*
X95887656Y-73302656D01*
X95728076Y-73497104D01*
X95609498Y-73718949D01*
X95536478Y-73959664D01*
X95511822Y-74210000D01*
X95536478Y-74460336D01*
X95609498Y-74701051D01*
X95728076Y-74922896D01*
X95887656Y-75117344D01*
X96082104Y-75276924D01*
X96303949Y-75395502D01*
X96544664Y-75468522D01*
X96732274Y-75487000D01*
X97107726Y-75487000D01*
X97295336Y-75468522D01*
X97536051Y-75395502D01*
X97757896Y-75276924D01*
X97952344Y-75117344D01*
X98111924Y-74922896D01*
X98230502Y-74701051D01*
X98303522Y-74460336D01*
X98328178Y-74210000D01*
X98303522Y-73959664D01*
X98230502Y-73718949D01*
X98111924Y-73497104D01*
X97952344Y-73302656D01*
X97757896Y-73143076D01*
X97536051Y-73024498D01*
X97323429Y-72960000D01*
X97536051Y-72895502D01*
X97757896Y-72776924D01*
X97952344Y-72617344D01*
X98111924Y-72422896D01*
X98230502Y-72201051D01*
X98303522Y-71960336D01*
X98328178Y-71710000D01*
X98303522Y-71459664D01*
X98230502Y-71218949D01*
X98111924Y-70997104D01*
X97952344Y-70802656D01*
X97757896Y-70643076D01*
X97536051Y-70524498D01*
X97323429Y-70460000D01*
X97536051Y-70395502D01*
X97757896Y-70276924D01*
X97952344Y-70117344D01*
X98111924Y-69922896D01*
X98230502Y-69701051D01*
X98303522Y-69460336D01*
X98328178Y-69210000D01*
X98303522Y-68959664D01*
X98230502Y-68718949D01*
X98111924Y-68497104D01*
X97952344Y-68302656D01*
X97757896Y-68143076D01*
X97536051Y-68024498D01*
X97323429Y-67960000D01*
X97536051Y-67895502D01*
X97757896Y-67776924D01*
X97952344Y-67617344D01*
X98111924Y-67422896D01*
X98230502Y-67201051D01*
X98303522Y-66960336D01*
X98328178Y-66710000D01*
X98303522Y-66459664D01*
X98230502Y-66218949D01*
X98216985Y-66193660D01*
X99561154Y-64849492D01*
X99582211Y-64832211D01*
X99651191Y-64748158D01*
X99702448Y-64652263D01*
X99734012Y-64548211D01*
X99742000Y-64467109D01*
X99744670Y-64440000D01*
X99742000Y-64412892D01*
X99742000Y-59547108D01*
X99744670Y-59520000D01*
X99734012Y-59411789D01*
X99702448Y-59307737D01*
X99651191Y-59211842D01*
X99599492Y-59148846D01*
X99599491Y-59148845D01*
X99582211Y-59127789D01*
X99561154Y-59110508D01*
X92919501Y-52468857D01*
X92902211Y-52447789D01*
X92818158Y-52378809D01*
X92722263Y-52327552D01*
X92618211Y-52295988D01*
X92537109Y-52288000D01*
X92537106Y-52288000D01*
X92510000Y-52285330D01*
X92482894Y-52288000D01*
X81347106Y-52288000D01*
X81320000Y-52285330D01*
X81292894Y-52288000D01*
X81292891Y-52288000D01*
X81211789Y-52295988D01*
X81107737Y-52327552D01*
X81011842Y-52378809D01*
X80927789Y-52447789D01*
X80910508Y-52468846D01*
X79257000Y-54122355D01*
X79257000Y-54004226D01*
X79207926Y-53757513D01*
X79111663Y-53525114D01*
X78971911Y-53315960D01*
X78794040Y-53138089D01*
X78584886Y-52998337D01*
X78352487Y-52902074D01*
X78140966Y-52860000D01*
X78352487Y-52817926D01*
X78584886Y-52721663D01*
X78794040Y-52581911D01*
X78971911Y-52404040D01*
X79111663Y-52194886D01*
X79207926Y-51962487D01*
X79257000Y-51715774D01*
X79257000Y-51464226D01*
X79207926Y-51217513D01*
X79111663Y-50985114D01*
X78971911Y-50775960D01*
X78794040Y-50598089D01*
X78737267Y-50560155D01*
X79030422Y-50267000D01*
X93219578Y-50267000D01*
X93557778Y-50605201D01*
X93578973Y-50631027D01*
X93604799Y-50652222D01*
X93604801Y-50652224D01*
X93682059Y-50715628D01*
X93799670Y-50778492D01*
X93927285Y-50817204D01*
X94024273Y-50826756D01*
X94041952Y-50838569D01*
X94183357Y-50897141D01*
X94333472Y-50927000D01*
X94486528Y-50927000D01*
X94636643Y-50897141D01*
X94778048Y-50838569D01*
X94905309Y-50753536D01*
X95013536Y-50645309D01*
X95098569Y-50518048D01*
X95157141Y-50376643D01*
X95187000Y-50226528D01*
X95187000Y-50073472D01*
X95157141Y-49923357D01*
X95098569Y-49781952D01*
X95013536Y-49654691D01*
X94905309Y-49546464D01*
X94778048Y-49461431D01*
X94737167Y-49444498D01*
X94848048Y-49398569D01*
X94975309Y-49313536D01*
X95083536Y-49205309D01*
X95168569Y-49078048D01*
X95227141Y-48936643D01*
X95257000Y-48786528D01*
X95257000Y-48633472D01*
X95227141Y-48483357D01*
X95168569Y-48341952D01*
X95083536Y-48214691D01*
X94975309Y-48106464D01*
X94848048Y-48021431D01*
X94706643Y-47962859D01*
X94556528Y-47933000D01*
X94403472Y-47933000D01*
X94253357Y-47962859D01*
X94111952Y-48021431D01*
X94094638Y-48033000D01*
X77353241Y-48033000D01*
X77319999Y-48029726D01*
X77286757Y-48033000D01*
X77286748Y-48033000D01*
X77187285Y-48042796D01*
X77059670Y-48081508D01*
X76942059Y-48144372D01*
X76838973Y-48228973D01*
X76817774Y-48254804D01*
X74984800Y-50087778D01*
X74958973Y-50108974D01*
X74937778Y-50134800D01*
X74937776Y-50134802D01*
X74920685Y-50155628D01*
X74874372Y-50212060D01*
X74821523Y-50310934D01*
X74590000Y-50310934D01*
X74506293Y-50319178D01*
X74425804Y-50343595D01*
X74351624Y-50383245D01*
X74286605Y-50436605D01*
X74233245Y-50501624D01*
X74193595Y-50575804D01*
X74169178Y-50656293D01*
X74160934Y-50740000D01*
X68527000Y-50740000D01*
X68527000Y-32527000D01*
X78400934Y-32527000D01*
X78400934Y-36889615D01*
G37*
%TD.AperFunction*%
D23*
X117000934Y-37420000D02*
X117009178Y-37503707D01*
X117033595Y-37584196D01*
X117073245Y-37658376D01*
X117126605Y-37723395D01*
X117191624Y-37776755D01*
X117265804Y-37816405D01*
X117346293Y-37840822D01*
X117430000Y-37849066D01*
X120430000Y-37849066D01*
X120513707Y-37840822D01*
X120594196Y-37816405D01*
X120668376Y-37776755D01*
X120733395Y-37723395D01*
X120786755Y-37658376D01*
X120826405Y-37584196D01*
X120850822Y-37503707D01*
X120859066Y-37420000D01*
X120859066Y-35847000D01*
X121556025Y-35847000D01*
X124423000Y-38713976D01*
X124423001Y-43344463D01*
X124418516Y-43390000D01*
X124423001Y-43435537D01*
X124423001Y-43435538D01*
X124436414Y-43571724D01*
X124439208Y-43580934D01*
X124489420Y-43746463D01*
X124575499Y-43907505D01*
X124662312Y-44013287D01*
X124662317Y-44013292D01*
X124691342Y-44048659D01*
X124726708Y-44077683D01*
X126162316Y-45513292D01*
X126191341Y-45548659D01*
X126226708Y-45577684D01*
X126226711Y-45577687D01*
X126332494Y-45664501D01*
X126418573Y-45710511D01*
X126493536Y-45750580D01*
X126668276Y-45803587D01*
X126804462Y-45817000D01*
X126804474Y-45817000D01*
X126849999Y-45821484D01*
X126895524Y-45817000D01*
X131066607Y-45817000D01*
X131237104Y-45956924D01*
X131458949Y-46075502D01*
X131575753Y-46110934D01*
X131350000Y-46110934D01*
X131217521Y-46123982D01*
X131090133Y-46162625D01*
X130972731Y-46225377D01*
X130869828Y-46309828D01*
X130785377Y-46412731D01*
X130722625Y-46530133D01*
X130683982Y-46657521D01*
X130670934Y-46790000D01*
X130670934Y-47990000D01*
X130683982Y-48122479D01*
X130722625Y-48249867D01*
X130785377Y-48367269D01*
X130869828Y-48470172D01*
X130972731Y-48554623D01*
X131090133Y-48617375D01*
X131217521Y-48656018D01*
X131350000Y-48669066D01*
X132528091Y-48669066D01*
X138063000Y-54203976D01*
X138063001Y-99666023D01*
X134926025Y-102803000D01*
X124657351Y-102803000D01*
X124668048Y-102798569D01*
X124795309Y-102713536D01*
X124903536Y-102605309D01*
X124988569Y-102478048D01*
X125047141Y-102336643D01*
X125077000Y-102186528D01*
X125077000Y-102113644D01*
X125787172Y-101403472D01*
X129603000Y-101403472D01*
X129603000Y-101556528D01*
X129632859Y-101706643D01*
X129691431Y-101848048D01*
X129776464Y-101975309D01*
X129884691Y-102083536D01*
X130011952Y-102168569D01*
X130153357Y-102227141D01*
X130303472Y-102257000D01*
X130456528Y-102257000D01*
X130606643Y-102227141D01*
X130748048Y-102168569D01*
X130875309Y-102083536D01*
X130983536Y-101975309D01*
X131068569Y-101848048D01*
X131127141Y-101706643D01*
X131157000Y-101556528D01*
X131157000Y-101423645D01*
X131261149Y-101319496D01*
X131282211Y-101302211D01*
X131351191Y-101218158D01*
X131402448Y-101122263D01*
X131434012Y-101018211D01*
X131442000Y-100937109D01*
X131442000Y-100937106D01*
X131444670Y-100910000D01*
X131442000Y-100882894D01*
X131442000Y-95646845D01*
X131493536Y-95595309D01*
X131578569Y-95468048D01*
X131637141Y-95326643D01*
X131667000Y-95176528D01*
X131667000Y-95023472D01*
X131637141Y-94873357D01*
X131578569Y-94731952D01*
X131493536Y-94604691D01*
X131385309Y-94496464D01*
X131258048Y-94411431D01*
X131116643Y-94352859D01*
X130966528Y-94323000D01*
X130813472Y-94323000D01*
X130663357Y-94352859D01*
X130521952Y-94411431D01*
X130394691Y-94496464D01*
X130286464Y-94604691D01*
X130201431Y-94731952D01*
X130142859Y-94873357D01*
X130113000Y-95023472D01*
X130113000Y-95176528D01*
X130142859Y-95326643D01*
X130201431Y-95468048D01*
X130286464Y-95595309D01*
X130338000Y-95646845D01*
X130338001Y-100681354D01*
X130316355Y-100703000D01*
X130303472Y-100703000D01*
X130153357Y-100732859D01*
X130011952Y-100791431D01*
X129884691Y-100876464D01*
X129776464Y-100984691D01*
X129691431Y-101111952D01*
X129632859Y-101253357D01*
X129603000Y-101403472D01*
X125787172Y-101403472D01*
X125921149Y-101269496D01*
X125942211Y-101252211D01*
X126011191Y-101168158D01*
X126062448Y-101072263D01*
X126094012Y-100968211D01*
X126102000Y-100887109D01*
X126102000Y-100887106D01*
X126104670Y-100860000D01*
X126102000Y-100832894D01*
X126102000Y-87023472D01*
X126463000Y-87023472D01*
X126463000Y-87176528D01*
X126492859Y-87326643D01*
X126536529Y-87432071D01*
X126502859Y-87513357D01*
X126473000Y-87663472D01*
X126473000Y-87816528D01*
X126502859Y-87966643D01*
X126561431Y-88108048D01*
X126646464Y-88235309D01*
X126754691Y-88343536D01*
X126881952Y-88428569D01*
X127023357Y-88487141D01*
X127173472Y-88517000D01*
X127326528Y-88517000D01*
X127476643Y-88487141D01*
X127598915Y-88436494D01*
X127631952Y-88458569D01*
X127773357Y-88517141D01*
X127923472Y-88547000D01*
X128076528Y-88547000D01*
X128226643Y-88517141D01*
X128368048Y-88458569D01*
X128495309Y-88373536D01*
X128603536Y-88265309D01*
X128688569Y-88138048D01*
X128747141Y-87996643D01*
X128777000Y-87846528D01*
X128777000Y-87693472D01*
X128747141Y-87543357D01*
X128704329Y-87440000D01*
X128747141Y-87336643D01*
X128777000Y-87186528D01*
X128777000Y-87033472D01*
X128747141Y-86883357D01*
X128688569Y-86741952D01*
X128603536Y-86614691D01*
X128495309Y-86506464D01*
X128368048Y-86421431D01*
X128226643Y-86362859D01*
X128076528Y-86333000D01*
X127923472Y-86333000D01*
X127773357Y-86362859D01*
X127631952Y-86421431D01*
X127627483Y-86424417D01*
X127608048Y-86411431D01*
X127466643Y-86352859D01*
X127316528Y-86323000D01*
X127163472Y-86323000D01*
X127013357Y-86352859D01*
X126871952Y-86411431D01*
X126744691Y-86496464D01*
X126636464Y-86604691D01*
X126551431Y-86731952D01*
X126492859Y-86873357D01*
X126463000Y-87023472D01*
X126102000Y-87023472D01*
X126102000Y-79198644D01*
X126788646Y-78512000D01*
X128122894Y-78512000D01*
X128150000Y-78514670D01*
X128177106Y-78512000D01*
X128177109Y-78512000D01*
X128258211Y-78504012D01*
X128362263Y-78472448D01*
X128458158Y-78421191D01*
X128542211Y-78352211D01*
X128559500Y-78331144D01*
X129451154Y-77439492D01*
X129453001Y-77437976D01*
X129453000Y-84572356D01*
X128862000Y-83981356D01*
X128862000Y-82296845D01*
X128913536Y-82245309D01*
X128998569Y-82118048D01*
X129057141Y-81976643D01*
X129087000Y-81826528D01*
X129087000Y-81673472D01*
X129057141Y-81523357D01*
X128998569Y-81381952D01*
X128913536Y-81254691D01*
X128805309Y-81146464D01*
X128678048Y-81061431D01*
X128536643Y-81002859D01*
X128386528Y-80973000D01*
X128233472Y-80973000D01*
X128083357Y-81002859D01*
X127941952Y-81061431D01*
X127814691Y-81146464D01*
X127706464Y-81254691D01*
X127621431Y-81381952D01*
X127562859Y-81523357D01*
X127533000Y-81673472D01*
X127533000Y-81826528D01*
X127562859Y-81976643D01*
X127621431Y-82118048D01*
X127706464Y-82245309D01*
X127758001Y-82296846D01*
X127758000Y-84182894D01*
X127755330Y-84210000D01*
X127758000Y-84237106D01*
X127758000Y-84237108D01*
X127765988Y-84318210D01*
X127797552Y-84422262D01*
X127848809Y-84518158D01*
X127917789Y-84602211D01*
X127938856Y-84619501D01*
X130838001Y-87518647D01*
X130838000Y-91073155D01*
X130786464Y-91124691D01*
X130701431Y-91251952D01*
X130642859Y-91393357D01*
X130613000Y-91543472D01*
X130613000Y-91696528D01*
X130642859Y-91846643D01*
X130701431Y-91988048D01*
X130786464Y-92115309D01*
X130894691Y-92223536D01*
X131021952Y-92308569D01*
X131163357Y-92367141D01*
X131313472Y-92397000D01*
X131466528Y-92397000D01*
X131616643Y-92367141D01*
X131758048Y-92308569D01*
X131885309Y-92223536D01*
X131993536Y-92115309D01*
X132078569Y-91988048D01*
X132093000Y-91953208D01*
X132093000Y-94356755D01*
X132089726Y-94390000D01*
X132093000Y-94423245D01*
X132093000Y-94423251D01*
X132100211Y-94496464D01*
X132102796Y-94522714D01*
X132141508Y-94650329D01*
X132204372Y-94767940D01*
X132242723Y-94814670D01*
X132288973Y-94871026D01*
X132314800Y-94892222D01*
X132753001Y-95330424D01*
X132753000Y-100686755D01*
X132749726Y-100720000D01*
X132753000Y-100753245D01*
X132753000Y-100753251D01*
X132762796Y-100852714D01*
X132801508Y-100980329D01*
X132864372Y-101097940D01*
X132921999Y-101168158D01*
X132948973Y-101201026D01*
X132974800Y-101222222D01*
X133848797Y-102096219D01*
X133852859Y-102116643D01*
X133911431Y-102258048D01*
X133996464Y-102385309D01*
X134104691Y-102493536D01*
X134231952Y-102578569D01*
X134373357Y-102637141D01*
X134523472Y-102667000D01*
X134676528Y-102667000D01*
X134826643Y-102637141D01*
X134968048Y-102578569D01*
X135095309Y-102493536D01*
X135203536Y-102385309D01*
X135288569Y-102258048D01*
X135347141Y-102116643D01*
X135377000Y-101966528D01*
X135377000Y-101813472D01*
X135347141Y-101663357D01*
X135288569Y-101521952D01*
X135203536Y-101394691D01*
X135095309Y-101286464D01*
X134968048Y-101201431D01*
X134826643Y-101142859D01*
X134806219Y-101138797D01*
X134107000Y-100439578D01*
X134107000Y-95165845D01*
X134204691Y-95263536D01*
X134331952Y-95348569D01*
X134473357Y-95407141D01*
X134623472Y-95437000D01*
X134776528Y-95437000D01*
X134926643Y-95407141D01*
X135068048Y-95348569D01*
X135195309Y-95263536D01*
X135303536Y-95155309D01*
X135388569Y-95028048D01*
X135447141Y-94886643D01*
X135477000Y-94736528D01*
X135477000Y-94583472D01*
X135447141Y-94433357D01*
X135388569Y-94291952D01*
X135303536Y-94164691D01*
X135195309Y-94056464D01*
X135068048Y-93971431D01*
X134926643Y-93912859D01*
X134906218Y-93908796D01*
X134407000Y-93409578D01*
X134407000Y-87184423D01*
X134787778Y-87565201D01*
X134808973Y-87591027D01*
X134834799Y-87612222D01*
X134834801Y-87612224D01*
X134912059Y-87675628D01*
X134922280Y-87681091D01*
X134998076Y-87822896D01*
X135157656Y-88017344D01*
X135352104Y-88176924D01*
X135573949Y-88295502D01*
X135814664Y-88368522D01*
X136002274Y-88387000D01*
X136377726Y-88387000D01*
X136565336Y-88368522D01*
X136806051Y-88295502D01*
X137027896Y-88176924D01*
X137222344Y-88017344D01*
X137381924Y-87822896D01*
X137500502Y-87601051D01*
X137573522Y-87360336D01*
X137598178Y-87110000D01*
X137573522Y-86859664D01*
X137500502Y-86618949D01*
X137381924Y-86397104D01*
X137222344Y-86202656D01*
X137027896Y-86043076D01*
X136806051Y-85924498D01*
X136593429Y-85860000D01*
X136806051Y-85795502D01*
X137027896Y-85676924D01*
X137222344Y-85517344D01*
X137381924Y-85322896D01*
X137500502Y-85101051D01*
X137573522Y-84860336D01*
X137598178Y-84610000D01*
X137573522Y-84359664D01*
X137500502Y-84118949D01*
X137381924Y-83897104D01*
X137222344Y-83702656D01*
X137027896Y-83543076D01*
X136806051Y-83424498D01*
X136593429Y-83360000D01*
X136806051Y-83295502D01*
X137027896Y-83176924D01*
X137222344Y-83017344D01*
X137381924Y-82822896D01*
X137500502Y-82601051D01*
X137573522Y-82360336D01*
X137598178Y-82110000D01*
X137573522Y-81859664D01*
X137500502Y-81618949D01*
X137381924Y-81397104D01*
X137222344Y-81202656D01*
X137027896Y-81043076D01*
X136806051Y-80924498D01*
X136593429Y-80860000D01*
X136806051Y-80795502D01*
X137027896Y-80676924D01*
X137222344Y-80517344D01*
X137381924Y-80322896D01*
X137500502Y-80101051D01*
X137573522Y-79860336D01*
X137598178Y-79610000D01*
X137573522Y-79359664D01*
X137500502Y-79118949D01*
X137381924Y-78897104D01*
X137222344Y-78702656D01*
X137027896Y-78543076D01*
X136806051Y-78424498D01*
X136593429Y-78360000D01*
X136806051Y-78295502D01*
X137027896Y-78176924D01*
X137222344Y-78017344D01*
X137381924Y-77822896D01*
X137500502Y-77601051D01*
X137573522Y-77360336D01*
X137598178Y-77110000D01*
X137573522Y-76859664D01*
X137500502Y-76618949D01*
X137381924Y-76397104D01*
X137222344Y-76202656D01*
X137027896Y-76043076D01*
X136806051Y-75924498D01*
X136593429Y-75860000D01*
X136806051Y-75795502D01*
X137027896Y-75676924D01*
X137222344Y-75517344D01*
X137381924Y-75322896D01*
X137500502Y-75101051D01*
X137573522Y-74860336D01*
X137598178Y-74610000D01*
X137573522Y-74359664D01*
X137500502Y-74118949D01*
X137381924Y-73897104D01*
X137222344Y-73702656D01*
X137027896Y-73543076D01*
X136806051Y-73424498D01*
X136593429Y-73360000D01*
X136806051Y-73295502D01*
X137027896Y-73176924D01*
X137222344Y-73017344D01*
X137381924Y-72822896D01*
X137500502Y-72601051D01*
X137573522Y-72360336D01*
X137598178Y-72110000D01*
X137573522Y-71859664D01*
X137500502Y-71618949D01*
X137381924Y-71397104D01*
X137222344Y-71202656D01*
X137027896Y-71043076D01*
X136806051Y-70924498D01*
X136593429Y-70860000D01*
X136806051Y-70795502D01*
X137027896Y-70676924D01*
X137222344Y-70517344D01*
X137381924Y-70322896D01*
X137500502Y-70101051D01*
X137573522Y-69860336D01*
X137598178Y-69610000D01*
X137573522Y-69359664D01*
X137500502Y-69118949D01*
X137381924Y-68897104D01*
X137222344Y-68702656D01*
X137027896Y-68543076D01*
X136806051Y-68424498D01*
X136593429Y-68360000D01*
X136806051Y-68295502D01*
X137027896Y-68176924D01*
X137222344Y-68017344D01*
X137381924Y-67822896D01*
X137500502Y-67601051D01*
X137573522Y-67360336D01*
X137598178Y-67110000D01*
X137573522Y-66859664D01*
X137500502Y-66618949D01*
X137381924Y-66397104D01*
X137222344Y-66202656D01*
X137027896Y-66043076D01*
X136806051Y-65924498D01*
X136593429Y-65860000D01*
X136806051Y-65795502D01*
X137027896Y-65676924D01*
X137222344Y-65517344D01*
X137381924Y-65322896D01*
X137500502Y-65101051D01*
X137573522Y-64860336D01*
X137598178Y-64610000D01*
X137573522Y-64359664D01*
X137500502Y-64118949D01*
X137381924Y-63897104D01*
X137222344Y-63702656D01*
X137027896Y-63543076D01*
X136806051Y-63424498D01*
X136593429Y-63360000D01*
X136806051Y-63295502D01*
X137027896Y-63176924D01*
X137222344Y-63017344D01*
X137381924Y-62822896D01*
X137500502Y-62601051D01*
X137573522Y-62360336D01*
X137598178Y-62110000D01*
X137573522Y-61859664D01*
X137500502Y-61618949D01*
X137381924Y-61397104D01*
X137222344Y-61202656D01*
X137027896Y-61043076D01*
X136806051Y-60924498D01*
X136593429Y-60860000D01*
X136806051Y-60795502D01*
X137027896Y-60676924D01*
X137222344Y-60517344D01*
X137381924Y-60322896D01*
X137500502Y-60101051D01*
X137573522Y-59860336D01*
X137598178Y-59610000D01*
X137573522Y-59359664D01*
X137500502Y-59118949D01*
X137381924Y-58897104D01*
X137222344Y-58702656D01*
X137027896Y-58543076D01*
X136806051Y-58424498D01*
X136565336Y-58351478D01*
X136377726Y-58333000D01*
X136002274Y-58333000D01*
X135814664Y-58351478D01*
X135573949Y-58424498D01*
X135352104Y-58543076D01*
X135157656Y-58702656D01*
X134998076Y-58897104D01*
X134879498Y-59118949D01*
X134806478Y-59359664D01*
X134781822Y-59610000D01*
X134806478Y-59860336D01*
X134879498Y-60101051D01*
X134998076Y-60322896D01*
X135157656Y-60517344D01*
X135352104Y-60676924D01*
X135573949Y-60795502D01*
X135786571Y-60860000D01*
X135573949Y-60924498D01*
X135352104Y-61043076D01*
X135157656Y-61202656D01*
X134998076Y-61397104D01*
X134978889Y-61433000D01*
X133893252Y-61433000D01*
X133860000Y-61429725D01*
X133826748Y-61433000D01*
X133727285Y-61442796D01*
X133599670Y-61481508D01*
X133482059Y-61544372D01*
X133378973Y-61628973D01*
X133357778Y-61654799D01*
X130733781Y-64278796D01*
X130713357Y-64282859D01*
X130571952Y-64341431D01*
X130444691Y-64426464D01*
X130336464Y-64534691D01*
X130251431Y-64661952D01*
X130192859Y-64803357D01*
X130163000Y-64953472D01*
X130163000Y-65106528D01*
X130177838Y-65181127D01*
X129807000Y-64810289D01*
X129807000Y-60120794D01*
X129810033Y-60090000D01*
X129797927Y-59967087D01*
X129762075Y-59848896D01*
X129703853Y-59739972D01*
X129661240Y-59688048D01*
X129625501Y-59644499D01*
X129601578Y-59624866D01*
X127685138Y-57708427D01*
X127665501Y-57684499D01*
X127570028Y-57606147D01*
X127461103Y-57547925D01*
X127365966Y-57519066D01*
X129400000Y-57519066D01*
X129483707Y-57510822D01*
X129564196Y-57486405D01*
X129638376Y-57446755D01*
X129703395Y-57393395D01*
X129756755Y-57328376D01*
X129796405Y-57254196D01*
X129820822Y-57173707D01*
X129829066Y-57090000D01*
X129829066Y-54090000D01*
X129820822Y-54006293D01*
X129796405Y-53925804D01*
X129756755Y-53851624D01*
X129703395Y-53786605D01*
X129638376Y-53733245D01*
X129564196Y-53693595D01*
X129483707Y-53669178D01*
X129400000Y-53660934D01*
X126400000Y-53660934D01*
X126316293Y-53669178D01*
X126235804Y-53693595D01*
X126161624Y-53733245D01*
X126096605Y-53786605D01*
X126043245Y-53851624D01*
X126003595Y-53925804D01*
X125979178Y-54006293D01*
X125970934Y-54090000D01*
X125970934Y-57090000D01*
X125979178Y-57173707D01*
X126003595Y-57254196D01*
X126043245Y-57328376D01*
X126096605Y-57393395D01*
X126161624Y-57446755D01*
X126235804Y-57486405D01*
X126290508Y-57503000D01*
X126099712Y-57503000D01*
X124987000Y-56390289D01*
X124987000Y-51139711D01*
X126658572Y-49468140D01*
X126764143Y-49447141D01*
X126905548Y-49388569D01*
X127032809Y-49303536D01*
X127141036Y-49195309D01*
X127226069Y-49068048D01*
X127284641Y-48926643D01*
X127314500Y-48776528D01*
X127314500Y-48623472D01*
X127284641Y-48473357D01*
X127226069Y-48331952D01*
X127141036Y-48204691D01*
X127032809Y-48096464D01*
X126905548Y-48011431D01*
X126764143Y-47952859D01*
X126614028Y-47923000D01*
X126460972Y-47923000D01*
X126310857Y-47952859D01*
X126169452Y-48011431D01*
X126042191Y-48096464D01*
X125933964Y-48204691D01*
X125848931Y-48331952D01*
X125790359Y-48473357D01*
X125768119Y-48585170D01*
X123938423Y-50414866D01*
X123914500Y-50434499D01*
X123836148Y-50529972D01*
X123787851Y-50620329D01*
X123777926Y-50638897D01*
X123742073Y-50757088D01*
X123729967Y-50880000D01*
X123733001Y-50910804D01*
X123733000Y-56619206D01*
X123729967Y-56650000D01*
X123733000Y-56680793D01*
X123742073Y-56772912D01*
X123777925Y-56891102D01*
X123836147Y-57000027D01*
X123914499Y-57095501D01*
X123938427Y-57115138D01*
X125374866Y-58551578D01*
X125394499Y-58575501D01*
X125489972Y-58653853D01*
X125598897Y-58712075D01*
X125695059Y-58741245D01*
X125713152Y-58746733D01*
X125545114Y-58816337D01*
X125335960Y-58956089D01*
X125158089Y-59133960D01*
X125018337Y-59343114D01*
X124922074Y-59575513D01*
X124880000Y-59787034D01*
X124837926Y-59575513D01*
X124741663Y-59343114D01*
X124601911Y-59133960D01*
X124424040Y-58956089D01*
X124214886Y-58816337D01*
X123982487Y-58720074D01*
X123735774Y-58671000D01*
X123484226Y-58671000D01*
X123237513Y-58720074D01*
X123005114Y-58816337D01*
X122795960Y-58956089D01*
X122618089Y-59133960D01*
X122478337Y-59343114D01*
X122382074Y-59575513D01*
X122340000Y-59787034D01*
X122297926Y-59575513D01*
X122201663Y-59343114D01*
X122061911Y-59133960D01*
X121884040Y-58956089D01*
X121674886Y-58816337D01*
X121442487Y-58720074D01*
X121195774Y-58671000D01*
X120944226Y-58671000D01*
X120697513Y-58720074D01*
X120465114Y-58816337D01*
X120255960Y-58956089D01*
X120078089Y-59133960D01*
X119938337Y-59343114D01*
X119842074Y-59575513D01*
X119809066Y-59741456D01*
X119809066Y-59098000D01*
X119800822Y-59014293D01*
X119776405Y-58933804D01*
X119736755Y-58859624D01*
X119683395Y-58794605D01*
X119618376Y-58741245D01*
X119544196Y-58701595D01*
X119463707Y-58677178D01*
X119380000Y-58668934D01*
X117680000Y-58668934D01*
X117596293Y-58677178D01*
X117515804Y-58701595D01*
X117441624Y-58741245D01*
X117376605Y-58794605D01*
X117323245Y-58859624D01*
X117283595Y-58933804D01*
X117259178Y-59014293D01*
X117250934Y-59098000D01*
X117250934Y-60798000D01*
X117259178Y-60881707D01*
X117283595Y-60962196D01*
X117323245Y-61036376D01*
X117376605Y-61101395D01*
X117441624Y-61154755D01*
X117515804Y-61194405D01*
X117596293Y-61218822D01*
X117680000Y-61227066D01*
X119380000Y-61227066D01*
X119463707Y-61218822D01*
X119544196Y-61194405D01*
X119618376Y-61154755D01*
X119683395Y-61101395D01*
X119736755Y-61036376D01*
X119776405Y-60962196D01*
X119800822Y-60881707D01*
X119809066Y-60798000D01*
X119809066Y-60154544D01*
X119842074Y-60320487D01*
X119938337Y-60552886D01*
X120078089Y-60762040D01*
X120255960Y-60939911D01*
X120465114Y-61079663D01*
X120697513Y-61175926D01*
X120944226Y-61225000D01*
X121195774Y-61225000D01*
X121442487Y-61175926D01*
X121674886Y-61079663D01*
X121884040Y-60939911D01*
X122061911Y-60762040D01*
X122201663Y-60552886D01*
X122297926Y-60320487D01*
X122340000Y-60108966D01*
X122382074Y-60320487D01*
X122478337Y-60552886D01*
X122618089Y-60762040D01*
X122795960Y-60939911D01*
X123005114Y-61079663D01*
X123237513Y-61175926D01*
X123484226Y-61225000D01*
X123735774Y-61225000D01*
X123982487Y-61175926D01*
X124214886Y-61079663D01*
X124424040Y-60939911D01*
X124601911Y-60762040D01*
X124741663Y-60552886D01*
X124837926Y-60320487D01*
X124880000Y-60108966D01*
X124922074Y-60320487D01*
X125018337Y-60552886D01*
X125158089Y-60762040D01*
X125335960Y-60939911D01*
X125545114Y-61079663D01*
X125777513Y-61175926D01*
X126024226Y-61225000D01*
X126275774Y-61225000D01*
X126522487Y-61175926D01*
X126754886Y-61079663D01*
X126964040Y-60939911D01*
X127141911Y-60762040D01*
X127281663Y-60552886D01*
X127377926Y-60320487D01*
X127427000Y-60073774D01*
X127427000Y-59822226D01*
X127377926Y-59575513D01*
X127281663Y-59343114D01*
X127141911Y-59133960D01*
X126964040Y-58956089D01*
X126754886Y-58816337D01*
X126611634Y-58757000D01*
X126960289Y-58757000D01*
X128553001Y-60349713D01*
X128553000Y-64845578D01*
X127662226Y-63954804D01*
X127641027Y-63928973D01*
X127537941Y-63844372D01*
X127420330Y-63781508D01*
X127292715Y-63742796D01*
X127193252Y-63733000D01*
X127193245Y-63733000D01*
X127160000Y-63729726D01*
X127126755Y-63733000D01*
X116390423Y-63733000D01*
X92155277Y-39497855D01*
X92134078Y-39472024D01*
X92030992Y-39387423D01*
X91913381Y-39324559D01*
X91785766Y-39285847D01*
X91686303Y-39276051D01*
X91686296Y-39276051D01*
X91653051Y-39272777D01*
X91619806Y-39276051D01*
X87894937Y-39276051D01*
X88047505Y-39194501D01*
X88188659Y-39078659D01*
X88217688Y-39043287D01*
X91413976Y-35847000D01*
X97700934Y-35847000D01*
X97700934Y-37420000D01*
X97709178Y-37503707D01*
X97733595Y-37584196D01*
X97773245Y-37658376D01*
X97826605Y-37723395D01*
X97891624Y-37776755D01*
X97965804Y-37816405D01*
X98046293Y-37840822D01*
X98130000Y-37849066D01*
X101130000Y-37849066D01*
X101213707Y-37840822D01*
X101294196Y-37816405D01*
X101368376Y-37776755D01*
X101433395Y-37723395D01*
X101486755Y-37658376D01*
X101526405Y-37584196D01*
X101550822Y-37503707D01*
X101559066Y-37420000D01*
X101559066Y-36892274D01*
X104533000Y-36892274D01*
X104533000Y-37267725D01*
X104551478Y-37455335D01*
X104624498Y-37696050D01*
X104743076Y-37917895D01*
X104902656Y-38112344D01*
X105097104Y-38271924D01*
X105318949Y-38390502D01*
X105559664Y-38463522D01*
X105810000Y-38488178D01*
X106060335Y-38463522D01*
X106301050Y-38390502D01*
X106522895Y-38271924D01*
X106717344Y-38112344D01*
X106876924Y-37917896D01*
X106995502Y-37696051D01*
X107060000Y-37483429D01*
X107124498Y-37696050D01*
X107243076Y-37917895D01*
X107402656Y-38112344D01*
X107597104Y-38271924D01*
X107818949Y-38390502D01*
X108059664Y-38463522D01*
X108310000Y-38488178D01*
X108560335Y-38463522D01*
X108801050Y-38390502D01*
X109022895Y-38271924D01*
X109217344Y-38112344D01*
X109376924Y-37917896D01*
X109495502Y-37696051D01*
X109560000Y-37483429D01*
X109624498Y-37696050D01*
X109743076Y-37917895D01*
X109902656Y-38112344D01*
X110097104Y-38271924D01*
X110318949Y-38390502D01*
X110559664Y-38463522D01*
X110810000Y-38488178D01*
X111060335Y-38463522D01*
X111301050Y-38390502D01*
X111522895Y-38271924D01*
X111717344Y-38112344D01*
X111876924Y-37917896D01*
X111995502Y-37696051D01*
X112030934Y-37579247D01*
X112030934Y-37805000D01*
X112043982Y-37937479D01*
X112082625Y-38064867D01*
X112145377Y-38182269D01*
X112229828Y-38285172D01*
X112332731Y-38369623D01*
X112450133Y-38432375D01*
X112577521Y-38471018D01*
X112710000Y-38484066D01*
X113910000Y-38484066D01*
X114042479Y-38471018D01*
X114169867Y-38432375D01*
X114287269Y-38369623D01*
X114390172Y-38285172D01*
X114474623Y-38182269D01*
X114537375Y-38064867D01*
X114576018Y-37937479D01*
X114589066Y-37805000D01*
X114589066Y-36355000D01*
X114576018Y-36222521D01*
X114537375Y-36095133D01*
X114474623Y-35977731D01*
X114390172Y-35874828D01*
X114287269Y-35790377D01*
X114169867Y-35727625D01*
X114042479Y-35688982D01*
X113910000Y-35675934D01*
X112710000Y-35675934D01*
X112577521Y-35688982D01*
X112450133Y-35727625D01*
X112332731Y-35790377D01*
X112229828Y-35874828D01*
X112145377Y-35977731D01*
X112082625Y-36095133D01*
X112043982Y-36222521D01*
X112030934Y-36355000D01*
X112030934Y-36580754D01*
X111995502Y-36463950D01*
X111876924Y-36242105D01*
X111717344Y-36047656D01*
X111522896Y-35888076D01*
X111301051Y-35769498D01*
X111060336Y-35696478D01*
X110810000Y-35671822D01*
X110559665Y-35696478D01*
X110318950Y-35769498D01*
X110097105Y-35888076D01*
X109902657Y-36047656D01*
X109743076Y-36242104D01*
X109624498Y-36463949D01*
X109560000Y-36676571D01*
X109495502Y-36463950D01*
X109376924Y-36242105D01*
X109217344Y-36047656D01*
X109022896Y-35888076D01*
X108801051Y-35769498D01*
X108560336Y-35696478D01*
X108310000Y-35671822D01*
X108059665Y-35696478D01*
X107818950Y-35769498D01*
X107597105Y-35888076D01*
X107402657Y-36047656D01*
X107243076Y-36242104D01*
X107124498Y-36463949D01*
X107060000Y-36676571D01*
X106995502Y-36463950D01*
X106876924Y-36242105D01*
X106717344Y-36047656D01*
X106522896Y-35888076D01*
X106301051Y-35769498D01*
X106060336Y-35696478D01*
X105810000Y-35671822D01*
X105559665Y-35696478D01*
X105318950Y-35769498D01*
X105097105Y-35888076D01*
X104902657Y-36047656D01*
X104743076Y-36242104D01*
X104624498Y-36463949D01*
X104551478Y-36704664D01*
X104533000Y-36892274D01*
X101559066Y-36892274D01*
X101559066Y-35643979D01*
X101638659Y-35578659D01*
X101667688Y-35543287D01*
X102713975Y-34497000D01*
X117000934Y-34497000D01*
X117000934Y-37420000D01*
%TA.AperFunction,Conductor*%
D24*
G36*
X117000934Y-37420000D02*
G01*
X117009178Y-37503707D01*
X117033595Y-37584196D01*
X117073245Y-37658376D01*
X117126605Y-37723395D01*
X117191624Y-37776755D01*
X117265804Y-37816405D01*
X117346293Y-37840822D01*
X117430000Y-37849066D01*
X120430000Y-37849066D01*
X120513707Y-37840822D01*
X120594196Y-37816405D01*
X120668376Y-37776755D01*
X120733395Y-37723395D01*
X120786755Y-37658376D01*
X120826405Y-37584196D01*
X120850822Y-37503707D01*
X120859066Y-37420000D01*
X120859066Y-35847000D01*
X121556025Y-35847000D01*
X124423000Y-38713976D01*
X124423001Y-43344463D01*
X124418516Y-43390000D01*
X124423001Y-43435537D01*
X124423001Y-43435538D01*
X124436414Y-43571724D01*
X124439208Y-43580934D01*
X124489420Y-43746463D01*
X124575499Y-43907505D01*
X124662312Y-44013287D01*
X124662317Y-44013292D01*
X124691342Y-44048659D01*
X124726708Y-44077683D01*
X126162316Y-45513292D01*
X126191341Y-45548659D01*
X126226708Y-45577684D01*
X126226711Y-45577687D01*
X126332494Y-45664501D01*
X126418573Y-45710511D01*
X126493536Y-45750580D01*
X126668276Y-45803587D01*
X126804462Y-45817000D01*
X126804474Y-45817000D01*
X126849999Y-45821484D01*
X126895524Y-45817000D01*
X131066607Y-45817000D01*
X131237104Y-45956924D01*
X131458949Y-46075502D01*
X131575753Y-46110934D01*
X131350000Y-46110934D01*
X131217521Y-46123982D01*
X131090133Y-46162625D01*
X130972731Y-46225377D01*
X130869828Y-46309828D01*
X130785377Y-46412731D01*
X130722625Y-46530133D01*
X130683982Y-46657521D01*
X130670934Y-46790000D01*
X130670934Y-47990000D01*
X130683982Y-48122479D01*
X130722625Y-48249867D01*
X130785377Y-48367269D01*
X130869828Y-48470172D01*
X130972731Y-48554623D01*
X131090133Y-48617375D01*
X131217521Y-48656018D01*
X131350000Y-48669066D01*
X132528091Y-48669066D01*
X138063000Y-54203976D01*
X138063001Y-99666023D01*
X134926025Y-102803000D01*
X124657351Y-102803000D01*
X124668048Y-102798569D01*
X124795309Y-102713536D01*
X124903536Y-102605309D01*
X124988569Y-102478048D01*
X125047141Y-102336643D01*
X125077000Y-102186528D01*
X125077000Y-102113644D01*
X125787172Y-101403472D01*
X129603000Y-101403472D01*
X129603000Y-101556528D01*
X129632859Y-101706643D01*
X129691431Y-101848048D01*
X129776464Y-101975309D01*
X129884691Y-102083536D01*
X130011952Y-102168569D01*
X130153357Y-102227141D01*
X130303472Y-102257000D01*
X130456528Y-102257000D01*
X130606643Y-102227141D01*
X130748048Y-102168569D01*
X130875309Y-102083536D01*
X130983536Y-101975309D01*
X131068569Y-101848048D01*
X131127141Y-101706643D01*
X131157000Y-101556528D01*
X131157000Y-101423645D01*
X131261149Y-101319496D01*
X131282211Y-101302211D01*
X131351191Y-101218158D01*
X131402448Y-101122263D01*
X131434012Y-101018211D01*
X131442000Y-100937109D01*
X131442000Y-100937106D01*
X131444670Y-100910000D01*
X131442000Y-100882894D01*
X131442000Y-95646845D01*
X131493536Y-95595309D01*
X131578569Y-95468048D01*
X131637141Y-95326643D01*
X131667000Y-95176528D01*
X131667000Y-95023472D01*
X131637141Y-94873357D01*
X131578569Y-94731952D01*
X131493536Y-94604691D01*
X131385309Y-94496464D01*
X131258048Y-94411431D01*
X131116643Y-94352859D01*
X130966528Y-94323000D01*
X130813472Y-94323000D01*
X130663357Y-94352859D01*
X130521952Y-94411431D01*
X130394691Y-94496464D01*
X130286464Y-94604691D01*
X130201431Y-94731952D01*
X130142859Y-94873357D01*
X130113000Y-95023472D01*
X130113000Y-95176528D01*
X130142859Y-95326643D01*
X130201431Y-95468048D01*
X130286464Y-95595309D01*
X130338000Y-95646845D01*
X130338001Y-100681354D01*
X130316355Y-100703000D01*
X130303472Y-100703000D01*
X130153357Y-100732859D01*
X130011952Y-100791431D01*
X129884691Y-100876464D01*
X129776464Y-100984691D01*
X129691431Y-101111952D01*
X129632859Y-101253357D01*
X129603000Y-101403472D01*
X125787172Y-101403472D01*
X125921149Y-101269496D01*
X125942211Y-101252211D01*
X126011191Y-101168158D01*
X126062448Y-101072263D01*
X126094012Y-100968211D01*
X126102000Y-100887109D01*
X126102000Y-100887106D01*
X126104670Y-100860000D01*
X126102000Y-100832894D01*
X126102000Y-87023472D01*
X126463000Y-87023472D01*
X126463000Y-87176528D01*
X126492859Y-87326643D01*
X126536529Y-87432071D01*
X126502859Y-87513357D01*
X126473000Y-87663472D01*
X126473000Y-87816528D01*
X126502859Y-87966643D01*
X126561431Y-88108048D01*
X126646464Y-88235309D01*
X126754691Y-88343536D01*
X126881952Y-88428569D01*
X127023357Y-88487141D01*
X127173472Y-88517000D01*
X127326528Y-88517000D01*
X127476643Y-88487141D01*
X127598915Y-88436494D01*
X127631952Y-88458569D01*
X127773357Y-88517141D01*
X127923472Y-88547000D01*
X128076528Y-88547000D01*
X128226643Y-88517141D01*
X128368048Y-88458569D01*
X128495309Y-88373536D01*
X128603536Y-88265309D01*
X128688569Y-88138048D01*
X128747141Y-87996643D01*
X128777000Y-87846528D01*
X128777000Y-87693472D01*
X128747141Y-87543357D01*
X128704329Y-87440000D01*
X128747141Y-87336643D01*
X128777000Y-87186528D01*
X128777000Y-87033472D01*
X128747141Y-86883357D01*
X128688569Y-86741952D01*
X128603536Y-86614691D01*
X128495309Y-86506464D01*
X128368048Y-86421431D01*
X128226643Y-86362859D01*
X128076528Y-86333000D01*
X127923472Y-86333000D01*
X127773357Y-86362859D01*
X127631952Y-86421431D01*
X127627483Y-86424417D01*
X127608048Y-86411431D01*
X127466643Y-86352859D01*
X127316528Y-86323000D01*
X127163472Y-86323000D01*
X127013357Y-86352859D01*
X126871952Y-86411431D01*
X126744691Y-86496464D01*
X126636464Y-86604691D01*
X126551431Y-86731952D01*
X126492859Y-86873357D01*
X126463000Y-87023472D01*
X126102000Y-87023472D01*
X126102000Y-79198644D01*
X126788646Y-78512000D01*
X128122894Y-78512000D01*
X128150000Y-78514670D01*
X128177106Y-78512000D01*
X128177109Y-78512000D01*
X128258211Y-78504012D01*
X128362263Y-78472448D01*
X128458158Y-78421191D01*
X128542211Y-78352211D01*
X128559500Y-78331144D01*
X129451154Y-77439492D01*
X129453001Y-77437976D01*
X129453000Y-84572356D01*
X128862000Y-83981356D01*
X128862000Y-82296845D01*
X128913536Y-82245309D01*
X128998569Y-82118048D01*
X129057141Y-81976643D01*
X129087000Y-81826528D01*
X129087000Y-81673472D01*
X129057141Y-81523357D01*
X128998569Y-81381952D01*
X128913536Y-81254691D01*
X128805309Y-81146464D01*
X128678048Y-81061431D01*
X128536643Y-81002859D01*
X128386528Y-80973000D01*
X128233472Y-80973000D01*
X128083357Y-81002859D01*
X127941952Y-81061431D01*
X127814691Y-81146464D01*
X127706464Y-81254691D01*
X127621431Y-81381952D01*
X127562859Y-81523357D01*
X127533000Y-81673472D01*
X127533000Y-81826528D01*
X127562859Y-81976643D01*
X127621431Y-82118048D01*
X127706464Y-82245309D01*
X127758001Y-82296846D01*
X127758000Y-84182894D01*
X127755330Y-84210000D01*
X127758000Y-84237106D01*
X127758000Y-84237108D01*
X127765988Y-84318210D01*
X127797552Y-84422262D01*
X127848809Y-84518158D01*
X127917789Y-84602211D01*
X127938856Y-84619501D01*
X130838001Y-87518647D01*
X130838000Y-91073155D01*
X130786464Y-91124691D01*
X130701431Y-91251952D01*
X130642859Y-91393357D01*
X130613000Y-91543472D01*
X130613000Y-91696528D01*
X130642859Y-91846643D01*
X130701431Y-91988048D01*
X130786464Y-92115309D01*
X130894691Y-92223536D01*
X131021952Y-92308569D01*
X131163357Y-92367141D01*
X131313472Y-92397000D01*
X131466528Y-92397000D01*
X131616643Y-92367141D01*
X131758048Y-92308569D01*
X131885309Y-92223536D01*
X131993536Y-92115309D01*
X132078569Y-91988048D01*
X132093000Y-91953208D01*
X132093000Y-94356755D01*
X132089726Y-94390000D01*
X132093000Y-94423245D01*
X132093000Y-94423251D01*
X132100211Y-94496464D01*
X132102796Y-94522714D01*
X132141508Y-94650329D01*
X132204372Y-94767940D01*
X132242723Y-94814670D01*
X132288973Y-94871026D01*
X132314800Y-94892222D01*
X132753001Y-95330424D01*
X132753000Y-100686755D01*
X132749726Y-100720000D01*
X132753000Y-100753245D01*
X132753000Y-100753251D01*
X132762796Y-100852714D01*
X132801508Y-100980329D01*
X132864372Y-101097940D01*
X132921999Y-101168158D01*
X132948973Y-101201026D01*
X132974800Y-101222222D01*
X133848797Y-102096219D01*
X133852859Y-102116643D01*
X133911431Y-102258048D01*
X133996464Y-102385309D01*
X134104691Y-102493536D01*
X134231952Y-102578569D01*
X134373357Y-102637141D01*
X134523472Y-102667000D01*
X134676528Y-102667000D01*
X134826643Y-102637141D01*
X134968048Y-102578569D01*
X135095309Y-102493536D01*
X135203536Y-102385309D01*
X135288569Y-102258048D01*
X135347141Y-102116643D01*
X135377000Y-101966528D01*
X135377000Y-101813472D01*
X135347141Y-101663357D01*
X135288569Y-101521952D01*
X135203536Y-101394691D01*
X135095309Y-101286464D01*
X134968048Y-101201431D01*
X134826643Y-101142859D01*
X134806219Y-101138797D01*
X134107000Y-100439578D01*
X134107000Y-95165845D01*
X134204691Y-95263536D01*
X134331952Y-95348569D01*
X134473357Y-95407141D01*
X134623472Y-95437000D01*
X134776528Y-95437000D01*
X134926643Y-95407141D01*
X135068048Y-95348569D01*
X135195309Y-95263536D01*
X135303536Y-95155309D01*
X135388569Y-95028048D01*
X135447141Y-94886643D01*
X135477000Y-94736528D01*
X135477000Y-94583472D01*
X135447141Y-94433357D01*
X135388569Y-94291952D01*
X135303536Y-94164691D01*
X135195309Y-94056464D01*
X135068048Y-93971431D01*
X134926643Y-93912859D01*
X134906218Y-93908796D01*
X134407000Y-93409578D01*
X134407000Y-87184423D01*
X134787778Y-87565201D01*
X134808973Y-87591027D01*
X134834799Y-87612222D01*
X134834801Y-87612224D01*
X134912059Y-87675628D01*
X134922280Y-87681091D01*
X134998076Y-87822896D01*
X135157656Y-88017344D01*
X135352104Y-88176924D01*
X135573949Y-88295502D01*
X135814664Y-88368522D01*
X136002274Y-88387000D01*
X136377726Y-88387000D01*
X136565336Y-88368522D01*
X136806051Y-88295502D01*
X137027896Y-88176924D01*
X137222344Y-88017344D01*
X137381924Y-87822896D01*
X137500502Y-87601051D01*
X137573522Y-87360336D01*
X137598178Y-87110000D01*
X137573522Y-86859664D01*
X137500502Y-86618949D01*
X137381924Y-86397104D01*
X137222344Y-86202656D01*
X137027896Y-86043076D01*
X136806051Y-85924498D01*
X136593429Y-85860000D01*
X136806051Y-85795502D01*
X137027896Y-85676924D01*
X137222344Y-85517344D01*
X137381924Y-85322896D01*
X137500502Y-85101051D01*
X137573522Y-84860336D01*
X137598178Y-84610000D01*
X137573522Y-84359664D01*
X137500502Y-84118949D01*
X137381924Y-83897104D01*
X137222344Y-83702656D01*
X137027896Y-83543076D01*
X136806051Y-83424498D01*
X136593429Y-83360000D01*
X136806051Y-83295502D01*
X137027896Y-83176924D01*
X137222344Y-83017344D01*
X137381924Y-82822896D01*
X137500502Y-82601051D01*
X137573522Y-82360336D01*
X137598178Y-82110000D01*
X137573522Y-81859664D01*
X137500502Y-81618949D01*
X137381924Y-81397104D01*
X137222344Y-81202656D01*
X137027896Y-81043076D01*
X136806051Y-80924498D01*
X136593429Y-80860000D01*
X136806051Y-80795502D01*
X137027896Y-80676924D01*
X137222344Y-80517344D01*
X137381924Y-80322896D01*
X137500502Y-80101051D01*
X137573522Y-79860336D01*
X137598178Y-79610000D01*
X137573522Y-79359664D01*
X137500502Y-79118949D01*
X137381924Y-78897104D01*
X137222344Y-78702656D01*
X137027896Y-78543076D01*
X136806051Y-78424498D01*
X136593429Y-78360000D01*
X136806051Y-78295502D01*
X137027896Y-78176924D01*
X137222344Y-78017344D01*
X137381924Y-77822896D01*
X137500502Y-77601051D01*
X137573522Y-77360336D01*
X137598178Y-77110000D01*
X137573522Y-76859664D01*
X137500502Y-76618949D01*
X137381924Y-76397104D01*
X137222344Y-76202656D01*
X137027896Y-76043076D01*
X136806051Y-75924498D01*
X136593429Y-75860000D01*
X136806051Y-75795502D01*
X137027896Y-75676924D01*
X137222344Y-75517344D01*
X137381924Y-75322896D01*
X137500502Y-75101051D01*
X137573522Y-74860336D01*
X137598178Y-74610000D01*
X137573522Y-74359664D01*
X137500502Y-74118949D01*
X137381924Y-73897104D01*
X137222344Y-73702656D01*
X137027896Y-73543076D01*
X136806051Y-73424498D01*
X136593429Y-73360000D01*
X136806051Y-73295502D01*
X137027896Y-73176924D01*
X137222344Y-73017344D01*
X137381924Y-72822896D01*
X137500502Y-72601051D01*
X137573522Y-72360336D01*
X137598178Y-72110000D01*
X137573522Y-71859664D01*
X137500502Y-71618949D01*
X137381924Y-71397104D01*
X137222344Y-71202656D01*
X137027896Y-71043076D01*
X136806051Y-70924498D01*
X136593429Y-70860000D01*
X136806051Y-70795502D01*
X137027896Y-70676924D01*
X137222344Y-70517344D01*
X137381924Y-70322896D01*
X137500502Y-70101051D01*
X137573522Y-69860336D01*
X137598178Y-69610000D01*
X137573522Y-69359664D01*
X137500502Y-69118949D01*
X137381924Y-68897104D01*
X137222344Y-68702656D01*
X137027896Y-68543076D01*
X136806051Y-68424498D01*
X136593429Y-68360000D01*
X136806051Y-68295502D01*
X137027896Y-68176924D01*
X137222344Y-68017344D01*
X137381924Y-67822896D01*
X137500502Y-67601051D01*
X137573522Y-67360336D01*
X137598178Y-67110000D01*
X137573522Y-66859664D01*
X137500502Y-66618949D01*
X137381924Y-66397104D01*
X137222344Y-66202656D01*
X137027896Y-66043076D01*
X136806051Y-65924498D01*
X136593429Y-65860000D01*
X136806051Y-65795502D01*
X137027896Y-65676924D01*
X137222344Y-65517344D01*
X137381924Y-65322896D01*
X137500502Y-65101051D01*
X137573522Y-64860336D01*
X137598178Y-64610000D01*
X137573522Y-64359664D01*
X137500502Y-64118949D01*
X137381924Y-63897104D01*
X137222344Y-63702656D01*
X137027896Y-63543076D01*
X136806051Y-63424498D01*
X136593429Y-63360000D01*
X136806051Y-63295502D01*
X137027896Y-63176924D01*
X137222344Y-63017344D01*
X137381924Y-62822896D01*
X137500502Y-62601051D01*
X137573522Y-62360336D01*
X137598178Y-62110000D01*
X137573522Y-61859664D01*
X137500502Y-61618949D01*
X137381924Y-61397104D01*
X137222344Y-61202656D01*
X137027896Y-61043076D01*
X136806051Y-60924498D01*
X136593429Y-60860000D01*
X136806051Y-60795502D01*
X137027896Y-60676924D01*
X137222344Y-60517344D01*
X137381924Y-60322896D01*
X137500502Y-60101051D01*
X137573522Y-59860336D01*
X137598178Y-59610000D01*
X137573522Y-59359664D01*
X137500502Y-59118949D01*
X137381924Y-58897104D01*
X137222344Y-58702656D01*
X137027896Y-58543076D01*
X136806051Y-58424498D01*
X136565336Y-58351478D01*
X136377726Y-58333000D01*
X136002274Y-58333000D01*
X135814664Y-58351478D01*
X135573949Y-58424498D01*
X135352104Y-58543076D01*
X135157656Y-58702656D01*
X134998076Y-58897104D01*
X134879498Y-59118949D01*
X134806478Y-59359664D01*
X134781822Y-59610000D01*
X134806478Y-59860336D01*
X134879498Y-60101051D01*
X134998076Y-60322896D01*
X135157656Y-60517344D01*
X135352104Y-60676924D01*
X135573949Y-60795502D01*
X135786571Y-60860000D01*
X135573949Y-60924498D01*
X135352104Y-61043076D01*
X135157656Y-61202656D01*
X134998076Y-61397104D01*
X134978889Y-61433000D01*
X133893252Y-61433000D01*
X133860000Y-61429725D01*
X133826748Y-61433000D01*
X133727285Y-61442796D01*
X133599670Y-61481508D01*
X133482059Y-61544372D01*
X133378973Y-61628973D01*
X133357778Y-61654799D01*
X130733781Y-64278796D01*
X130713357Y-64282859D01*
X130571952Y-64341431D01*
X130444691Y-64426464D01*
X130336464Y-64534691D01*
X130251431Y-64661952D01*
X130192859Y-64803357D01*
X130163000Y-64953472D01*
X130163000Y-65106528D01*
X130177838Y-65181127D01*
X129807000Y-64810289D01*
X129807000Y-60120794D01*
X129810033Y-60090000D01*
X129797927Y-59967087D01*
X129762075Y-59848896D01*
X129703853Y-59739972D01*
X129661240Y-59688048D01*
X129625501Y-59644499D01*
X129601578Y-59624866D01*
X127685138Y-57708427D01*
X127665501Y-57684499D01*
X127570028Y-57606147D01*
X127461103Y-57547925D01*
X127365966Y-57519066D01*
X129400000Y-57519066D01*
X129483707Y-57510822D01*
X129564196Y-57486405D01*
X129638376Y-57446755D01*
X129703395Y-57393395D01*
X129756755Y-57328376D01*
X129796405Y-57254196D01*
X129820822Y-57173707D01*
X129829066Y-57090000D01*
X129829066Y-54090000D01*
X129820822Y-54006293D01*
X129796405Y-53925804D01*
X129756755Y-53851624D01*
X129703395Y-53786605D01*
X129638376Y-53733245D01*
X129564196Y-53693595D01*
X129483707Y-53669178D01*
X129400000Y-53660934D01*
X126400000Y-53660934D01*
X126316293Y-53669178D01*
X126235804Y-53693595D01*
X126161624Y-53733245D01*
X126096605Y-53786605D01*
X126043245Y-53851624D01*
X126003595Y-53925804D01*
X125979178Y-54006293D01*
X125970934Y-54090000D01*
X125970934Y-57090000D01*
X125979178Y-57173707D01*
X126003595Y-57254196D01*
X126043245Y-57328376D01*
X126096605Y-57393395D01*
X126161624Y-57446755D01*
X126235804Y-57486405D01*
X126290508Y-57503000D01*
X126099712Y-57503000D01*
X124987000Y-56390289D01*
X124987000Y-51139711D01*
X126658572Y-49468140D01*
X126764143Y-49447141D01*
X126905548Y-49388569D01*
X127032809Y-49303536D01*
X127141036Y-49195309D01*
X127226069Y-49068048D01*
X127284641Y-48926643D01*
X127314500Y-48776528D01*
X127314500Y-48623472D01*
X127284641Y-48473357D01*
X127226069Y-48331952D01*
X127141036Y-48204691D01*
X127032809Y-48096464D01*
X126905548Y-48011431D01*
X126764143Y-47952859D01*
X126614028Y-47923000D01*
X126460972Y-47923000D01*
X126310857Y-47952859D01*
X126169452Y-48011431D01*
X126042191Y-48096464D01*
X125933964Y-48204691D01*
X125848931Y-48331952D01*
X125790359Y-48473357D01*
X125768119Y-48585170D01*
X123938423Y-50414866D01*
X123914500Y-50434499D01*
X123836148Y-50529972D01*
X123787851Y-50620329D01*
X123777926Y-50638897D01*
X123742073Y-50757088D01*
X123729967Y-50880000D01*
X123733001Y-50910804D01*
X123733000Y-56619206D01*
X123729967Y-56650000D01*
X123733000Y-56680793D01*
X123742073Y-56772912D01*
X123777925Y-56891102D01*
X123836147Y-57000027D01*
X123914499Y-57095501D01*
X123938427Y-57115138D01*
X125374866Y-58551578D01*
X125394499Y-58575501D01*
X125489972Y-58653853D01*
X125598897Y-58712075D01*
X125695059Y-58741245D01*
X125713152Y-58746733D01*
X125545114Y-58816337D01*
X125335960Y-58956089D01*
X125158089Y-59133960D01*
X125018337Y-59343114D01*
X124922074Y-59575513D01*
X124880000Y-59787034D01*
X124837926Y-59575513D01*
X124741663Y-59343114D01*
X124601911Y-59133960D01*
X124424040Y-58956089D01*
X124214886Y-58816337D01*
X123982487Y-58720074D01*
X123735774Y-58671000D01*
X123484226Y-58671000D01*
X123237513Y-58720074D01*
X123005114Y-58816337D01*
X122795960Y-58956089D01*
X122618089Y-59133960D01*
X122478337Y-59343114D01*
X122382074Y-59575513D01*
X122340000Y-59787034D01*
X122297926Y-59575513D01*
X122201663Y-59343114D01*
X122061911Y-59133960D01*
X121884040Y-58956089D01*
X121674886Y-58816337D01*
X121442487Y-58720074D01*
X121195774Y-58671000D01*
X120944226Y-58671000D01*
X120697513Y-58720074D01*
X120465114Y-58816337D01*
X120255960Y-58956089D01*
X120078089Y-59133960D01*
X119938337Y-59343114D01*
X119842074Y-59575513D01*
X119809066Y-59741456D01*
X119809066Y-59098000D01*
X119800822Y-59014293D01*
X119776405Y-58933804D01*
X119736755Y-58859624D01*
X119683395Y-58794605D01*
X119618376Y-58741245D01*
X119544196Y-58701595D01*
X119463707Y-58677178D01*
X119380000Y-58668934D01*
X117680000Y-58668934D01*
X117596293Y-58677178D01*
X117515804Y-58701595D01*
X117441624Y-58741245D01*
X117376605Y-58794605D01*
X117323245Y-58859624D01*
X117283595Y-58933804D01*
X117259178Y-59014293D01*
X117250934Y-59098000D01*
X117250934Y-60798000D01*
X117259178Y-60881707D01*
X117283595Y-60962196D01*
X117323245Y-61036376D01*
X117376605Y-61101395D01*
X117441624Y-61154755D01*
X117515804Y-61194405D01*
X117596293Y-61218822D01*
X117680000Y-61227066D01*
X119380000Y-61227066D01*
X119463707Y-61218822D01*
X119544196Y-61194405D01*
X119618376Y-61154755D01*
X119683395Y-61101395D01*
X119736755Y-61036376D01*
X119776405Y-60962196D01*
X119800822Y-60881707D01*
X119809066Y-60798000D01*
X119809066Y-60154544D01*
X119842074Y-60320487D01*
X119938337Y-60552886D01*
X120078089Y-60762040D01*
X120255960Y-60939911D01*
X120465114Y-61079663D01*
X120697513Y-61175926D01*
X120944226Y-61225000D01*
X121195774Y-61225000D01*
X121442487Y-61175926D01*
X121674886Y-61079663D01*
X121884040Y-60939911D01*
X122061911Y-60762040D01*
X122201663Y-60552886D01*
X122297926Y-60320487D01*
X122340000Y-60108966D01*
X122382074Y-60320487D01*
X122478337Y-60552886D01*
X122618089Y-60762040D01*
X122795960Y-60939911D01*
X123005114Y-61079663D01*
X123237513Y-61175926D01*
X123484226Y-61225000D01*
X123735774Y-61225000D01*
X123982487Y-61175926D01*
X124214886Y-61079663D01*
X124424040Y-60939911D01*
X124601911Y-60762040D01*
X124741663Y-60552886D01*
X124837926Y-60320487D01*
X124880000Y-60108966D01*
X124922074Y-60320487D01*
X125018337Y-60552886D01*
X125158089Y-60762040D01*
X125335960Y-60939911D01*
X125545114Y-61079663D01*
X125777513Y-61175926D01*
X126024226Y-61225000D01*
X126275774Y-61225000D01*
X126522487Y-61175926D01*
X126754886Y-61079663D01*
X126964040Y-60939911D01*
X127141911Y-60762040D01*
X127281663Y-60552886D01*
X127377926Y-60320487D01*
X127427000Y-60073774D01*
X127427000Y-59822226D01*
X127377926Y-59575513D01*
X127281663Y-59343114D01*
X127141911Y-59133960D01*
X126964040Y-58956089D01*
X126754886Y-58816337D01*
X126611634Y-58757000D01*
X126960289Y-58757000D01*
X128553001Y-60349713D01*
X128553000Y-64845578D01*
X127662226Y-63954804D01*
X127641027Y-63928973D01*
X127537941Y-63844372D01*
X127420330Y-63781508D01*
X127292715Y-63742796D01*
X127193252Y-63733000D01*
X127193245Y-63733000D01*
X127160000Y-63729726D01*
X127126755Y-63733000D01*
X116390423Y-63733000D01*
X92155277Y-39497855D01*
X92134078Y-39472024D01*
X92030992Y-39387423D01*
X91913381Y-39324559D01*
X91785766Y-39285847D01*
X91686303Y-39276051D01*
X91686296Y-39276051D01*
X91653051Y-39272777D01*
X91619806Y-39276051D01*
X87894937Y-39276051D01*
X88047505Y-39194501D01*
X88188659Y-39078659D01*
X88217688Y-39043287D01*
X91413976Y-35847000D01*
X97700934Y-35847000D01*
X97700934Y-37420000D01*
X97709178Y-37503707D01*
X97733595Y-37584196D01*
X97773245Y-37658376D01*
X97826605Y-37723395D01*
X97891624Y-37776755D01*
X97965804Y-37816405D01*
X98046293Y-37840822D01*
X98130000Y-37849066D01*
X101130000Y-37849066D01*
X101213707Y-37840822D01*
X101294196Y-37816405D01*
X101368376Y-37776755D01*
X101433395Y-37723395D01*
X101486755Y-37658376D01*
X101526405Y-37584196D01*
X101550822Y-37503707D01*
X101559066Y-37420000D01*
X101559066Y-36892274D01*
X104533000Y-36892274D01*
X104533000Y-37267725D01*
X104551478Y-37455335D01*
X104624498Y-37696050D01*
X104743076Y-37917895D01*
X104902656Y-38112344D01*
X105097104Y-38271924D01*
X105318949Y-38390502D01*
X105559664Y-38463522D01*
X105810000Y-38488178D01*
X106060335Y-38463522D01*
X106301050Y-38390502D01*
X106522895Y-38271924D01*
X106717344Y-38112344D01*
X106876924Y-37917896D01*
X106995502Y-37696051D01*
X107060000Y-37483429D01*
X107124498Y-37696050D01*
X107243076Y-37917895D01*
X107402656Y-38112344D01*
X107597104Y-38271924D01*
X107818949Y-38390502D01*
X108059664Y-38463522D01*
X108310000Y-38488178D01*
X108560335Y-38463522D01*
X108801050Y-38390502D01*
X109022895Y-38271924D01*
X109217344Y-38112344D01*
X109376924Y-37917896D01*
X109495502Y-37696051D01*
X109560000Y-37483429D01*
X109624498Y-37696050D01*
X109743076Y-37917895D01*
X109902656Y-38112344D01*
X110097104Y-38271924D01*
X110318949Y-38390502D01*
X110559664Y-38463522D01*
X110810000Y-38488178D01*
X111060335Y-38463522D01*
X111301050Y-38390502D01*
X111522895Y-38271924D01*
X111717344Y-38112344D01*
X111876924Y-37917896D01*
X111995502Y-37696051D01*
X112030934Y-37579247D01*
X112030934Y-37805000D01*
X112043982Y-37937479D01*
X112082625Y-38064867D01*
X112145377Y-38182269D01*
X112229828Y-38285172D01*
X112332731Y-38369623D01*
X112450133Y-38432375D01*
X112577521Y-38471018D01*
X112710000Y-38484066D01*
X113910000Y-38484066D01*
X114042479Y-38471018D01*
X114169867Y-38432375D01*
X114287269Y-38369623D01*
X114390172Y-38285172D01*
X114474623Y-38182269D01*
X114537375Y-38064867D01*
X114576018Y-37937479D01*
X114589066Y-37805000D01*
X114589066Y-36355000D01*
X114576018Y-36222521D01*
X114537375Y-36095133D01*
X114474623Y-35977731D01*
X114390172Y-35874828D01*
X114287269Y-35790377D01*
X114169867Y-35727625D01*
X114042479Y-35688982D01*
X113910000Y-35675934D01*
X112710000Y-35675934D01*
X112577521Y-35688982D01*
X112450133Y-35727625D01*
X112332731Y-35790377D01*
X112229828Y-35874828D01*
X112145377Y-35977731D01*
X112082625Y-36095133D01*
X112043982Y-36222521D01*
X112030934Y-36355000D01*
X112030934Y-36580754D01*
X111995502Y-36463950D01*
X111876924Y-36242105D01*
X111717344Y-36047656D01*
X111522896Y-35888076D01*
X111301051Y-35769498D01*
X111060336Y-35696478D01*
X110810000Y-35671822D01*
X110559665Y-35696478D01*
X110318950Y-35769498D01*
X110097105Y-35888076D01*
X109902657Y-36047656D01*
X109743076Y-36242104D01*
X109624498Y-36463949D01*
X109560000Y-36676571D01*
X109495502Y-36463950D01*
X109376924Y-36242105D01*
X109217344Y-36047656D01*
X109022896Y-35888076D01*
X108801051Y-35769498D01*
X108560336Y-35696478D01*
X108310000Y-35671822D01*
X108059665Y-35696478D01*
X107818950Y-35769498D01*
X107597105Y-35888076D01*
X107402657Y-36047656D01*
X107243076Y-36242104D01*
X107124498Y-36463949D01*
X107060000Y-36676571D01*
X106995502Y-36463950D01*
X106876924Y-36242105D01*
X106717344Y-36047656D01*
X106522896Y-35888076D01*
X106301051Y-35769498D01*
X106060336Y-35696478D01*
X105810000Y-35671822D01*
X105559665Y-35696478D01*
X105318950Y-35769498D01*
X105097105Y-35888076D01*
X104902657Y-36047656D01*
X104743076Y-36242104D01*
X104624498Y-36463949D01*
X104551478Y-36704664D01*
X104533000Y-36892274D01*
X101559066Y-36892274D01*
X101559066Y-35643979D01*
X101638659Y-35578659D01*
X101667688Y-35543287D01*
X102713975Y-34497000D01*
X117000934Y-34497000D01*
X117000934Y-37420000D01*
G37*
%TD.AperFunction*%
D23*
X97700934Y-33993000D02*
X91075524Y-33993000D01*
X91029999Y-33988516D01*
X90984474Y-33993000D01*
X90984462Y-33993000D01*
X90848276Y-34006413D01*
X90673536Y-34059420D01*
X90598573Y-34099489D01*
X90512494Y-34145499D01*
X90406711Y-34232313D01*
X90406708Y-34232316D01*
X90371341Y-34261341D01*
X90342316Y-34296708D01*
X87146025Y-37493000D01*
X82251876Y-37493000D01*
X82259066Y-37420000D01*
X82259066Y-32527000D01*
X97700934Y-32527000D01*
X97700934Y-33993000D01*
%TA.AperFunction,Conductor*%
D24*
G36*
X97700934Y-33993000D02*
G01*
X91075524Y-33993000D01*
X91029999Y-33988516D01*
X90984474Y-33993000D01*
X90984462Y-33993000D01*
X90848276Y-34006413D01*
X90673536Y-34059420D01*
X90598573Y-34099489D01*
X90512494Y-34145499D01*
X90406711Y-34232313D01*
X90406708Y-34232316D01*
X90371341Y-34261341D01*
X90342316Y-34296708D01*
X87146025Y-37493000D01*
X82251876Y-37493000D01*
X82259066Y-37420000D01*
X82259066Y-32527000D01*
X97700934Y-32527000D01*
X97700934Y-33993000D01*
G37*
%TD.AperFunction*%
%TD*%
M02*
