M48
; DRILL file {KiCad (5.1.9)-1} date 11/29/21 10:56:05
; FORMAT={-:-/ absolute / metric / decimal}
; #@! TF.CreationDate,2021-11-29T10:56:05+07:00
; #@! TF.GenerationSoftware,Kicad,Pcbnew,(5.1.9)-1
; #@! TF.FileFunction,Plated,1,4,PTH
FMAT,2
METRIC
T1C0.300
T2C0.950
T3C1.000
T4C1.190
%
G90
G05
T1
X73.47Y-69.67
X73.47Y-70.77
X73.5Y-68.54
X73.51Y-66.27
X73.51Y-67.37
X73.54Y-65.14
X74.48Y-95.46
X74.48Y-96.56
X74.51Y-94.33
X74.75Y-77.9
X74.91Y-69.67
X74.91Y-70.77
X74.94Y-68.54
X74.95Y-66.27
X74.95Y-67.37
X74.98Y-65.14
X75.92Y-95.46
X75.92Y-96.56
X75.95Y-94.33
X76.34Y-69.7
X76.34Y-70.8
X76.37Y-68.57
X76.38Y-66.3
X76.38Y-67.4
X76.41Y-65.17
X77.35Y-95.49
X77.35Y-96.59
X77.38Y-94.36
X84.36Y-46.98
X84.36Y-82.61
X84.37Y-81.78
X84.38Y-79.34
X84.38Y-80.14
X84.39Y-80.96
X84.44Y-45.99
X84.48Y-43.12
X84.48Y-84.23
X84.49Y-83.41
X84.49Y-85.02
X84.49Y-87.29
X84.49Y-88.93
X84.49Y-89.75
X84.49Y-90.57
X84.49Y-91.38
X84.5Y-88.11
X84.77Y-45.01
X85.23Y-43.15
X85.74Y-45.0
X86.02Y-43.13
X86.275Y-78.44
X86.38Y-90.28
X86.39Y-89.4
X86.7Y-45.03
X86.82Y-90.98
X87.1Y-43.16
X87.44Y-91.62
X87.67Y-45.01
X88.03Y-66.77
X88.14Y-43.16
X88.6Y-45.13
X88.75Y-74.85
X89.12Y-43.21
X89.16Y-45.99
X90.23Y-78.38
X90.26Y-64.82
X90.337Y-72.45
X91.37Y-58.34
X91.99Y-93.39
X91.99Y-94.31
X92.01Y-92.45
X92.03Y-91.55
X92.13Y-97.37
X92.2Y-96.39
X92.22Y-95.46
X92.32Y-61.3
X93.34Y-99.89
X93.38Y-101.17
X93.42Y-102.44
X94.41Y-50.15
X94.48Y-48.71
X94.96Y-94.26
X95.7Y-88.22
X95.75Y-89.67
X96.56Y-59.32
X96.8Y-52.49
X96.81Y-88.2
X97.17Y-53.77
X97.55Y-103.26
X97.83Y-89.8
X97.94Y-88.2
X98.51Y-41.87
X98.51Y-42.97
X98.54Y-40.74
X99.37Y-99.96
X99.95Y-41.87
X99.95Y-42.97
X99.98Y-40.74
X101.38Y-41.9
X101.38Y-43.0
X101.41Y-40.77
X103.87Y-80.27
X104.42Y-86.36
X104.5Y-85.47
X104.53Y-68.19
X104.56Y-69.97
X104.59Y-71.81
X104.73Y-73.73
X105.43Y-84.35
X105.46Y-83.58
X105.858Y-79.041
X105.87Y-79.83
X106.14Y-68.19
X106.17Y-69.97
X106.2Y-71.81
X106.34Y-73.73
X107.66Y-68.17
X107.69Y-69.95
X107.72Y-71.79
X107.86Y-73.71
X109.09Y-84.68
X109.12Y-85.57
X109.24Y-68.22
X109.24Y-81.93
X109.24Y-82.86
X109.26Y-79.94
X109.26Y-83.74
X109.262Y-79.041
X109.27Y-70.0
X109.3Y-71.84
X109.44Y-73.76
X110.02Y-97.48
X110.99Y-68.22
X111.02Y-70.0
X111.05Y-71.84
X111.19Y-73.76
X113.1Y-90.75
X113.1Y-91.85
X113.13Y-89.62
X114.14Y-104.7
X114.54Y-90.75
X114.54Y-91.85
X114.57Y-89.62
X114.8Y-79.21
X115.97Y-90.78
X115.97Y-91.88
X116.0Y-89.65
X116.85Y-71.15
X116.85Y-72.25
X116.88Y-70.02
X117.37Y-48.74
X117.37Y-49.84
X117.4Y-47.61
X117.41Y-86.57
X117.43Y-41.94
X117.43Y-43.04
X117.46Y-40.81
X117.55Y-81.04
X118.29Y-71.15
X118.29Y-72.25
X118.32Y-70.02
X118.81Y-48.74
X118.81Y-49.84
X118.84Y-47.61
X118.87Y-41.94
X118.87Y-43.04
X118.9Y-40.81
X119.13Y-82.39
X119.72Y-71.18
X119.72Y-72.28
X119.75Y-70.05
X119.88Y-82.38
X120.24Y-48.77
X120.24Y-49.87
X120.27Y-47.64
X120.3Y-41.97
X120.3Y-43.07
X120.33Y-40.84
X121.89Y-108.8
X121.93Y-107.29
X121.93Y-108.03
X123.26Y-83.49
X124.3Y-102.11
X124.39Y-79.67
X126.537Y-48.7
X126.61Y-86.23
X126.94Y-79.47
X126.96Y-80.42
X127.24Y-87.1
X127.25Y-87.74
X127.56Y-76.54
X127.96Y-79.49
X127.99Y-80.37
X128.0Y-87.11
X128.0Y-87.77
X128.31Y-81.75
X129.08Y-74.41
X130.38Y-101.48
X130.89Y-95.1
X130.94Y-65.03
X131.39Y-91.62
X134.25Y-76.05
X134.6Y-101.89
X134.7Y-94.66
T2
X96.92Y-61.71
X96.92Y-64.21
X96.92Y-66.71
X96.92Y-69.21
X96.92Y-71.71
X96.92Y-74.21
X105.81Y-37.08
X108.31Y-37.08
X110.81Y-37.08
X113.31Y-37.08
X136.19Y-59.61
X136.19Y-62.11
X136.19Y-64.61
X136.19Y-67.11
X136.19Y-69.61
X136.19Y-72.11
X136.19Y-74.61
X136.19Y-77.11
X136.19Y-79.61
X136.19Y-82.11
X136.19Y-84.61
X136.19Y-87.11
X136.19Y-89.61
X136.19Y-92.11
T3
X75.44Y-51.59
X75.44Y-54.13
X75.44Y-56.67
X77.98Y-51.59
X77.98Y-54.13
X77.98Y-56.67
X83.9Y-34.59
X83.9Y-55.59
X118.53Y-59.948
X121.07Y-59.948
X123.61Y-59.948
X126.15Y-59.948
X127.9Y-34.59
X127.9Y-55.59
X132.1Y-44.89
X132.1Y-47.39
X137.45Y-44.86
X137.45Y-47.36
T4
X73.19Y-42.86
X73.19Y-45.4
X73.19Y-47.94
X73.2Y-34.41
X73.2Y-36.95
X73.2Y-39.49
T0
M30
