%TF.GenerationSoftware,KiCad,Pcbnew,(5.1.9)-1*%
%TF.CreationDate,2021-11-29T10:56:02+07:00*%
%TF.ProjectId,Hackathon_PCB,4861636b-6174-4686-9f6e-5f5043422e6b,rev?*%
%TF.SameCoordinates,Original*%
%TF.FileFunction,Legend,Bot*%
%TF.FilePolarity,Positive*%
%FSLAX46Y46*%
G04 Gerber Fmt 4.6, Leading zero omitted, Abs format (unit mm)*
G04 Created by KiCad (PCBNEW (5.1.9)-1) date 2021-11-29 10:56:02*
%MOMM*%
%LPD*%
G01*
G04 APERTURE LIST*
%ADD10C,0.127000*%
%ADD11C,0.120000*%
%ADD12C,0.150000*%
G04 APERTURE END LIST*
D10*
%TO.C,BT1*%
X69785000Y-32720000D02*
X69785000Y-110420000D01*
X69785000Y-110420000D02*
X129475000Y-110420000D01*
X129475000Y-110420000D02*
X129475000Y-32720000D01*
X129475000Y-32720000D02*
X69785000Y-32720000D01*
X98630000Y-30570000D02*
X100630000Y-30570000D01*
X99630000Y-29570000D02*
X99630000Y-31570000D01*
X99630000Y-111570000D02*
X99630000Y-113570000D01*
D11*
%TO.C,J1*%
X138940000Y-94960000D02*
X137690000Y-94960000D01*
X138940000Y-93710000D02*
X138940000Y-94960000D01*
X133440000Y-57810000D02*
X133440000Y-75860000D01*
X136390000Y-57810000D02*
X133440000Y-57810000D01*
X136390000Y-57060000D02*
X136390000Y-57810000D01*
X133440000Y-93910000D02*
X133440000Y-75860000D01*
X136390000Y-93910000D02*
X133440000Y-93910000D01*
X136390000Y-94660000D02*
X136390000Y-93910000D01*
X138640000Y-57060000D02*
X138640000Y-58860000D01*
X137890000Y-57060000D02*
X138640000Y-57060000D01*
X137890000Y-58860000D02*
X137890000Y-57060000D01*
X138640000Y-58860000D02*
X137890000Y-58860000D01*
X138640000Y-92860000D02*
X138640000Y-94660000D01*
X137890000Y-92860000D02*
X138640000Y-92860000D01*
X137890000Y-94660000D02*
X137890000Y-92860000D01*
X138640000Y-94660000D02*
X137890000Y-94660000D01*
X138640000Y-60360000D02*
X138640000Y-91360000D01*
X137890000Y-60360000D02*
X138640000Y-60360000D01*
X137890000Y-91360000D02*
X137890000Y-60360000D01*
X138640000Y-91360000D02*
X137890000Y-91360000D01*
X138650000Y-57050000D02*
X138650000Y-94670000D01*
X132680000Y-57050000D02*
X138650000Y-57050000D01*
X132680000Y-94670000D02*
X132680000Y-57050000D01*
X138650000Y-94670000D02*
X132680000Y-94670000D01*
%TO.C,BT1*%
D12*
X68773571Y-34959285D02*
X68821190Y-35102142D01*
X68868809Y-35149761D01*
X68964047Y-35197380D01*
X69106904Y-35197380D01*
X69202142Y-35149761D01*
X69249761Y-35102142D01*
X69297380Y-35006904D01*
X69297380Y-34625952D01*
X68297380Y-34625952D01*
X68297380Y-34959285D01*
X68345000Y-35054523D01*
X68392619Y-35102142D01*
X68487857Y-35149761D01*
X68583095Y-35149761D01*
X68678333Y-35102142D01*
X68725952Y-35054523D01*
X68773571Y-34959285D01*
X68773571Y-34625952D01*
X68297380Y-35483095D02*
X68297380Y-36054523D01*
X69297380Y-35768809D02*
X68297380Y-35768809D01*
X69297380Y-36911666D02*
X69297380Y-36340238D01*
X69297380Y-36625952D02*
X68297380Y-36625952D01*
X68440238Y-36530714D01*
X68535476Y-36435476D01*
X68583095Y-36340238D01*
%TO.C,J1*%
X139192380Y-75526666D02*
X139906666Y-75526666D01*
X140049523Y-75479047D01*
X140144761Y-75383809D01*
X140192380Y-75240952D01*
X140192380Y-75145714D01*
X140192380Y-76526666D02*
X140192380Y-75955238D01*
X140192380Y-76240952D02*
X139192380Y-76240952D01*
X139335238Y-76145714D01*
X139430476Y-76050476D01*
X139478095Y-75955238D01*
%TD*%
M02*
