%TF.GenerationSoftware,KiCad,Pcbnew,(5.1.9)-1*%
%TF.CreationDate,2021-11-29T10:56:02+07:00*%
%TF.ProjectId,Hackathon_PCB,4861636b-6174-4686-9f6e-5f5043422e6b,rev?*%
%TF.SameCoordinates,Original*%
%TF.FileFunction,Paste,Top*%
%TF.FilePolarity,Positive*%
%FSLAX46Y46*%
G04 Gerber Fmt 4.6, Leading zero omitted, Abs format (unit mm)*
G04 Created by KiCad (PCBNEW (5.1.9)-1) date 2021-11-29 10:56:02*
%MOMM*%
%LPD*%
G01*
G04 APERTURE LIST*
%ADD10R,3.000000X4.800000*%
%ADD11R,3.200000X2.300000*%
%ADD12R,2.000000X0.600000*%
%ADD13R,0.650000X1.060000*%
%ADD14R,0.900000X0.800000*%
%ADD15R,1.700000X1.000000*%
%ADD16R,1.700000X1.100000*%
%ADD17R,1.200000X2.000000*%
%ADD18R,1.066800X2.159000*%
%ADD19R,10.800000X10.410000*%
%ADD20R,1.250000X0.750000*%
%ADD21R,1.200000X1.000000*%
%ADD22R,1.200000X2.500000*%
G04 APERTURE END LIST*
D10*
%TO.C,J9*%
X78944000Y-106510500D03*
X72644000Y-82310500D03*
X78944000Y-82310500D03*
X72644000Y-106510500D03*
D11*
X127300000Y-109070000D03*
X127300000Y-79770000D03*
D12*
X127900000Y-106220000D03*
X119700000Y-105820000D03*
X127900000Y-105420000D03*
X119700000Y-105020000D03*
X127900000Y-104620000D03*
X119700000Y-104220000D03*
X127900000Y-103820000D03*
X119700000Y-103420000D03*
X127900000Y-103020000D03*
X119700000Y-102620000D03*
X127900000Y-102220000D03*
X119700000Y-101820000D03*
X127900000Y-101420000D03*
X119700000Y-101020000D03*
X127900000Y-100620000D03*
X119700000Y-100220000D03*
X127900000Y-96620000D03*
X119700000Y-96220000D03*
X127900000Y-95820000D03*
X119700000Y-95420000D03*
X127900000Y-95020000D03*
X119700000Y-94620000D03*
X127900000Y-94220000D03*
X119700000Y-93820000D03*
X127900000Y-93420000D03*
X119700000Y-93020000D03*
X127900000Y-92620000D03*
X119700000Y-92220000D03*
X127900000Y-91820000D03*
X119700000Y-91420000D03*
X127900000Y-91020000D03*
X119700000Y-90620000D03*
X127900000Y-90220000D03*
X119700000Y-89820000D03*
X127900000Y-89420000D03*
X119700000Y-89020000D03*
X127900000Y-88620000D03*
X119700000Y-88220000D03*
X127900000Y-87820000D03*
X119700000Y-87420000D03*
X127900000Y-87020000D03*
X119700000Y-86620000D03*
X127900000Y-86220000D03*
X119700000Y-85820000D03*
X127900000Y-85420000D03*
X119700000Y-85020000D03*
X127900000Y-84620000D03*
X119700000Y-84220000D03*
X127900000Y-83820000D03*
X119700000Y-83420000D03*
X127900000Y-83020000D03*
X119700000Y-82620000D03*
%TD*%
%TO.C,C1*%
G36*
G01*
X89820000Y-67295000D02*
X89820000Y-66345000D01*
G75*
G02*
X90070000Y-66095000I250000J0D01*
G01*
X90570000Y-66095000D01*
G75*
G02*
X90820000Y-66345000I0J-250000D01*
G01*
X90820000Y-67295000D01*
G75*
G02*
X90570000Y-67545000I-250000J0D01*
G01*
X90070000Y-67545000D01*
G75*
G02*
X89820000Y-67295000I0J250000D01*
G01*
G37*
G36*
G01*
X91720000Y-67295000D02*
X91720000Y-66345000D01*
G75*
G02*
X91970000Y-66095000I250000J0D01*
G01*
X92470000Y-66095000D01*
G75*
G02*
X92720000Y-66345000I0J-250000D01*
G01*
X92720000Y-67295000D01*
G75*
G02*
X92470000Y-67545000I-250000J0D01*
G01*
X91970000Y-67545000D01*
G75*
G02*
X91720000Y-67295000I0J250000D01*
G01*
G37*
%TD*%
%TO.C,C2*%
G36*
G01*
X89730000Y-78855000D02*
X89730000Y-77905000D01*
G75*
G02*
X89980000Y-77655000I250000J0D01*
G01*
X90480000Y-77655000D01*
G75*
G02*
X90730000Y-77905000I0J-250000D01*
G01*
X90730000Y-78855000D01*
G75*
G02*
X90480000Y-79105000I-250000J0D01*
G01*
X89980000Y-79105000D01*
G75*
G02*
X89730000Y-78855000I0J250000D01*
G01*
G37*
G36*
G01*
X91630000Y-78855000D02*
X91630000Y-77905000D01*
G75*
G02*
X91880000Y-77655000I250000J0D01*
G01*
X92380000Y-77655000D01*
G75*
G02*
X92630000Y-77905000I0J-250000D01*
G01*
X92630000Y-78855000D01*
G75*
G02*
X92380000Y-79105000I-250000J0D01*
G01*
X91880000Y-79105000D01*
G75*
G02*
X91630000Y-78855000I0J250000D01*
G01*
G37*
%TD*%
%TO.C,C3*%
G36*
G01*
X83950000Y-91915001D02*
X83950000Y-91064999D01*
G75*
G02*
X84199999Y-90815000I249999J0D01*
G01*
X85100001Y-90815000D01*
G75*
G02*
X85350000Y-91064999I0J-249999D01*
G01*
X85350000Y-91915001D01*
G75*
G02*
X85100001Y-92165000I-249999J0D01*
G01*
X84199999Y-92165000D01*
G75*
G02*
X83950000Y-91915001I0J249999D01*
G01*
G37*
G36*
G01*
X86650000Y-91915001D02*
X86650000Y-91064999D01*
G75*
G02*
X86899999Y-90815000I249999J0D01*
G01*
X87800001Y-90815000D01*
G75*
G02*
X88050000Y-91064999I0J-249999D01*
G01*
X88050000Y-91915001D01*
G75*
G02*
X87800001Y-92165000I-249999J0D01*
G01*
X86899999Y-92165000D01*
G75*
G02*
X86650000Y-91915001I0J249999D01*
G01*
G37*
%TD*%
%TO.C,C4*%
G36*
G01*
X85870000Y-89845000D02*
X85870000Y-88895000D01*
G75*
G02*
X86120000Y-88645000I250000J0D01*
G01*
X86620000Y-88645000D01*
G75*
G02*
X86870000Y-88895000I0J-250000D01*
G01*
X86870000Y-89845000D01*
G75*
G02*
X86620000Y-90095000I-250000J0D01*
G01*
X86120000Y-90095000D01*
G75*
G02*
X85870000Y-89845000I0J250000D01*
G01*
G37*
G36*
G01*
X83970000Y-89845000D02*
X83970000Y-88895000D01*
G75*
G02*
X84220000Y-88645000I250000J0D01*
G01*
X84720000Y-88645000D01*
G75*
G02*
X84970000Y-88895000I0J-250000D01*
G01*
X84970000Y-89845000D01*
G75*
G02*
X84720000Y-90095000I-250000J0D01*
G01*
X84220000Y-90095000D01*
G75*
G02*
X83970000Y-89845000I0J250000D01*
G01*
G37*
%TD*%
%TO.C,C5*%
G36*
G01*
X130255000Y-102490000D02*
X131205000Y-102490000D01*
G75*
G02*
X131455000Y-102740000I0J-250000D01*
G01*
X131455000Y-103240000D01*
G75*
G02*
X131205000Y-103490000I-250000J0D01*
G01*
X130255000Y-103490000D01*
G75*
G02*
X130005000Y-103240000I0J250000D01*
G01*
X130005000Y-102740000D01*
G75*
G02*
X130255000Y-102490000I250000J0D01*
G01*
G37*
G36*
G01*
X130255000Y-104390000D02*
X131205000Y-104390000D01*
G75*
G02*
X131455000Y-104640000I0J-250000D01*
G01*
X131455000Y-105140000D01*
G75*
G02*
X131205000Y-105390000I-250000J0D01*
G01*
X130255000Y-105390000D01*
G75*
G02*
X130005000Y-105140000I0J250000D01*
G01*
X130005000Y-104640000D01*
G75*
G02*
X130255000Y-104390000I250000J0D01*
G01*
G37*
%TD*%
%TO.C,C6*%
G36*
G01*
X130475000Y-98610000D02*
X131425000Y-98610000D01*
G75*
G02*
X131675000Y-98860000I0J-250000D01*
G01*
X131675000Y-99360000D01*
G75*
G02*
X131425000Y-99610000I-250000J0D01*
G01*
X130475000Y-99610000D01*
G75*
G02*
X130225000Y-99360000I0J250000D01*
G01*
X130225000Y-98860000D01*
G75*
G02*
X130475000Y-98610000I250000J0D01*
G01*
G37*
G36*
G01*
X130475000Y-96710000D02*
X131425000Y-96710000D01*
G75*
G02*
X131675000Y-96960000I0J-250000D01*
G01*
X131675000Y-97460000D01*
G75*
G02*
X131425000Y-97710000I-250000J0D01*
G01*
X130475000Y-97710000D01*
G75*
G02*
X130225000Y-97460000I0J250000D01*
G01*
X130225000Y-96960000D01*
G75*
G02*
X130475000Y-96710000I250000J0D01*
G01*
G37*
%TD*%
%TO.C,C7*%
G36*
G01*
X83780000Y-83335001D02*
X83780000Y-82484999D01*
G75*
G02*
X84029999Y-82235000I249999J0D01*
G01*
X84930001Y-82235000D01*
G75*
G02*
X85180000Y-82484999I0J-249999D01*
G01*
X85180000Y-83335001D01*
G75*
G02*
X84930001Y-83585000I-249999J0D01*
G01*
X84029999Y-83585000D01*
G75*
G02*
X83780000Y-83335001I0J249999D01*
G01*
G37*
G36*
G01*
X86480000Y-83335001D02*
X86480000Y-82484999D01*
G75*
G02*
X86729999Y-82235000I249999J0D01*
G01*
X87630001Y-82235000D01*
G75*
G02*
X87880000Y-82484999I0J-249999D01*
G01*
X87880000Y-83335001D01*
G75*
G02*
X87630001Y-83585000I-249999J0D01*
G01*
X86729999Y-83585000D01*
G75*
G02*
X86480000Y-83335001I0J249999D01*
G01*
G37*
%TD*%
%TO.C,C8*%
G36*
G01*
X83850000Y-81265000D02*
X83850000Y-80315000D01*
G75*
G02*
X84100000Y-80065000I250000J0D01*
G01*
X84600000Y-80065000D01*
G75*
G02*
X84850000Y-80315000I0J-250000D01*
G01*
X84850000Y-81265000D01*
G75*
G02*
X84600000Y-81515000I-250000J0D01*
G01*
X84100000Y-81515000D01*
G75*
G02*
X83850000Y-81265000I0J250000D01*
G01*
G37*
G36*
G01*
X85750000Y-81265000D02*
X85750000Y-80315000D01*
G75*
G02*
X86000000Y-80065000I250000J0D01*
G01*
X86500000Y-80065000D01*
G75*
G02*
X86750000Y-80315000I0J-250000D01*
G01*
X86750000Y-81265000D01*
G75*
G02*
X86500000Y-81515000I-250000J0D01*
G01*
X86000000Y-81515000D01*
G75*
G02*
X85750000Y-81265000I0J250000D01*
G01*
G37*
%TD*%
%TO.C,C9*%
G36*
G01*
X91680000Y-74985000D02*
X91680000Y-74035000D01*
G75*
G02*
X91930000Y-73785000I250000J0D01*
G01*
X92430000Y-73785000D01*
G75*
G02*
X92680000Y-74035000I0J-250000D01*
G01*
X92680000Y-74985000D01*
G75*
G02*
X92430000Y-75235000I-250000J0D01*
G01*
X91930000Y-75235000D01*
G75*
G02*
X91680000Y-74985000I0J250000D01*
G01*
G37*
G36*
G01*
X89780000Y-74985000D02*
X89780000Y-74035000D01*
G75*
G02*
X90030000Y-73785000I250000J0D01*
G01*
X90530000Y-73785000D01*
G75*
G02*
X90780000Y-74035000I0J-250000D01*
G01*
X90780000Y-74985000D01*
G75*
G02*
X90530000Y-75235000I-250000J0D01*
G01*
X90030000Y-75235000D01*
G75*
G02*
X89780000Y-74985000I0J250000D01*
G01*
G37*
%TD*%
%TO.C,C10*%
G36*
G01*
X83810000Y-47795000D02*
X83810000Y-46845000D01*
G75*
G02*
X84060000Y-46595000I250000J0D01*
G01*
X84560000Y-46595000D01*
G75*
G02*
X84810000Y-46845000I0J-250000D01*
G01*
X84810000Y-47795000D01*
G75*
G02*
X84560000Y-48045000I-250000J0D01*
G01*
X84060000Y-48045000D01*
G75*
G02*
X83810000Y-47795000I0J250000D01*
G01*
G37*
G36*
G01*
X81910000Y-47795000D02*
X81910000Y-46845000D01*
G75*
G02*
X82160000Y-46595000I250000J0D01*
G01*
X82660000Y-46595000D01*
G75*
G02*
X82910000Y-46845000I0J-250000D01*
G01*
X82910000Y-47795000D01*
G75*
G02*
X82660000Y-48045000I-250000J0D01*
G01*
X82160000Y-48045000D01*
G75*
G02*
X81910000Y-47795000I0J250000D01*
G01*
G37*
%TD*%
%TO.C,C11*%
G36*
G01*
X86935000Y-37830000D02*
X85985000Y-37830000D01*
G75*
G02*
X85735000Y-37580000I0J250000D01*
G01*
X85735000Y-37080000D01*
G75*
G02*
X85985000Y-36830000I250000J0D01*
G01*
X86935000Y-36830000D01*
G75*
G02*
X87185000Y-37080000I0J-250000D01*
G01*
X87185000Y-37580000D01*
G75*
G02*
X86935000Y-37830000I-250000J0D01*
G01*
G37*
G36*
G01*
X86935000Y-35930000D02*
X85985000Y-35930000D01*
G75*
G02*
X85735000Y-35680000I0J250000D01*
G01*
X85735000Y-35180000D01*
G75*
G02*
X85985000Y-34930000I250000J0D01*
G01*
X86935000Y-34930000D01*
G75*
G02*
X87185000Y-35180000I0J-250000D01*
G01*
X87185000Y-35680000D01*
G75*
G02*
X86935000Y-35930000I-250000J0D01*
G01*
G37*
%TD*%
%TO.C,C12*%
G36*
G01*
X88764999Y-45320000D02*
X89615001Y-45320000D01*
G75*
G02*
X89865000Y-45569999I0J-249999D01*
G01*
X89865000Y-46470001D01*
G75*
G02*
X89615001Y-46720000I-249999J0D01*
G01*
X88764999Y-46720000D01*
G75*
G02*
X88515000Y-46470001I0J249999D01*
G01*
X88515000Y-45569999D01*
G75*
G02*
X88764999Y-45320000I249999J0D01*
G01*
G37*
G36*
G01*
X88764999Y-42620000D02*
X89615001Y-42620000D01*
G75*
G02*
X89865000Y-42869999I0J-249999D01*
G01*
X89865000Y-43770001D01*
G75*
G02*
X89615001Y-44020000I-249999J0D01*
G01*
X88764999Y-44020000D01*
G75*
G02*
X88515000Y-43770001I0J249999D01*
G01*
X88515000Y-42869999D01*
G75*
G02*
X88764999Y-42620000I249999J0D01*
G01*
G37*
%TD*%
%TO.C,C13*%
G36*
G01*
X86525000Y-44510000D02*
X87475000Y-44510000D01*
G75*
G02*
X87725000Y-44760000I0J-250000D01*
G01*
X87725000Y-45260000D01*
G75*
G02*
X87475000Y-45510000I-250000J0D01*
G01*
X86525000Y-45510000D01*
G75*
G02*
X86275000Y-45260000I0J250000D01*
G01*
X86275000Y-44760000D01*
G75*
G02*
X86525000Y-44510000I250000J0D01*
G01*
G37*
G36*
G01*
X86525000Y-42610000D02*
X87475000Y-42610000D01*
G75*
G02*
X87725000Y-42860000I0J-250000D01*
G01*
X87725000Y-43360000D01*
G75*
G02*
X87475000Y-43610000I-250000J0D01*
G01*
X86525000Y-43610000D01*
G75*
G02*
X86275000Y-43360000I0J250000D01*
G01*
X86275000Y-42860000D01*
G75*
G02*
X86525000Y-42610000I250000J0D01*
G01*
G37*
%TD*%
%TO.C,C14*%
G36*
G01*
X84325000Y-42600000D02*
X85275000Y-42600000D01*
G75*
G02*
X85525000Y-42850000I0J-250000D01*
G01*
X85525000Y-43350000D01*
G75*
G02*
X85275000Y-43600000I-250000J0D01*
G01*
X84325000Y-43600000D01*
G75*
G02*
X84075000Y-43350000I0J250000D01*
G01*
X84075000Y-42850000D01*
G75*
G02*
X84325000Y-42600000I250000J0D01*
G01*
G37*
G36*
G01*
X84325000Y-44500000D02*
X85275000Y-44500000D01*
G75*
G02*
X85525000Y-44750000I0J-250000D01*
G01*
X85525000Y-45250000D01*
G75*
G02*
X85275000Y-45500000I-250000J0D01*
G01*
X84325000Y-45500000D01*
G75*
G02*
X84075000Y-45250000I0J250000D01*
G01*
X84075000Y-44750000D01*
G75*
G02*
X84325000Y-44500000I250000J0D01*
G01*
G37*
%TD*%
%TO.C,F1*%
G36*
G01*
X77372500Y-41520002D02*
X77372500Y-38619998D01*
G75*
G02*
X77622498Y-38370000I249998J0D01*
G01*
X78247502Y-38370000D01*
G75*
G02*
X78497500Y-38619998I0J-249998D01*
G01*
X78497500Y-41520002D01*
G75*
G02*
X78247502Y-41770000I-249998J0D01*
G01*
X77622498Y-41770000D01*
G75*
G02*
X77372500Y-41520002I0J249998D01*
G01*
G37*
G36*
G01*
X81647500Y-41520002D02*
X81647500Y-38619998D01*
G75*
G02*
X81897498Y-38370000I249998J0D01*
G01*
X82522502Y-38370000D01*
G75*
G02*
X82772500Y-38619998I0J-249998D01*
G01*
X82772500Y-41520002D01*
G75*
G02*
X82522502Y-41770000I-249998J0D01*
G01*
X81897498Y-41770000D01*
G75*
G02*
X81647500Y-41520002I0J249998D01*
G01*
G37*
%TD*%
%TO.C,F2*%
G36*
G01*
X81637500Y-45640002D02*
X81637500Y-42739998D01*
G75*
G02*
X81887498Y-42490000I249998J0D01*
G01*
X82512502Y-42490000D01*
G75*
G02*
X82762500Y-42739998I0J-249998D01*
G01*
X82762500Y-45640002D01*
G75*
G02*
X82512502Y-45890000I-249998J0D01*
G01*
X81887498Y-45890000D01*
G75*
G02*
X81637500Y-45640002I0J249998D01*
G01*
G37*
G36*
G01*
X77362500Y-45640002D02*
X77362500Y-42739998D01*
G75*
G02*
X77612498Y-42490000I249998J0D01*
G01*
X78237502Y-42490000D01*
G75*
G02*
X78487500Y-42739998I0J-249998D01*
G01*
X78487500Y-45640002D01*
G75*
G02*
X78237502Y-45890000I-249998J0D01*
G01*
X77612498Y-45890000D01*
G75*
G02*
X77362500Y-45640002I0J249998D01*
G01*
G37*
%TD*%
%TO.C,F3*%
G36*
G01*
X84032500Y-41550002D02*
X84032500Y-38649998D01*
G75*
G02*
X84282498Y-38400000I249998J0D01*
G01*
X84907502Y-38400000D01*
G75*
G02*
X85157500Y-38649998I0J-249998D01*
G01*
X85157500Y-41550002D01*
G75*
G02*
X84907502Y-41800000I-249998J0D01*
G01*
X84282498Y-41800000D01*
G75*
G02*
X84032500Y-41550002I0J249998D01*
G01*
G37*
G36*
G01*
X88307500Y-41550002D02*
X88307500Y-38649998D01*
G75*
G02*
X88557498Y-38400000I249998J0D01*
G01*
X89182502Y-38400000D01*
G75*
G02*
X89432500Y-38649998I0J-249998D01*
G01*
X89432500Y-41550002D01*
G75*
G02*
X89182502Y-41800000I-249998J0D01*
G01*
X88557498Y-41800000D01*
G75*
G02*
X88307500Y-41550002I0J249998D01*
G01*
G37*
%TD*%
D13*
%TO.C,IC1*%
X84490000Y-87220000D03*
X85440000Y-87220000D03*
X86390000Y-87220000D03*
X86390000Y-85020000D03*
X84490000Y-85020000D03*
%TD*%
D14*
%TO.C,Q1*%
X90260000Y-69640000D03*
X92260000Y-68690000D03*
X92260000Y-70590000D03*
%TD*%
%TO.C,Q2*%
X92210000Y-62940000D03*
X92210000Y-61040000D03*
X90210000Y-61990000D03*
%TD*%
%TO.C,R1*%
G36*
G01*
X91650000Y-72900002D02*
X91650000Y-71999998D01*
G75*
G02*
X91899998Y-71750000I249998J0D01*
G01*
X92425002Y-71750000D01*
G75*
G02*
X92675000Y-71999998I0J-249998D01*
G01*
X92675000Y-72900002D01*
G75*
G02*
X92425002Y-73150000I-249998J0D01*
G01*
X91899998Y-73150000D01*
G75*
G02*
X91650000Y-72900002I0J249998D01*
G01*
G37*
G36*
G01*
X89825000Y-72900002D02*
X89825000Y-71999998D01*
G75*
G02*
X90074998Y-71750000I249998J0D01*
G01*
X90600002Y-71750000D01*
G75*
G02*
X90850000Y-71999998I0J-249998D01*
G01*
X90850000Y-72900002D01*
G75*
G02*
X90600002Y-73150000I-249998J0D01*
G01*
X90074998Y-73150000D01*
G75*
G02*
X89825000Y-72900002I0J249998D01*
G01*
G37*
%TD*%
%TO.C,R2*%
G36*
G01*
X89832500Y-65280002D02*
X89832500Y-64379998D01*
G75*
G02*
X90082498Y-64130000I249998J0D01*
G01*
X90607502Y-64130000D01*
G75*
G02*
X90857500Y-64379998I0J-249998D01*
G01*
X90857500Y-65280002D01*
G75*
G02*
X90607502Y-65530000I-249998J0D01*
G01*
X90082498Y-65530000D01*
G75*
G02*
X89832500Y-65280002I0J249998D01*
G01*
G37*
G36*
G01*
X91657500Y-65280002D02*
X91657500Y-64379998D01*
G75*
G02*
X91907498Y-64130000I249998J0D01*
G01*
X92432502Y-64130000D01*
G75*
G02*
X92682500Y-64379998I0J-249998D01*
G01*
X92682500Y-65280002D01*
G75*
G02*
X92432502Y-65530000I-249998J0D01*
G01*
X91907498Y-65530000D01*
G75*
G02*
X91657500Y-65280002I0J249998D01*
G01*
G37*
%TD*%
%TO.C,R3*%
G36*
G01*
X86787500Y-77989998D02*
X86787500Y-78890002D01*
G75*
G02*
X86537502Y-79140000I-249998J0D01*
G01*
X86012498Y-79140000D01*
G75*
G02*
X85762500Y-78890002I0J249998D01*
G01*
X85762500Y-77989998D01*
G75*
G02*
X86012498Y-77740000I249998J0D01*
G01*
X86537502Y-77740000D01*
G75*
G02*
X86787500Y-77989998I0J-249998D01*
G01*
G37*
G36*
G01*
X84962500Y-77989998D02*
X84962500Y-78890002D01*
G75*
G02*
X84712502Y-79140000I-249998J0D01*
G01*
X84187498Y-79140000D01*
G75*
G02*
X83937500Y-78890002I0J249998D01*
G01*
X83937500Y-77989998D01*
G75*
G02*
X84187498Y-77740000I249998J0D01*
G01*
X84712502Y-77740000D01*
G75*
G02*
X84962500Y-77989998I0J-249998D01*
G01*
G37*
%TD*%
%TO.C,R4*%
G36*
G01*
X87749998Y-89017500D02*
X88650002Y-89017500D01*
G75*
G02*
X88900000Y-89267498I0J-249998D01*
G01*
X88900000Y-89792502D01*
G75*
G02*
X88650002Y-90042500I-249998J0D01*
G01*
X87749998Y-90042500D01*
G75*
G02*
X87500000Y-89792502I0J249998D01*
G01*
X87500000Y-89267498D01*
G75*
G02*
X87749998Y-89017500I249998J0D01*
G01*
G37*
G36*
G01*
X87749998Y-87192500D02*
X88650002Y-87192500D01*
G75*
G02*
X88900000Y-87442498I0J-249998D01*
G01*
X88900000Y-87967502D01*
G75*
G02*
X88650002Y-88217500I-249998J0D01*
G01*
X87749998Y-88217500D01*
G75*
G02*
X87500000Y-87967502I0J249998D01*
G01*
X87500000Y-87442498D01*
G75*
G02*
X87749998Y-87192500I249998J0D01*
G01*
G37*
%TD*%
%TO.C,R5*%
G36*
G01*
X70920002Y-57327500D02*
X70019998Y-57327500D01*
G75*
G02*
X69770000Y-57077502I0J249998D01*
G01*
X69770000Y-56552498D01*
G75*
G02*
X70019998Y-56302500I249998J0D01*
G01*
X70920002Y-56302500D01*
G75*
G02*
X71170000Y-56552498I0J-249998D01*
G01*
X71170000Y-57077502D01*
G75*
G02*
X70920002Y-57327500I-249998J0D01*
G01*
G37*
G36*
G01*
X70920002Y-59152500D02*
X70019998Y-59152500D01*
G75*
G02*
X69770000Y-58902502I0J249998D01*
G01*
X69770000Y-58377498D01*
G75*
G02*
X70019998Y-58127500I249998J0D01*
G01*
X70920002Y-58127500D01*
G75*
G02*
X71170000Y-58377498I0J-249998D01*
G01*
X71170000Y-58902502D01*
G75*
G02*
X70920002Y-59152500I-249998J0D01*
G01*
G37*
%TD*%
%TO.C,R6*%
G36*
G01*
X72019998Y-56237500D02*
X72920002Y-56237500D01*
G75*
G02*
X73170000Y-56487498I0J-249998D01*
G01*
X73170000Y-57012502D01*
G75*
G02*
X72920002Y-57262500I-249998J0D01*
G01*
X72019998Y-57262500D01*
G75*
G02*
X71770000Y-57012502I0J249998D01*
G01*
X71770000Y-56487498D01*
G75*
G02*
X72019998Y-56237500I249998J0D01*
G01*
G37*
G36*
G01*
X72019998Y-58062500D02*
X72920002Y-58062500D01*
G75*
G02*
X73170000Y-58312498I0J-249998D01*
G01*
X73170000Y-58837502D01*
G75*
G02*
X72920002Y-59087500I-249998J0D01*
G01*
X72019998Y-59087500D01*
G75*
G02*
X71770000Y-58837502I0J249998D01*
G01*
X71770000Y-58312498D01*
G75*
G02*
X72019998Y-58062500I249998J0D01*
G01*
G37*
%TD*%
D15*
%TO.C,S1*%
X132250000Y-101990000D03*
X138550000Y-101990000D03*
X138550000Y-105790000D03*
X132250000Y-105790000D03*
%TD*%
%TO.C,S2*%
X132400000Y-100120000D03*
X138700000Y-100120000D03*
X138700000Y-96320000D03*
X132400000Y-96320000D03*
%TD*%
D16*
%TO.C,U1*%
X85930000Y-63310000D03*
X85930000Y-65310000D03*
X85930000Y-67310000D03*
X85930000Y-69310000D03*
X85930000Y-71310000D03*
X85930000Y-73310000D03*
D17*
X70430000Y-60810000D03*
X72430000Y-60810000D03*
X74430000Y-60810000D03*
X76430000Y-60810000D03*
X78430000Y-60810000D03*
X80430000Y-60810000D03*
X82430000Y-60810000D03*
X84430000Y-60810000D03*
X84430000Y-75810000D03*
X82430000Y-75810000D03*
X80430000Y-75810000D03*
X78430000Y-75810000D03*
X76430000Y-75810000D03*
X74430000Y-75810000D03*
X72430000Y-75810000D03*
X70430000Y-75810000D03*
%TD*%
%TO.C,C15*%
G36*
G01*
X94420000Y-91105000D02*
X94420000Y-92055000D01*
G75*
G02*
X94170000Y-92305000I-250000J0D01*
G01*
X93670000Y-92305000D01*
G75*
G02*
X93420000Y-92055000I0J250000D01*
G01*
X93420000Y-91105000D01*
G75*
G02*
X93670000Y-90855000I250000J0D01*
G01*
X94170000Y-90855000D01*
G75*
G02*
X94420000Y-91105000I0J-250000D01*
G01*
G37*
G36*
G01*
X92520000Y-91105000D02*
X92520000Y-92055000D01*
G75*
G02*
X92270000Y-92305000I-250000J0D01*
G01*
X91770000Y-92305000D01*
G75*
G02*
X91520000Y-92055000I0J250000D01*
G01*
X91520000Y-91105000D01*
G75*
G02*
X91770000Y-90855000I250000J0D01*
G01*
X92270000Y-90855000D01*
G75*
G02*
X92520000Y-91105000I0J-250000D01*
G01*
G37*
%TD*%
%TO.C,C16*%
G36*
G01*
X103770000Y-86455001D02*
X103770000Y-85604999D01*
G75*
G02*
X104019999Y-85355000I249999J0D01*
G01*
X104920001Y-85355000D01*
G75*
G02*
X105170000Y-85604999I0J-249999D01*
G01*
X105170000Y-86455001D01*
G75*
G02*
X104920001Y-86705000I-249999J0D01*
G01*
X104019999Y-86705000D01*
G75*
G02*
X103770000Y-86455001I0J249999D01*
G01*
G37*
G36*
G01*
X106470000Y-86455001D02*
X106470000Y-85604999D01*
G75*
G02*
X106719999Y-85355000I249999J0D01*
G01*
X107620001Y-85355000D01*
G75*
G02*
X107870000Y-85604999I0J-249999D01*
G01*
X107870000Y-86455001D01*
G75*
G02*
X107620001Y-86705000I-249999J0D01*
G01*
X106719999Y-86705000D01*
G75*
G02*
X106470000Y-86455001I0J249999D01*
G01*
G37*
%TD*%
%TO.C,C17*%
G36*
G01*
X106840000Y-84425000D02*
X106840000Y-83475000D01*
G75*
G02*
X107090000Y-83225000I250000J0D01*
G01*
X107590000Y-83225000D01*
G75*
G02*
X107840000Y-83475000I0J-250000D01*
G01*
X107840000Y-84425000D01*
G75*
G02*
X107590000Y-84675000I-250000J0D01*
G01*
X107090000Y-84675000D01*
G75*
G02*
X106840000Y-84425000I0J250000D01*
G01*
G37*
G36*
G01*
X104940000Y-84425000D02*
X104940000Y-83475000D01*
G75*
G02*
X105190000Y-83225000I250000J0D01*
G01*
X105690000Y-83225000D01*
G75*
G02*
X105940000Y-83475000I0J-250000D01*
G01*
X105940000Y-84425000D01*
G75*
G02*
X105690000Y-84675000I-250000J0D01*
G01*
X105190000Y-84675000D01*
G75*
G02*
X104940000Y-84425000I0J250000D01*
G01*
G37*
%TD*%
%TO.C,C18*%
G36*
G01*
X111270000Y-84425001D02*
X111270000Y-83574999D01*
G75*
G02*
X111519999Y-83325000I249999J0D01*
G01*
X112420001Y-83325000D01*
G75*
G02*
X112670000Y-83574999I0J-249999D01*
G01*
X112670000Y-84425001D01*
G75*
G02*
X112420001Y-84675000I-249999J0D01*
G01*
X111519999Y-84675000D01*
G75*
G02*
X111270000Y-84425001I0J249999D01*
G01*
G37*
G36*
G01*
X108570000Y-84425001D02*
X108570000Y-83574999D01*
G75*
G02*
X108819999Y-83325000I249999J0D01*
G01*
X109720001Y-83325000D01*
G75*
G02*
X109970000Y-83574999I0J-249999D01*
G01*
X109970000Y-84425001D01*
G75*
G02*
X109720001Y-84675000I-249999J0D01*
G01*
X108819999Y-84675000D01*
G75*
G02*
X108570000Y-84425001I0J249999D01*
G01*
G37*
%TD*%
%TO.C,C19*%
G36*
G01*
X108580000Y-86575000D02*
X108580000Y-85625000D01*
G75*
G02*
X108830000Y-85375000I250000J0D01*
G01*
X109330000Y-85375000D01*
G75*
G02*
X109580000Y-85625000I0J-250000D01*
G01*
X109580000Y-86575000D01*
G75*
G02*
X109330000Y-86825000I-250000J0D01*
G01*
X108830000Y-86825000D01*
G75*
G02*
X108580000Y-86575000I0J250000D01*
G01*
G37*
G36*
G01*
X110480000Y-86575000D02*
X110480000Y-85625000D01*
G75*
G02*
X110730000Y-85375000I250000J0D01*
G01*
X111230000Y-85375000D01*
G75*
G02*
X111480000Y-85625000I0J-250000D01*
G01*
X111480000Y-86575000D01*
G75*
G02*
X111230000Y-86825000I-250000J0D01*
G01*
X110730000Y-86825000D01*
G75*
G02*
X110480000Y-86575000I0J250000D01*
G01*
G37*
%TD*%
%TO.C,D1*%
G36*
G01*
X131393750Y-85607500D02*
X132306250Y-85607500D01*
G75*
G02*
X132550000Y-85851250I0J-243750D01*
G01*
X132550000Y-86338750D01*
G75*
G02*
X132306250Y-86582500I-243750J0D01*
G01*
X131393750Y-86582500D01*
G75*
G02*
X131150000Y-86338750I0J243750D01*
G01*
X131150000Y-85851250D01*
G75*
G02*
X131393750Y-85607500I243750J0D01*
G01*
G37*
G36*
G01*
X131393750Y-87482500D02*
X132306250Y-87482500D01*
G75*
G02*
X132550000Y-87726250I0J-243750D01*
G01*
X132550000Y-88213750D01*
G75*
G02*
X132306250Y-88457500I-243750J0D01*
G01*
X131393750Y-88457500D01*
G75*
G02*
X131150000Y-88213750I0J243750D01*
G01*
X131150000Y-87726250D01*
G75*
G02*
X131393750Y-87482500I243750J0D01*
G01*
G37*
%TD*%
D18*
%TO.C,IC2*%
X110963600Y-79041200D03*
X109261800Y-79041200D03*
X107560000Y-79041200D03*
X105858200Y-79041200D03*
X104156400Y-79041200D03*
D19*
X107560000Y-70710000D03*
%TD*%
D20*
%TO.C,J10*%
X92190000Y-102440000D03*
X92190000Y-99900000D03*
X92190000Y-97360000D03*
X92190000Y-103710000D03*
X92190000Y-101170000D03*
X92190000Y-98630000D03*
D21*
X103015000Y-107940000D03*
X103015000Y-93640000D03*
%TD*%
%TO.C,R7*%
G36*
G01*
X130102500Y-74860002D02*
X130102500Y-73959998D01*
G75*
G02*
X130352498Y-73710000I249998J0D01*
G01*
X130877502Y-73710000D01*
G75*
G02*
X131127500Y-73959998I0J-249998D01*
G01*
X131127500Y-74860002D01*
G75*
G02*
X130877502Y-75110000I-249998J0D01*
G01*
X130352498Y-75110000D01*
G75*
G02*
X130102500Y-74860002I0J249998D01*
G01*
G37*
G36*
G01*
X131927500Y-74860002D02*
X131927500Y-73959998D01*
G75*
G02*
X132177498Y-73710000I249998J0D01*
G01*
X132702502Y-73710000D01*
G75*
G02*
X132952500Y-73959998I0J-249998D01*
G01*
X132952500Y-74860002D01*
G75*
G02*
X132702502Y-75110000I-249998J0D01*
G01*
X132177498Y-75110000D01*
G75*
G02*
X131927500Y-74860002I0J249998D01*
G01*
G37*
%TD*%
%TO.C,R8*%
G36*
G01*
X131967500Y-80810002D02*
X131967500Y-79909998D01*
G75*
G02*
X132217498Y-79660000I249998J0D01*
G01*
X132742502Y-79660000D01*
G75*
G02*
X132992500Y-79909998I0J-249998D01*
G01*
X132992500Y-80810002D01*
G75*
G02*
X132742502Y-81060000I-249998J0D01*
G01*
X132217498Y-81060000D01*
G75*
G02*
X131967500Y-80810002I0J249998D01*
G01*
G37*
G36*
G01*
X130142500Y-80810002D02*
X130142500Y-79909998D01*
G75*
G02*
X130392498Y-79660000I249998J0D01*
G01*
X130917502Y-79660000D01*
G75*
G02*
X131167500Y-79909998I0J-249998D01*
G01*
X131167500Y-80810002D01*
G75*
G02*
X130917502Y-81060000I-249998J0D01*
G01*
X130392498Y-81060000D01*
G75*
G02*
X130142500Y-80810002I0J249998D01*
G01*
G37*
%TD*%
%TO.C,R9*%
G36*
G01*
X130152500Y-82780002D02*
X130152500Y-81879998D01*
G75*
G02*
X130402498Y-81630000I249998J0D01*
G01*
X130927502Y-81630000D01*
G75*
G02*
X131177500Y-81879998I0J-249998D01*
G01*
X131177500Y-82780002D01*
G75*
G02*
X130927502Y-83030000I-249998J0D01*
G01*
X130402498Y-83030000D01*
G75*
G02*
X130152500Y-82780002I0J249998D01*
G01*
G37*
G36*
G01*
X131977500Y-82780002D02*
X131977500Y-81879998D01*
G75*
G02*
X132227498Y-81630000I249998J0D01*
G01*
X132752502Y-81630000D01*
G75*
G02*
X133002500Y-81879998I0J-249998D01*
G01*
X133002500Y-82780002D01*
G75*
G02*
X132752502Y-83030000I-249998J0D01*
G01*
X132227498Y-83030000D01*
G75*
G02*
X131977500Y-82780002I0J249998D01*
G01*
G37*
%TD*%
%TO.C,R10*%
G36*
G01*
X131132500Y-75959998D02*
X131132500Y-76860002D01*
G75*
G02*
X130882502Y-77110000I-249998J0D01*
G01*
X130357498Y-77110000D01*
G75*
G02*
X130107500Y-76860002I0J249998D01*
G01*
X130107500Y-75959998D01*
G75*
G02*
X130357498Y-75710000I249998J0D01*
G01*
X130882502Y-75710000D01*
G75*
G02*
X131132500Y-75959998I0J-249998D01*
G01*
G37*
G36*
G01*
X132957500Y-75959998D02*
X132957500Y-76860002D01*
G75*
G02*
X132707502Y-77110000I-249998J0D01*
G01*
X132182498Y-77110000D01*
G75*
G02*
X131932500Y-76860002I0J249998D01*
G01*
X131932500Y-75959998D01*
G75*
G02*
X132182498Y-75710000I249998J0D01*
G01*
X132707502Y-75710000D01*
G75*
G02*
X132957500Y-75959998I0J-249998D01*
G01*
G37*
%TD*%
%TO.C,R11*%
G36*
G01*
X132972500Y-77939998D02*
X132972500Y-78840002D01*
G75*
G02*
X132722502Y-79090000I-249998J0D01*
G01*
X132197498Y-79090000D01*
G75*
G02*
X131947500Y-78840002I0J249998D01*
G01*
X131947500Y-77939998D01*
G75*
G02*
X132197498Y-77690000I249998J0D01*
G01*
X132722502Y-77690000D01*
G75*
G02*
X132972500Y-77939998I0J-249998D01*
G01*
G37*
G36*
G01*
X131147500Y-77939998D02*
X131147500Y-78840002D01*
G75*
G02*
X130897502Y-79090000I-249998J0D01*
G01*
X130372498Y-79090000D01*
G75*
G02*
X130122500Y-78840002I0J249998D01*
G01*
X130122500Y-77939998D01*
G75*
G02*
X130372498Y-77690000I249998J0D01*
G01*
X130897502Y-77690000D01*
G75*
G02*
X131147500Y-77939998I0J-249998D01*
G01*
G37*
%TD*%
%TO.C,R12*%
G36*
G01*
X131429998Y-90897500D02*
X132330002Y-90897500D01*
G75*
G02*
X132580000Y-91147498I0J-249998D01*
G01*
X132580000Y-91672502D01*
G75*
G02*
X132330002Y-91922500I-249998J0D01*
G01*
X131429998Y-91922500D01*
G75*
G02*
X131180000Y-91672502I0J249998D01*
G01*
X131180000Y-91147498D01*
G75*
G02*
X131429998Y-90897500I249998J0D01*
G01*
G37*
G36*
G01*
X131429998Y-89072500D02*
X132330002Y-89072500D01*
G75*
G02*
X132580000Y-89322498I0J-249998D01*
G01*
X132580000Y-89847502D01*
G75*
G02*
X132330002Y-90097500I-249998J0D01*
G01*
X131429998Y-90097500D01*
G75*
G02*
X131180000Y-89847502I0J249998D01*
G01*
X131180000Y-89322498D01*
G75*
G02*
X131429998Y-89072500I249998J0D01*
G01*
G37*
%TD*%
%TO.C,R13*%
G36*
G01*
X113647500Y-99230002D02*
X113647500Y-98329998D01*
G75*
G02*
X113897498Y-98080000I249998J0D01*
G01*
X114422502Y-98080000D01*
G75*
G02*
X114672500Y-98329998I0J-249998D01*
G01*
X114672500Y-99230002D01*
G75*
G02*
X114422502Y-99480000I-249998J0D01*
G01*
X113897498Y-99480000D01*
G75*
G02*
X113647500Y-99230002I0J249998D01*
G01*
G37*
G36*
G01*
X111822500Y-99230002D02*
X111822500Y-98329998D01*
G75*
G02*
X112072498Y-98080000I249998J0D01*
G01*
X112597502Y-98080000D01*
G75*
G02*
X112847500Y-98329998I0J-249998D01*
G01*
X112847500Y-99230002D01*
G75*
G02*
X112597502Y-99480000I-249998J0D01*
G01*
X112072498Y-99480000D01*
G75*
G02*
X111822500Y-99230002I0J249998D01*
G01*
G37*
%TD*%
%TO.C,R14*%
G36*
G01*
X111822500Y-103170002D02*
X111822500Y-102269998D01*
G75*
G02*
X112072498Y-102020000I249998J0D01*
G01*
X112597502Y-102020000D01*
G75*
G02*
X112847500Y-102269998I0J-249998D01*
G01*
X112847500Y-103170002D01*
G75*
G02*
X112597502Y-103420000I-249998J0D01*
G01*
X112072498Y-103420000D01*
G75*
G02*
X111822500Y-103170002I0J249998D01*
G01*
G37*
G36*
G01*
X113647500Y-103170002D02*
X113647500Y-102269998D01*
G75*
G02*
X113897498Y-102020000I249998J0D01*
G01*
X114422502Y-102020000D01*
G75*
G02*
X114672500Y-102269998I0J-249998D01*
G01*
X114672500Y-103170002D01*
G75*
G02*
X114422502Y-103420000I-249998J0D01*
G01*
X113897498Y-103420000D01*
G75*
G02*
X113647500Y-103170002I0J249998D01*
G01*
G37*
%TD*%
%TO.C,R15*%
G36*
G01*
X111822500Y-101210002D02*
X111822500Y-100309998D01*
G75*
G02*
X112072498Y-100060000I249998J0D01*
G01*
X112597502Y-100060000D01*
G75*
G02*
X112847500Y-100309998I0J-249998D01*
G01*
X112847500Y-101210002D01*
G75*
G02*
X112597502Y-101460000I-249998J0D01*
G01*
X112072498Y-101460000D01*
G75*
G02*
X111822500Y-101210002I0J249998D01*
G01*
G37*
G36*
G01*
X113647500Y-101210002D02*
X113647500Y-100309998D01*
G75*
G02*
X113897498Y-100060000I249998J0D01*
G01*
X114422502Y-100060000D01*
G75*
G02*
X114672500Y-100309998I0J-249998D01*
G01*
X114672500Y-101210002D01*
G75*
G02*
X114422502Y-101460000I-249998J0D01*
G01*
X113897498Y-101460000D01*
G75*
G02*
X113647500Y-101210002I0J249998D01*
G01*
G37*
%TD*%
%TO.C,R16*%
G36*
G01*
X111802500Y-105150002D02*
X111802500Y-104249998D01*
G75*
G02*
X112052498Y-104000000I249998J0D01*
G01*
X112577502Y-104000000D01*
G75*
G02*
X112827500Y-104249998I0J-249998D01*
G01*
X112827500Y-105150002D01*
G75*
G02*
X112577502Y-105400000I-249998J0D01*
G01*
X112052498Y-105400000D01*
G75*
G02*
X111802500Y-105150002I0J249998D01*
G01*
G37*
G36*
G01*
X113627500Y-105150002D02*
X113627500Y-104249998D01*
G75*
G02*
X113877498Y-104000000I249998J0D01*
G01*
X114402502Y-104000000D01*
G75*
G02*
X114652500Y-104249998I0J-249998D01*
G01*
X114652500Y-105150002D01*
G75*
G02*
X114402502Y-105400000I-249998J0D01*
G01*
X113877498Y-105400000D01*
G75*
G02*
X113627500Y-105150002I0J249998D01*
G01*
G37*
%TD*%
%TO.C,R17*%
G36*
G01*
X131127500Y-71979998D02*
X131127500Y-72880002D01*
G75*
G02*
X130877502Y-73130000I-249998J0D01*
G01*
X130352498Y-73130000D01*
G75*
G02*
X130102500Y-72880002I0J249998D01*
G01*
X130102500Y-71979998D01*
G75*
G02*
X130352498Y-71730000I249998J0D01*
G01*
X130877502Y-71730000D01*
G75*
G02*
X131127500Y-71979998I0J-249998D01*
G01*
G37*
G36*
G01*
X132952500Y-71979998D02*
X132952500Y-72880002D01*
G75*
G02*
X132702502Y-73130000I-249998J0D01*
G01*
X132177498Y-73130000D01*
G75*
G02*
X131927500Y-72880002I0J249998D01*
G01*
X131927500Y-71979998D01*
G75*
G02*
X132177498Y-71730000I249998J0D01*
G01*
X132702502Y-71730000D01*
G75*
G02*
X132952500Y-71979998I0J-249998D01*
G01*
G37*
%TD*%
%TO.C,R18*%
G36*
G01*
X114217500Y-79590002D02*
X114217500Y-78689998D01*
G75*
G02*
X114467498Y-78440000I249998J0D01*
G01*
X114992502Y-78440000D01*
G75*
G02*
X115242500Y-78689998I0J-249998D01*
G01*
X115242500Y-79590002D01*
G75*
G02*
X114992502Y-79840000I-249998J0D01*
G01*
X114467498Y-79840000D01*
G75*
G02*
X114217500Y-79590002I0J249998D01*
G01*
G37*
G36*
G01*
X112392500Y-79590002D02*
X112392500Y-78689998D01*
G75*
G02*
X112642498Y-78440000I249998J0D01*
G01*
X113167502Y-78440000D01*
G75*
G02*
X113417500Y-78689998I0J-249998D01*
G01*
X113417500Y-79590002D01*
G75*
G02*
X113167502Y-79840000I-249998J0D01*
G01*
X112642498Y-79840000D01*
G75*
G02*
X112392500Y-79590002I0J249998D01*
G01*
G37*
%TD*%
%TO.C,R19*%
G36*
G01*
X115237500Y-80699998D02*
X115237500Y-81600002D01*
G75*
G02*
X114987502Y-81850000I-249998J0D01*
G01*
X114462498Y-81850000D01*
G75*
G02*
X114212500Y-81600002I0J249998D01*
G01*
X114212500Y-80699998D01*
G75*
G02*
X114462498Y-80450000I249998J0D01*
G01*
X114987502Y-80450000D01*
G75*
G02*
X115237500Y-80699998I0J-249998D01*
G01*
G37*
G36*
G01*
X113412500Y-80699998D02*
X113412500Y-81600002D01*
G75*
G02*
X113162502Y-81850000I-249998J0D01*
G01*
X112637498Y-81850000D01*
G75*
G02*
X112387500Y-81600002I0J249998D01*
G01*
X112387500Y-80699998D01*
G75*
G02*
X112637498Y-80450000I249998J0D01*
G01*
X113162502Y-80450000D01*
G75*
G02*
X113412500Y-80699998I0J-249998D01*
G01*
G37*
%TD*%
%TO.C,U4*%
G36*
G01*
X97295000Y-90866000D02*
X97295000Y-90554000D01*
G75*
G02*
X97334000Y-90515000I39000J0D01*
G01*
X98316000Y-90515000D01*
G75*
G02*
X98355000Y-90554000I0J-39000D01*
G01*
X98355000Y-90866000D01*
G75*
G02*
X98316000Y-90905000I-39000J0D01*
G01*
X97334000Y-90905000D01*
G75*
G02*
X97295000Y-90866000I0J39000D01*
G01*
G37*
G36*
G01*
X97295000Y-91516000D02*
X97295000Y-91204000D01*
G75*
G02*
X97334000Y-91165000I39000J0D01*
G01*
X98316000Y-91165000D01*
G75*
G02*
X98355000Y-91204000I0J-39000D01*
G01*
X98355000Y-91516000D01*
G75*
G02*
X98316000Y-91555000I-39000J0D01*
G01*
X97334000Y-91555000D01*
G75*
G02*
X97295000Y-91516000I0J39000D01*
G01*
G37*
G36*
G01*
X97295000Y-92166000D02*
X97295000Y-91854000D01*
G75*
G02*
X97334000Y-91815000I39000J0D01*
G01*
X98316000Y-91815000D01*
G75*
G02*
X98355000Y-91854000I0J-39000D01*
G01*
X98355000Y-92166000D01*
G75*
G02*
X98316000Y-92205000I-39000J0D01*
G01*
X97334000Y-92205000D01*
G75*
G02*
X97295000Y-92166000I0J39000D01*
G01*
G37*
G36*
G01*
X95425000Y-92166000D02*
X95425000Y-91854000D01*
G75*
G02*
X95464000Y-91815000I39000J0D01*
G01*
X96446000Y-91815000D01*
G75*
G02*
X96485000Y-91854000I0J-39000D01*
G01*
X96485000Y-92166000D01*
G75*
G02*
X96446000Y-92205000I-39000J0D01*
G01*
X95464000Y-92205000D01*
G75*
G02*
X95425000Y-92166000I0J39000D01*
G01*
G37*
G36*
G01*
X95425000Y-91516000D02*
X95425000Y-91204000D01*
G75*
G02*
X95464000Y-91165000I39000J0D01*
G01*
X96446000Y-91165000D01*
G75*
G02*
X96485000Y-91204000I0J-39000D01*
G01*
X96485000Y-91516000D01*
G75*
G02*
X96446000Y-91555000I-39000J0D01*
G01*
X95464000Y-91555000D01*
G75*
G02*
X95425000Y-91516000I0J39000D01*
G01*
G37*
G36*
G01*
X95425000Y-90866000D02*
X95425000Y-90554000D01*
G75*
G02*
X95464000Y-90515000I39000J0D01*
G01*
X96446000Y-90515000D01*
G75*
G02*
X96485000Y-90554000I0J-39000D01*
G01*
X96485000Y-90866000D01*
G75*
G02*
X96446000Y-90905000I-39000J0D01*
G01*
X95464000Y-90905000D01*
G75*
G02*
X95425000Y-90866000I0J39000D01*
G01*
G37*
%TD*%
D22*
%TO.C,S3*%
X132220000Y-56530000D03*
X134720000Y-56530000D03*
X137220000Y-56530000D03*
X132220000Y-51030000D03*
X134720000Y-51030000D03*
X137220000Y-51030000D03*
%TD*%
%TO.C,R20*%
G36*
G01*
X126259999Y-46397500D02*
X127160001Y-46397500D01*
G75*
G02*
X127410000Y-46647499I0J-249999D01*
G01*
X127410000Y-47172501D01*
G75*
G02*
X127160001Y-47422500I-249999J0D01*
G01*
X126259999Y-47422500D01*
G75*
G02*
X126010000Y-47172501I0J249999D01*
G01*
X126010000Y-46647499D01*
G75*
G02*
X126259999Y-46397500I249999J0D01*
G01*
G37*
G36*
G01*
X126259999Y-44572500D02*
X127160001Y-44572500D01*
G75*
G02*
X127410000Y-44822499I0J-249999D01*
G01*
X127410000Y-45347501D01*
G75*
G02*
X127160001Y-45597500I-249999J0D01*
G01*
X126259999Y-45597500D01*
G75*
G02*
X126010000Y-45347501I0J249999D01*
G01*
X126010000Y-44822499D01*
G75*
G02*
X126259999Y-44572500I249999J0D01*
G01*
G37*
%TD*%
%TO.C,R21*%
G36*
G01*
X126025000Y-49150001D02*
X126025000Y-48249999D01*
G75*
G02*
X126274999Y-48000000I249999J0D01*
G01*
X126800001Y-48000000D01*
G75*
G02*
X127050000Y-48249999I0J-249999D01*
G01*
X127050000Y-49150001D01*
G75*
G02*
X126800001Y-49400000I-249999J0D01*
G01*
X126274999Y-49400000D01*
G75*
G02*
X126025000Y-49150001I0J249999D01*
G01*
G37*
G36*
G01*
X127850000Y-49150001D02*
X127850000Y-48249999D01*
G75*
G02*
X128099999Y-48000000I249999J0D01*
G01*
X128625001Y-48000000D01*
G75*
G02*
X128875000Y-48249999I0J-249999D01*
G01*
X128875000Y-49150001D01*
G75*
G02*
X128625001Y-49400000I-249999J0D01*
G01*
X128099999Y-49400000D01*
G75*
G02*
X127850000Y-49150001I0J249999D01*
G01*
G37*
%TD*%
M02*
